<?xml version="1.0" encoding="UTF-8" standalone="no"?>
<!-- Created with Inkscape (http://www.inkscape.org/) -->

<svg
   version="1.1"
   id="svg2"
   xml:space="preserve"
   width="2560"
   height="1440"
   viewBox="0 0 2560 1440"
   sodipodi:docname="6th Derasat Forum logo.ai"
   xmlns:inkscape="http://www.inkscape.org/namespaces/inkscape"
   xmlns:sodipodi="http://sodipodi.sourceforge.net/DTD/sodipodi-0.dtd"
   xmlns="http://www.w3.org/2000/svg"
   xmlns:svg="http://www.w3.org/2000/svg"><defs
     id="defs6"><clipPath
       clipPathUnits="userSpaceOnUse"
       id="clipPath16"><path
         d="M 0,1080 H 1920 V 0 H 0 Z"
         id="path14" /></clipPath><linearGradient
       x1="0"
       y1="0"
       x2="1"
       y2="0"
       gradientUnits="userSpaceOnUse"
       gradientTransform="matrix(-151.5892,110.74033,110.74033,151.5892,1115.7504,647.14343)"
       spreadMethod="pad"
       id="linearGradient212"><stop
         style="stop-opacity:1;stop-color:#1f386e"
         offset="0"
         id="stop202" /><stop
         style="stop-opacity:1;stop-color:#1276bb"
         offset="0.20751882"
         id="stop204" /><stop
         style="stop-opacity:1;stop-color:#1276bb"
         offset="0.5"
         id="stop206" /><stop
         style="stop-opacity:1;stop-color:#1276bb"
         offset="0.79248118"
         id="stop208" /><stop
         style="stop-opacity:1;stop-color:#20a7df"
         offset="1"
         id="stop210" /></linearGradient><linearGradient
       x1="0"
       y1="0"
       x2="1"
       y2="0"
       gradientUnits="userSpaceOnUse"
       gradientTransform="matrix(-102.19507,74.656471,74.656471,102.19507,1147.0128,743.77222)"
       spreadMethod="pad"
       id="linearGradient238"><stop
         style="stop-opacity:1;stop-color:#1f386e"
         offset="0"
         id="stop228" /><stop
         style="stop-opacity:1;stop-color:#1f386e"
         offset="0.36407048"
         id="stop230" /><stop
         style="stop-opacity:1;stop-color:#1276bb"
         offset="0.75"
         id="stop232" /><stop
         style="stop-opacity:1;stop-color:#1276bb"
         offset="0.89624059"
         id="stop234" /><stop
         style="stop-opacity:1;stop-color:#20a7df"
         offset="1"
         id="stop236" /></linearGradient><linearGradient
       x1="0"
       y1="0"
       x2="1"
       y2="0"
       gradientUnits="userSpaceOnUse"
       gradientTransform="matrix(50.670307,115.78733,-115.78733,50.670307,1021.3369,686.53979)"
       spreadMethod="pad"
       id="linearGradient262"><stop
         style="stop-opacity:1;stop-color:#1f386e"
         offset="0"
         id="stop254" /><stop
         style="stop-opacity:1;stop-color:#1276bb"
         offset="0.10375941"
         id="stop256" /><stop
         style="stop-opacity:1;stop-color:#1276bb"
         offset="0.25"
         id="stop258" /><stop
         style="stop-opacity:1;stop-color:#20a7df"
         offset="1"
         id="stop260" /></linearGradient><linearGradient
       x1="0"
       y1="0"
       x2="1"
       y2="0"
       gradientUnits="userSpaceOnUse"
       gradientTransform="matrix(-173.01091,-72.86721,-72.86721,173.01091,1107.5499,849.36884)"
       spreadMethod="pad"
       id="linearGradient288"><stop
         style="stop-opacity:1;stop-color:#1f386e"
         offset="0"
         id="stop278" /><stop
         style="stop-opacity:1;stop-color:#1276bb"
         offset="0.20751882"
         id="stop280" /><stop
         style="stop-opacity:1;stop-color:#1276bb"
         offset="0.5"
         id="stop282" /><stop
         style="stop-opacity:1;stop-color:#1276bb"
         offset="0.79248118"
         id="stop284" /><stop
         style="stop-opacity:1;stop-color:#20a7df"
         offset="1"
         id="stop286" /></linearGradient><linearGradient
       x1="0"
       y1="0"
       x2="1"
       y2="0"
       gradientUnits="userSpaceOnUse"
       gradientTransform="matrix(-116.65609,-49.132187,-49.132187,116.65609,1041.4508,924.49432)"
       spreadMethod="pad"
       id="linearGradient314"><stop
         style="stop-opacity:1;stop-color:#1f386e"
         offset="0"
         id="stop304" /><stop
         style="stop-opacity:1;stop-color:#1f386e"
         offset="0.36407048"
         id="stop306" /><stop
         style="stop-opacity:1;stop-color:#1276bb"
         offset="0.75"
         id="stop308" /><stop
         style="stop-opacity:1;stop-color:#1276bb"
         offset="0.89624059"
         id="stop310" /><stop
         style="stop-opacity:1;stop-color:#20a7df"
         offset="1"
         id="stop312" /></linearGradient><linearGradient
       x1="0"
       y1="0"
       x2="1"
       y2="0"
       gradientUnits="userSpaceOnUse"
       gradientTransform="matrix(-73.130539,103.0788,-103.0788,-73.130539,1025.292,785.75616)"
       spreadMethod="pad"
       id="linearGradient338"><stop
         style="stop-opacity:1;stop-color:#1f386e"
         offset="0"
         id="stop330" /><stop
         style="stop-opacity:1;stop-color:#1276bb"
         offset="0.10375941"
         id="stop332" /><stop
         style="stop-opacity:1;stop-color:#1276bb"
         offset="0.25"
         id="stop334" /><stop
         style="stop-opacity:1;stop-color:#20a7df"
         offset="1"
         id="stop336" /></linearGradient><linearGradient
       x1="0"
       y1="0"
       x2="1"
       y2="0"
       gradientUnits="userSpaceOnUse"
       gradientTransform="matrix(-26.666437,-185.84178,-185.84178,26.666437,930.2641,944.24927)"
       spreadMethod="pad"
       id="linearGradient364"><stop
         style="stop-opacity:1;stop-color:#1f386e"
         offset="0"
         id="stop354" /><stop
         style="stop-opacity:1;stop-color:#1276bb"
         offset="0.20751882"
         id="stop356" /><stop
         style="stop-opacity:1;stop-color:#1276bb"
         offset="0.5"
         id="stop358" /><stop
         style="stop-opacity:1;stop-color:#1276bb"
         offset="0.79248118"
         id="stop360" /><stop
         style="stop-opacity:1;stop-color:#20a7df"
         offset="1"
         id="stop362" /></linearGradient><linearGradient
       x1="0"
       y1="0"
       x2="1"
       y2="0"
       gradientUnits="userSpaceOnUse"
       gradientTransform="matrix(-17.977028,-125.28418,-125.28418,17.977028,843.32056,924.6369)"
       spreadMethod="pad"
       id="linearGradient390"><stop
         style="stop-opacity:1;stop-color:#1f386e"
         offset="0"
         id="stop380" /><stop
         style="stop-opacity:1;stop-color:#1f386e"
         offset="0.36407048"
         id="stop382" /><stop
         style="stop-opacity:1;stop-color:#1276bb"
         offset="0.75"
         id="stop384" /><stop
         style="stop-opacity:1;stop-color:#1276bb"
         offset="0.89624059"
         id="stop386" /><stop
         style="stop-opacity:1;stop-color:#20a7df"
         offset="1"
         id="stop388" /></linearGradient><linearGradient
       x1="0"
       y1="0"
       x2="1"
       y2="0"
       gradientUnits="userSpaceOnUse"
       gradientTransform="matrix(-126.02745,-9.5803308,9.5803308,-126.02745,943.31512,838.73096)"
       spreadMethod="pad"
       id="linearGradient414"><stop
         style="stop-opacity:1;stop-color:#1f386e"
         offset="0"
         id="stop406" /><stop
         style="stop-opacity:1;stop-color:#1276bb"
         offset="0.10375941"
         id="stop408" /><stop
         style="stop-opacity:1;stop-color:#1276bb"
         offset="0.25"
         id="stop410" /><stop
         style="stop-opacity:1;stop-color:#20a7df"
         offset="1"
         id="stop412" /></linearGradient><linearGradient
       x1="0"
       y1="0"
       x2="1"
       y2="0"
       gradientUnits="userSpaceOnUse"
       gradientTransform="matrix(145.52148,-118.59535,-118.59535,-145.52148,760.17596,843.29132)"
       spreadMethod="pad"
       id="linearGradient440"><stop
         style="stop-opacity:1;stop-color:#1f386e"
         offset="0"
         id="stop430" /><stop
         style="stop-opacity:1;stop-color:#1276bb"
         offset="0.20751882"
         id="stop432" /><stop
         style="stop-opacity:1;stop-color:#1276bb"
         offset="0.5"
         id="stop434" /><stop
         style="stop-opacity:1;stop-color:#1276bb"
         offset="0.79248118"
         id="stop436" /><stop
         style="stop-opacity:1;stop-color:#20a7df"
         offset="1"
         id="stop438" /></linearGradient><linearGradient
       x1="0"
       y1="0"
       x2="1"
       y2="0"
       gradientUnits="userSpaceOnUse"
       gradientTransform="matrix(98.107002,-79.954071,-79.954071,-98.107002,723.17078,747.58337)"
       spreadMethod="pad"
       id="linearGradient466"><stop
         style="stop-opacity:1;stop-color:#1f386e"
         offset="0"
         id="stop456" /><stop
         style="stop-opacity:1;stop-color:#1f386e"
         offset="0.36407048"
         id="stop458" /><stop
         style="stop-opacity:1;stop-color:#1276bb"
         offset="0.75"
         id="stop460" /><stop
         style="stop-opacity:1;stop-color:#1276bb"
         offset="0.89624059"
         id="stop462" /><stop
         style="stop-opacity:1;stop-color:#20a7df"
         offset="1"
         id="stop464" /></linearGradient><linearGradient
       x1="0"
       y1="0"
       x2="1"
       y2="0"
       gradientUnits="userSpaceOnUse"
       gradientTransform="matrix(-56.701401,-112.94682,112.94682,-56.701401,854.40161,798.44104)"
       spreadMethod="pad"
       id="linearGradient490"><stop
         style="stop-opacity:1;stop-color:#1f386e"
         offset="0"
         id="stop482" /><stop
         style="stop-opacity:1;stop-color:#1276bb"
         offset="0.10375941"
         id="stop484" /><stop
         style="stop-opacity:1;stop-color:#1276bb"
         offset="0.25"
         id="stop486" /><stop
         style="stop-opacity:1;stop-color:#20a7df"
         offset="1"
         id="stop488" /></linearGradient><linearGradient
       x1="0"
       y1="0"
       x2="1"
       y2="0"
       gradientUnits="userSpaceOnUse"
       gradientTransform="matrix(176.6221,63.633911,63.633911,-176.6221,758.01453,641.16394)"
       spreadMethod="pad"
       id="linearGradient516"><stop
         style="stop-opacity:1;stop-color:#1f386e"
         offset="0"
         id="stop506" /><stop
         style="stop-opacity:1;stop-color:#1276bb"
         offset="0.20751882"
         id="stop508" /><stop
         style="stop-opacity:1;stop-color:#1276bb"
         offset="0.5"
         id="stop510" /><stop
         style="stop-opacity:1;stop-color:#1276bb"
         offset="0.79248118"
         id="stop512" /><stop
         style="stop-opacity:1;stop-color:#20a7df"
         offset="1"
         id="stop514" /></linearGradient><linearGradient
       x1="0"
       y1="0"
       x2="1"
       y2="0"
       gradientUnits="userSpaceOnUse"
       gradientTransform="matrix(119.06862,42.89838,42.89838,-119.06862,819.61639,563.93994)"
       spreadMethod="pad"
       id="linearGradient542"><stop
         style="stop-opacity:1;stop-color:#1f386e"
         offset="0"
         id="stop532" /><stop
         style="stop-opacity:1;stop-color:#1f386e"
         offset="0.36407048"
         id="stop534" /><stop
         style="stop-opacity:1;stop-color:#1276bb"
         offset="0.75"
         id="stop536" /><stop
         style="stop-opacity:1;stop-color:#1276bb"
         offset="0.89624059"
         id="stop538" /><stop
         style="stop-opacity:1;stop-color:#20a7df"
         offset="1"
         id="stop540" /></linearGradient><linearGradient
       x1="0"
       y1="0"
       x2="1"
       y2="0"
       gradientUnits="userSpaceOnUse"
       gradientTransform="matrix(67.585693,-106.78445,106.78445,67.585693,843.09894,700.19714)"
       spreadMethod="pad"
       id="linearGradient566"><stop
         style="stop-opacity:1;stop-color:#1f386e"
         offset="0"
         id="stop558" /><stop
         style="stop-opacity:1;stop-color:#1276bb"
         offset="0.10375941"
         id="stop560" /><stop
         style="stop-opacity:1;stop-color:#1276bb"
         offset="0.25"
         id="stop562" /><stop
         style="stop-opacity:1;stop-color:#20a7df"
         offset="1"
         id="stop564" /></linearGradient><linearGradient
       x1="0"
       y1="0"
       x2="1"
       y2="0"
       gradientUnits="userSpaceOnUse"
       gradientTransform="matrix(36.441429,184.17143,184.17143,-36.441429,930.02783,537.16187)"
       spreadMethod="pad"
       id="linearGradient592"><stop
         style="stop-opacity:1;stop-color:#1f386e"
         offset="0"
         id="stop582" /><stop
         style="stop-opacity:1;stop-color:#1276bb"
         offset="0.20751882"
         id="stop584" /><stop
         style="stop-opacity:1;stop-color:#1276bb"
         offset="0.5"
         id="stop586" /><stop
         style="stop-opacity:1;stop-color:#1276bb"
         offset="0.79248118"
         id="stop588" /><stop
         style="stop-opacity:1;stop-color:#20a7df"
         offset="1"
         id="stop590" /></linearGradient><linearGradient
       x1="0"
       y1="0"
       x2="1"
       y2="0"
       gradientUnits="userSpaceOnUse"
       gradientTransform="matrix(24.568758,124.16809,124.16809,-24.568758,1018.8787,551.96344)"
       spreadMethod="pad"
       id="linearGradient618"><stop
         style="stop-opacity:1;stop-color:#1f386e"
         offset="0"
         id="stop608" /><stop
         style="stop-opacity:1;stop-color:#1f386e"
         offset="0.36407048"
         id="stop610" /><stop
         style="stop-opacity:1;stop-color:#1276bb"
         offset="0.75"
         id="stop612" /><stop
         style="stop-opacity:1;stop-color:#1276bb"
         offset="0.89624059"
         id="stop614" /><stop
         style="stop-opacity:1;stop-color:#20a7df"
         offset="1"
         id="stop616" /></linearGradient><linearGradient
       x1="0"
       y1="0"
       x2="1"
       y2="0"
       gradientUnits="userSpaceOnUse"
       gradientTransform="matrix(126.35924,2.9209988,-2.9209988,126.35924,922.65717,638.77881)"
       spreadMethod="pad"
       id="linearGradient642"><stop
         style="stop-opacity:1;stop-color:#1f386e"
         offset="0"
         id="stop634" /><stop
         style="stop-opacity:1;stop-color:#1276bb"
         offset="0.10375941"
         id="stop636" /><stop
         style="stop-opacity:1;stop-color:#1276bb"
         offset="0.25"
         id="stop638" /><stop
         style="stop-opacity:1;stop-color:#20a7df"
         offset="1"
         id="stop640" /></linearGradient></defs><sodipodi:namedview
     id="namedview4"
     pagecolor="#ffffff"
     bordercolor="#666666"
     borderopacity="1.0"
     inkscape:pageshadow="2"
     inkscape:pageopacity="0.0"
     inkscape:pagecheckerboard="0" /><g
     id="g8"
     inkscape:groupmode="layer"
     inkscape:label="6th Derasat Forum logo"
     transform="matrix(1.3333333,0,0,-1.3333333,0,1440)"><g
       id="g10"><g
         id="g12"
         clip-path="url(#clipPath16)"><g
           id="g18"
           transform="translate(253.3193,165.0811)"><path
             d="m 0,0 c 2.327,2.004 3.491,4.727 3.491,8.164 0,3.438 -1.164,6.177 -3.491,8.218 -2.328,2.041 -5.425,3.062 -9.292,3.062 -3.797,0 -6.913,-1.057 -9.347,-3.17 -2.435,-2.113 -3.652,-4.817 -3.652,-8.11 0,-3.295 1.182,-5.98 3.545,-8.057 2.364,-2.078 5.586,-3.115 9.668,-3.115 3.724,0 6.75,1.002 9.078,3.008 m 7.574,29.542 c 3.938,-1.934 7.053,-4.673 9.346,-8.218 2.291,-3.546 3.437,-7.646 3.437,-12.301 0,-5.013 -1.253,-9.418 -3.759,-13.213 -2.508,-3.797 -5.928,-6.714 -10.26,-8.755 -4.334,-2.041 -9.15,-3.062 -14.449,-3.062 -10.528,0 -18.764,3.223 -24.708,9.668 -5.945,6.446 -8.916,15.648 -8.916,27.61 0,8.521 1.611,15.826 4.834,21.915 3.223,6.085 7.716,10.705 13.482,13.857 5.764,3.15 12.443,4.727 20.035,4.727 4.01,0 7.859,-0.449 11.549,-1.343 3.687,-0.896 6.821,-2.167 9.399,-3.814 L 11.119,43.83 c -3.725,2.506 -8.416,3.76 -14.073,3.76 -6.375,0 -11.424,-1.863 -15.148,-5.586 -3.724,-3.726 -5.73,-9.132 -6.015,-16.222 4.44,4.44 10.635,6.66 18.585,6.66 4.797,0 9.166,-0.966 13.106,-2.9"
             style="fill:#1f386d;fill-opacity:1;fill-rule:nonzero;stroke:none"
             id="path20" /></g><g
           id="g22"
           transform="translate(290.105,185.9375)"><path
             d="M 0,0 H -14.029 V 8.267 H 24.175 V 0 H 10.146 V -35.574 H 0 Z"
             style="fill:#1f386d;fill-opacity:1;fill-rule:nonzero;stroke:none"
             id="path24" /></g><g
           id="g26"
           transform="translate(359.9375,194.2041)"><path
             d="m 0,0 v -43.841 h -10.146 v 17.975 H -30.062 V -43.841 H -40.208 V 0 h 10.146 v -17.286 h 19.916 V 0 Z"
             style="fill:#1f386d;fill-opacity:1;fill-rule:nonzero;stroke:none"
             id="path28" /></g><g
           id="g30"
           transform="translate(466.2231,179.6904)"><path
             d="M 0,0 -11.924,28.791 -23.849,0 Z m 5.479,-13.213 h -34.914 l -6.66,-16.114 h -17.833 l 33.517,75.198 H -3.223 L 30.401,-29.327 H 12.139 Z"
             style="fill:#1f386d;fill-opacity:1;fill-rule:nonzero;stroke:none"
             id="path32" /></g><g
           id="g34"
           transform="translate(555.7627,202.5723)"><path
             d="M 0,0 C 4.405,-4.297 6.607,-10.672 6.607,-19.122 V -52.209 H -10.152 V -21.7 c 0,4.583 -1.003,8.004 -3.008,10.26 -2.006,2.255 -4.906,3.383 -8.701,3.383 -4.227,0 -7.592,-1.307 -10.098,-3.921 -2.508,-2.615 -3.76,-6.499 -3.76,-11.656 V -52.209 H -52.478 V 5.587 h 16.007 v -6.769 c 2.219,2.435 4.977,4.315 8.272,5.641 3.293,1.324 6.91,1.987 10.85,1.987 C -10.188,6.446 -4.404,4.298 0,0"
             style="fill:#1f386d;fill-opacity:1;fill-rule:nonzero;stroke:none"
             id="path36" /></g><g
           id="g38"
           transform="translate(629.9946,202.5723)"><path
             d="M 0,0 C 4.405,-4.297 6.607,-10.672 6.607,-19.122 V -52.209 H -10.152 V -21.7 c 0,4.583 -1.003,8.004 -3.008,10.26 -2.006,2.255 -4.906,3.383 -8.701,3.383 -4.227,0 -7.592,-1.307 -10.098,-3.921 -2.508,-2.615 -3.76,-6.499 -3.76,-11.656 V -52.209 H -52.478 V 5.587 h 16.007 v -6.769 c 2.219,2.435 4.977,4.315 8.272,5.641 3.293,1.324 6.91,1.987 10.85,1.987 C -10.188,6.446 -4.404,4.298 0,0"
             style="fill:#1f386d;fill-opacity:1;fill-rule:nonzero;stroke:none"
             id="path40" /></g><g
           id="g42"
           transform="translate(709.9736,208.1592)"><path
             d="m 0,0 v -57.796 h -15.899 v 6.875 c -2.221,-2.508 -4.872,-4.423 -7.95,-5.747 -3.08,-1.324 -6.41,-1.987 -9.99,-1.987 -7.593,0 -13.608,2.183 -18.048,6.552 -4.442,4.369 -6.66,10.851 -6.66,19.445 V 0 h 16.758 v -30.187 c 0,-9.311 3.903,-13.965 11.709,-13.965 4.011,0 7.233,1.305 9.669,3.921 2.434,2.613 3.652,6.499 3.652,11.655 V 0 Z"
             style="fill:#1f386d;fill-opacity:1;fill-rule:nonzero;stroke:none"
             id="path44" /></g><g
           id="g46"
           transform="translate(755.2002,162.7715)"><path
             d="m 0,0 c 2.219,1.324 3.795,3.276 4.727,5.854 v 5.909 H -6.768 c -6.875,0 -10.313,-2.256 -10.313,-6.768 0,-2.148 0.841,-3.85 2.525,-5.102 1.682,-1.254 3.992,-1.881 6.929,-1.881 2.863,0 5.406,0.662 7.627,1.988 m 14.288,39.854 c 4.797,-4.261 7.197,-10.688 7.197,-19.283 V -12.408 H 5.801 v 7.197 c -3.152,-5.371 -9.024,-8.057 -17.618,-8.057 -4.441,0 -8.29,0.752 -11.548,2.256 -3.26,1.504 -5.747,3.58 -7.466,6.231 -1.719,2.649 -2.579,5.657 -2.579,9.024 0,5.371 2.023,9.596 6.07,12.676 4.046,3.079 10.295,4.62 18.746,4.62 H 4.727 c 0,3.652 -1.111,6.462 -3.331,8.433 -2.22,1.968 -5.55,2.954 -9.99,2.954 -3.08,0 -6.107,-0.484 -9.077,-1.45 -2.973,-0.967 -5.498,-2.275 -7.574,-3.921 l -6.016,11.709 c 3.151,2.219 6.929,3.938 11.334,5.157 4.404,1.217 8.933,1.826 13.589,1.826 8.952,0 15.827,-2.132 20.626,-6.393"
             style="fill:#1f386d;fill-opacity:1;fill-rule:nonzero;stroke:none"
             id="path48" /></g><path
           d="m 791.833,230.074 h 16.758 v -79.711 h -16.758 z"
           style="fill:#1f386d;fill-opacity:1;fill-rule:nonzero;stroke:none"
           id="path50" /><g
           id="g52"
           transform="translate(889.0542,164.6514)"><path
             d="m 0,0 c 7.52,0 13.517,2.095 17.994,6.284 4.475,4.19 6.714,9.864 6.714,17.028 0,7.16 -2.239,12.836 -6.714,17.026 C 13.517,44.528 7.52,46.623 0,46.623 H -15.899 V 0 Z M -33.302,60.91 H 0.859 c 8.165,0 15.379,-1.557 21.647,-4.673 6.266,-3.115 11.135,-7.503 14.61,-13.159 3.473,-5.659 5.21,-12.247 5.21,-19.766 0,-7.521 -1.737,-14.111 -5.21,-19.767 C 33.641,-2.113 28.772,-6.5 22.506,-9.615 16.238,-12.73 9.024,-14.288 0.859,-14.288 h -34.161 z"
             style="fill:#1f386d;fill-opacity:1;fill-rule:nonzero;stroke:none"
             id="path54" /></g><g
           id="g56"
           transform="translate(960.3853,193.1191)"><path
             d="m 0,0 c -2.578,-2.148 -4.154,-5.086 -4.727,-8.809 h 28.469 c -0.575,3.653 -2.149,6.57 -4.727,8.755 C 16.437,2.13 13.285,3.223 9.562,3.223 5.765,3.223 2.578,2.148 0,0 M 39.21,-18.585 H -4.512 c 0.787,-3.582 2.649,-6.41 5.586,-8.486 2.935,-2.078 6.59,-3.116 10.959,-3.116 3.008,0 5.674,0.447 8.002,1.343 2.326,0.895 4.494,2.31 6.5,4.243 l 8.916,-9.669 c -5.444,-6.23 -13.393,-9.345 -23.848,-9.345 -6.52,0 -12.284,1.27 -17.296,3.813 -5.015,2.541 -8.882,6.07 -11.602,10.582 -2.723,4.512 -4.083,9.631 -4.083,15.362 0,5.657 1.343,10.759 4.029,15.308 2.685,4.547 6.373,8.092 11.065,10.635 4.689,2.542 9.936,3.814 15.739,3.814 5.656,0 10.777,-1.218 15.361,-3.653 4.582,-2.435 8.182,-5.927 10.797,-10.474 2.613,-4.548 3.92,-9.829 3.92,-15.845 0,-0.215 -0.108,-1.719 -0.323,-4.512"
             style="fill:#1f386d;fill-opacity:1;fill-rule:nonzero;stroke:none"
             id="path58" /></g><g
           id="g60"
           transform="translate(1035.207,206.8701)"><path
             d="m 0,0 c 3.401,1.432 7.322,2.148 11.764,2.148 v -15.469 c -1.864,0.142 -3.116,0.215 -3.76,0.215 -4.799,0 -8.56,-1.343 -11.28,-4.029 -2.723,-2.685 -4.082,-6.715 -4.082,-12.086 V -56.507 H -24.117 V 1.289 H -8.11 V -6.339 C -6.106,-3.546 -3.402,-1.434 0,0"
             style="fill:#1f386d;fill-opacity:1;fill-rule:nonzero;stroke:none"
             id="path62" /></g><g
           id="g64"
           transform="translate(1086.2891,162.7715)"><path
             d="m 0,0 c 2.219,1.324 3.795,3.276 4.727,5.854 v 5.909 H -6.769 c -6.875,0 -10.312,-2.256 -10.312,-6.768 0,-2.148 0.841,-3.85 2.524,-5.102 1.682,-1.254 3.992,-1.881 6.929,-1.881 2.864,0 5.407,0.662 7.628,1.988 m 14.287,39.854 c 4.798,-4.261 7.198,-10.688 7.198,-19.283 V -12.408 H 5.801 v 7.197 c -3.153,-5.371 -9.024,-8.057 -17.618,-8.057 -4.442,0 -8.29,0.752 -11.548,2.256 -3.26,1.504 -5.748,3.58 -7.467,6.231 -1.719,2.649 -2.578,5.657 -2.578,9.024 0,5.371 2.022,9.596 6.069,12.676 4.046,3.079 10.295,4.62 18.746,4.62 H 4.727 c 0,3.652 -1.112,6.462 -3.331,8.433 -2.22,1.968 -5.55,2.954 -9.991,2.954 -3.08,0 -6.106,-0.484 -9.077,-1.45 -2.973,-0.967 -5.497,-2.275 -7.573,-3.921 l -6.017,11.709 c 3.152,2.219 6.93,3.938 11.334,5.157 4.405,1.217 8.933,1.826 13.589,1.826 8.952,0 15.827,-2.132 20.626,-6.393"
             style="fill:#1f386d;fill-opacity:1;fill-rule:nonzero;stroke:none"
             id="path66" /></g><g
           id="g68"
           transform="translate(1128.293,151.2764)"><path
             d="m 0,0 c -4.585,1.182 -8.237,2.667 -10.958,4.458 l 5.586,12.032 c 2.578,-1.648 5.694,-2.991 9.347,-4.028 3.652,-1.039 7.232,-1.558 10.742,-1.558 7.091,0 10.636,1.754 10.636,5.264 0,1.646 -0.967,2.828 -2.901,3.545 -1.933,0.715 -4.907,1.324 -8.917,1.826 -4.726,0.715 -8.631,1.539 -11.709,2.471 -3.08,0.929 -5.748,2.578 -8.004,4.941 -2.256,2.363 -3.384,5.73 -3.384,10.099 0,3.652 1.056,6.891 3.169,9.721 2.113,2.829 5.193,5.032 9.24,6.608 4.045,1.574 8.825,2.363 14.34,2.363 4.084,0 8.147,-0.448 12.194,-1.343 4.045,-0.896 7.393,-2.131 10.044,-3.707 L 33.839,40.769 c -5.086,2.863 -10.635,4.296 -16.652,4.296 -3.582,0 -6.267,-0.502 -8.056,-1.503 -1.791,-1.004 -2.686,-2.293 -2.686,-3.868 0,-1.791 0.967,-3.045 2.901,-3.759 1.933,-0.717 5.011,-1.397 9.238,-2.041 4.728,-0.79 8.595,-1.63 11.603,-2.526 3.007,-0.895 5.621,-2.524 7.841,-4.888 2.22,-2.363 3.33,-5.658 3.33,-9.882 0,-3.582 -1.074,-6.769 -3.222,-9.562 C 35.987,4.243 32.854,2.076 28.736,0.537 24.617,-1.002 19.729,-1.772 14.072,-1.772 9.273,-1.772 4.582,-1.182 0,0"
             style="fill:#1f386d;fill-opacity:1;fill-rule:nonzero;stroke:none"
             id="path70" /></g><g
           id="g72"
           transform="translate(1209.6152,162.7715)"><path
             d="m 0,0 c 2.219,1.324 3.795,3.276 4.727,5.854 v 5.909 H -6.769 c -6.875,0 -10.312,-2.256 -10.312,-6.768 0,-2.148 0.841,-3.85 2.524,-5.102 1.682,-1.254 3.992,-1.881 6.929,-1.881 2.864,0 5.407,0.662 7.628,1.988 m 14.287,39.854 c 4.798,-4.261 7.198,-10.688 7.198,-19.283 V -12.408 H 5.801 v 7.197 c -3.153,-5.371 -9.024,-8.057 -17.618,-8.057 -4.442,0 -8.29,0.752 -11.548,2.256 -3.26,1.504 -5.748,3.58 -7.467,6.231 -1.719,2.649 -2.578,5.657 -2.578,9.024 0,5.371 2.022,9.596 6.069,12.676 4.046,3.079 10.295,4.62 18.746,4.62 H 4.727 c 0,3.652 -1.112,6.462 -3.331,8.433 -2.22,1.968 -5.55,2.954 -9.991,2.954 -3.08,0 -6.106,-0.484 -9.077,-1.45 -2.973,-0.967 -5.497,-2.275 -7.573,-3.921 l -6.017,11.709 c 3.152,2.219 6.93,3.938 11.334,5.157 4.405,1.217 8.933,1.826 13.589,1.826 8.952,0 15.827,-2.132 20.626,-6.393"
             style="fill:#1f386d;fill-opacity:1;fill-rule:nonzero;stroke:none"
             id="path74" /></g><g
           id="g76"
           transform="translate(1283.5244,153.1562)"><path
             d="m 0,0 c -1.648,-1.219 -3.671,-2.132 -6.069,-2.739 -2.401,-0.608 -4.925,-0.913 -7.575,-0.913 -6.875,0 -12.192,1.754 -15.952,5.263 -3.759,3.509 -5.64,8.665 -5.64,15.47 v 23.741 h -8.916 v 12.892 h 8.916 v 14.072 h 16.758 V 53.714 H -4.082 V 40.822 H -18.478 V 17.296 c 0,-2.436 0.626,-4.316 1.88,-5.64 1.253,-1.326 3.026,-1.987 5.319,-1.987 2.648,0 4.904,0.715 6.767,2.148 z"
             style="fill:#1f386d;fill-opacity:1;fill-rule:nonzero;stroke:none"
             id="path78" /></g><g
           id="g80"
           transform="translate(1334.2295,220.6201)"><path
             d="m 0,0 v -32.12 h 40.07 v -4.943 H 0 V -70.257 H -5.479 V 4.941 h 50.276 l 0,-4.941 z"
             style="fill:#1f386d;fill-opacity:1;fill-rule:nonzero;stroke:none"
             id="path82" /></g><g
           id="g84"
           transform="translate(1426.3477,157.7754)"><path
             d="m 0,0 c 3.4,2.005 6.086,4.798 8.057,8.38 1.969,3.58 2.955,7.662 2.955,12.246 0,4.583 -0.986,8.665 -2.955,12.247 C 6.086,36.453 3.4,39.246 0,41.252 c -3.402,2.004 -7.251,3.008 -11.549,3.008 -4.297,0 -8.147,-1.004 -11.548,-3.008 -3.402,-2.006 -6.088,-4.799 -8.056,-8.379 -1.971,-3.582 -2.955,-7.664 -2.955,-12.247 0,-4.584 0.984,-8.666 2.955,-12.246 1.968,-3.582 4.654,-6.375 8.056,-8.38 3.401,-2.006 7.251,-3.008 11.548,-3.008 4.298,0 8.147,1.002 11.549,3.008 m -25.89,-4.189 c -4.261,2.433 -7.61,5.818 -10.045,10.152 -2.435,4.332 -3.652,9.22 -3.652,14.663 0,5.442 1.217,10.33 3.652,14.664 2.435,4.332 5.784,7.716 10.045,10.151 4.26,2.435 9.04,3.654 14.341,3.654 5.3,0 10.08,-1.219 14.342,-3.654 C 7.054,43.006 10.402,39.622 12.838,35.29 15.271,30.956 16.49,26.068 16.49,20.626 16.49,15.183 15.271,10.295 12.838,5.963 10.402,1.629 7.054,-1.756 2.793,-4.189 c -4.262,-2.436 -9.042,-3.653 -14.342,-3.653 -5.301,0 -10.081,1.217 -14.341,3.653"
             style="fill:#1f386d;fill-opacity:1;fill-rule:nonzero;stroke:none"
             id="path86" /></g><g
           id="g88"
           transform="translate(1472.7021,203.5928)"><path
             d="m 0,0 c 3.652,2.185 8.093,3.277 13.321,3.277 v -5.264 l -1.289,0.107 c -6.231,0 -11.102,-1.952 -14.61,-5.854 -3.51,-3.905 -5.264,-9.329 -5.264,-16.276 v -29.219 h -5.371 V 2.848 h 5.156 V -9.399 C -6.338,-5.317 -3.652,-2.186 0,0"
             style="fill:#1f386d;fill-opacity:1;fill-rule:nonzero;stroke:none"
             id="path90" /></g><g
           id="g92"
           transform="translate(1550.9092,206.4404)"><path
             d="m 0,0 v -56.077 h -5.157 v 12.032 c -1.863,-3.94 -4.619,-7.002 -8.272,-9.185 -3.652,-2.186 -7.949,-3.277 -12.89,-3.277 -7.306,0 -13.036,2.041 -17.189,6.123 -4.154,4.082 -6.231,9.954 -6.231,17.618 V 0 h 5.372 v -32.336 c 0,-6.303 1.611,-11.102 4.834,-14.395 3.222,-3.295 7.769,-4.942 13.643,-4.942 6.301,0 11.296,1.969 14.986,5.908 3.687,3.939 5.532,9.24 5.532,15.9 V 0 Z"
             style="fill:#1f386d;fill-opacity:1;fill-rule:nonzero;stroke:none"
             id="path94" /></g><g
           id="g96"
           transform="translate(1659.8926,200.7461)"><path
             d="M 0,0 C 3.976,-4.082 5.963,-9.955 5.963,-17.618 V -50.383 H 0.591 v 32.335 c 0,6.302 -1.54,11.101 -4.619,14.396 -3.08,3.293 -7.377,4.941 -12.891,4.941 -6.304,0 -11.299,-1.971 -14.986,-5.908 -3.69,-3.94 -5.533,-9.238 -5.533,-15.9 v -29.864 h -5.372 v 32.335 c 0,6.302 -1.54,11.101 -4.619,14.396 -3.08,3.293 -7.377,4.941 -12.89,4.941 -6.304,0 -11.299,-1.971 -14.987,-5.908 -3.689,-3.94 -5.532,-9.238 -5.532,-15.9 v -29.864 h -5.371 V 5.694 h 5.156 V -6.338 c 1.862,3.938 4.636,6.999 8.325,9.185 3.688,2.184 8.075,3.277 13.161,3.277 5.084,0 9.399,-1.146 12.944,-3.438 3.545,-2.293 6.07,-5.659 7.574,-10.098 1.861,4.152 4.78,7.447 8.755,9.883 3.975,2.434 8.611,3.653 13.912,3.653 C -9.437,6.124 -3.975,4.082 0,0"
             style="fill:#1f386d;fill-opacity:1;fill-rule:nonzero;stroke:none"
             id="path98" /></g><g
           id="g100"
           transform="translate(343.4634,358.2461)"><path
             d="m 0,0 v -29.971 c 0,-11.924 -9.668,-21.592 -21.592,-21.592 -5.908,0 -11.064,1.934 -14.931,5.264 -3.76,-3.222 -8.594,-5.264 -13.965,-5.264 H -58.33 C -60.371,-67.568 -73.369,-79.17 -90.127,-79.17 h -0.752 c -18.262,0 -32.226,13.857 -32.226,32.119 v 20.84 h 14.394 v -20.84 c 0,-10.527 7.197,-17.832 17.832,-17.832 h 0.645 c 10.527,0 17.832,7.305 17.832,17.832 v 38.457 h 14.394 v -28.574 h 7.412 c 4.19,0 6.983,2.9 6.983,7.09 v 21.484 h 14.394 v -21.699 c 0,-4.297 2.901,-6.875 7.627,-6.875 3.975,0 7.197,3.223 7.197,7.197 l 0,29.971 z"
             style="fill:#1f386d;fill-opacity:1;fill-rule:nonzero;stroke:none"
             id="path102" /></g><g
           id="g104"
           transform="translate(354.856,321.0781)"><path
             d="m 0,0 h 20.303 c 5.371,0 9.775,4.404 9.775,9.775 v 6.016 c 0,5.801 -4.834,10.527 -10.635,10.527 H 9.131 v 14.395 h 10.312 c 13.75,0 24.922,-11.172 24.922,-24.922 V 7.305 c 0,-12.032 -9.668,-21.7 -21.699,-21.7 l -22.666,0 z"
             style="fill:#1f386d;fill-opacity:1;fill-rule:nonzero;stroke:none"
             id="path106" /></g><g
           id="g108"
           transform="translate(426.8311,381.4492)"><path
             d="m 0,0 v -55.752 c 0,-3.33 2.471,-4.619 4.297,-4.619 H 9.561 V -74.766 H -0.537 c -7.627,0 -13.75,6.016 -13.75,13.75 V 0 Z"
             style="fill:#1f386d;fill-opacity:1;fill-rule:nonzero;stroke:none"
             id="path110" /></g><g
           id="g112"
           transform="translate(533.1802,321.0781)"><path
             d="m 0,0 v -14.395 h -6.123 c -4.727,-0.107 -8.701,2.041 -11.172,5.372 -3.008,-3.331 -7.197,-5.372 -13.32,-5.372 h -6.553 c -4.834,0 -8.916,2.471 -11.064,5.479 -2.686,-3.652 -7.198,-5.479 -13.213,-5.479 h -6.016 c -4.941,0 -9.131,2.256 -11.279,5.586 -2.686,-3.652 -6.768,-5.586 -15.576,-5.586 h -3.545 l -6.231,2.256 v 9.776 L -97.861,0 h 2.363 c 4.941,0 7.305,2.578 7.305,6.768 v 21.806 h 14.072 L -74.014,6.768 C -74.014,2.256 -71.436,0 -67.568,0 h 3.33 c 3.974,0 6.552,2.578 6.552,6.768 v 21.806 h 13.965 V 6.768 c 0,-4.19 2.686,-6.768 6.768,-6.768 h 3.437 c 4.19,0 6.553,2.578 6.553,6.768 v 32.548 h 13.965 V 6.768 C -12.998,2.578 -10.527,0 -6.123,0 Z"
             style="fill:#1f386d;fill-opacity:1;fill-rule:nonzero;stroke:none"
             id="path114" /></g><g
           id="g116"
           transform="translate(556.71,381.4492)"><path
             d="m 0,0 v -61.016 c 0,-7.734 -6.016,-13.75 -13.75,-13.75 h -10.205 l -6.231,2.256 v 9.776 l 6.231,2.363 h 5.371 c 1.826,0 4.189,1.289 4.189,4.619 l 0,55.752 z"
             style="fill:#1f386d;fill-opacity:1;fill-rule:nonzero;stroke:none"
             id="path118" /></g><path
           d="m 570.998,381.449 h 14.395 v -74.766 h -14.395 z"
           style="fill:#1f386d;fill-opacity:1;fill-rule:nonzero;stroke:none"
           id="path120" /><g
           id="g122"
           transform="translate(670.688,265.541)"><path
             d="m 0,0 c 0,-4.727 -3.867,-8.486 -8.486,-8.486 -4.512,0 -8.487,3.759 -8.487,8.486 0,4.512 3.975,8.379 8.487,8.379 C -3.867,8.379 0,4.512 0,0 m -22.881,0 c 0,-4.727 -3.867,-8.486 -8.486,-8.486 -4.619,0 -8.487,3.759 -8.487,8.486 0,4.512 3.868,8.379 8.487,8.379 4.619,0 8.486,-3.867 8.486,-8.379 M 43.291,96.25 V 41.143 H 28.896 v 40.712 h -6.767 c -5.586,0 -9.346,-3.867 -9.346,-9.345 V 45.654 c 0,-18.476 -13.857,-32.226 -32.226,-32.226 h -0.645 c -18.476,0 -32.226,13.75 -32.226,32.226 V 66.279 H -37.92 V 45.654 c 0,-10.634 7.197,-17.832 17.832,-17.832 h 0.645 c 10.527,0 17.832,7.198 17.832,17.832 V 72.51 c 0,13.428 10.312,23.74 23.74,23.74 z"
             style="fill:#1f386d;fill-opacity:1;fill-rule:nonzero;stroke:none"
             id="path124" /></g><g
           id="g126"
           transform="translate(748.5732,321.1855)"><path
             d="m 0,0 h 11.602 v 16.436 c 0,6.015 -3.975,10.097 -9.883,10.097 H 0.645 c -6.016,0 -10.098,-4.082 -10.098,-10.097 V 10.098 C -9.453,4.619 -5.049,0 0,0 m 31.26,-14.502 h -5.264 v -4.834 c 0,-15.146 -15.039,-25.566 -42.109,-18.369 v 13.32 c 21.592,-4.297 27.715,0.86 27.715,8.594 v 1.504 H -0.215 C -13.213,-14.18 -23.74,-3.223 -23.74,10.098 v 6.338 c 0,13.857 10.42,24.384 24.385,24.384 h 1.074 c 13.857,0 24.277,-10.527 24.277,-24.384 V -0.107 h 5.264 z"
             style="fill:#1f386d;fill-opacity:1;fill-rule:nonzero;stroke:none"
             id="path128" /></g><g
           id="g130"
           transform="translate(787.248,373.6074)"><path
             d="m 0,0 c 0,4.512 3.975,8.379 8.486,8.379 4.619,0 8.487,-3.867 8.487,-8.379 0,-4.727 -3.868,-8.486 -8.487,-8.486 C 3.975,-8.486 0,-4.727 0,0 m 28.359,-52.529 v -14.395 h -5.263 c -5.049,0 -9.668,2.471 -13.213,6.123 -3.33,-3.652 -8.272,-6.123 -15.362,-6.123 h -3.007 l -6.231,2.256 v 9.775 l 6.231,2.364 h 3.222 c 6.553,0 7.95,3.974 7.95,8.701 V -30.4 L 2.578,-16.006 H 17.08 v -22.021 c 0,-1.075 0,-2.149 -0.107,-3.33 v -2.471 c 0,-4.727 1.611,-8.701 8.056,-8.701 z"
             style="fill:#1f386d;fill-opacity:1;fill-rule:nonzero;stroke:none"
             id="path132" /></g><g
           id="g134"
           transform="translate(912.2886,321.0781)"><path
             d="m 0,0 v -14.395 h -6.123 c -4.727,-0.107 -8.701,2.041 -11.172,5.372 -3.008,-3.331 -7.197,-5.372 -13.32,-5.372 h -6.553 c -4.834,0 -8.916,2.471 -11.064,5.479 -2.686,-3.652 -7.198,-5.479 -13.213,-5.479 h -6.016 c -4.941,0 -9.131,2.256 -11.279,5.586 -2.686,-3.652 -6.768,-5.586 -15.576,-5.586 h -3.545 l -6.231,2.256 v 9.776 L -97.861,0 h 2.363 c 4.941,0 7.305,2.578 7.305,6.768 v 21.806 h 14.072 L -74.014,6.768 C -74.014,2.256 -71.436,0 -67.568,0 h 3.33 c 3.974,0 6.552,2.578 6.552,6.768 v 21.806 h 13.965 V 6.768 c 0,-4.19 2.686,-6.768 6.768,-6.768 h 3.437 c 4.19,0 6.553,2.578 6.553,6.768 v 32.548 h 13.965 V 6.768 C -12.998,2.578 -10.527,0 -6.123,0 Z"
             style="fill:#1f386d;fill-opacity:1;fill-rule:nonzero;stroke:none"
             id="path136" /></g><g
           id="g138"
           transform="translate(935.8184,381.4492)"><path
             d="m 0,0 v -61.016 c 0,-7.734 -6.016,-13.75 -13.75,-13.75 h -10.205 l -6.231,2.256 v 9.776 l 6.231,2.363 h 5.371 c 1.826,0 4.189,1.289 4.189,4.619 l 0,55.752 z"
             style="fill:#1f386d;fill-opacity:1;fill-rule:nonzero;stroke:none"
             id="path140" /></g><path
           d="m 950.106,381.449 h 14.395 v -74.766 h -14.395 z"
           style="fill:#1f386d;fill-opacity:1;fill-rule:nonzero;stroke:none"
           id="path142" /><g
           id="g144"
           transform="translate(1039.9131,368.1289)"><path
             d="m 0,0 c 0,4.512 3.867,8.379 8.486,8.379 4.619,0 8.487,-3.867 8.487,-8.379 0,-4.727 -3.868,-8.486 -8.487,-8.486 C 3.867,-8.486 0,-4.727 0,0 m -22.988,0 c 0,4.512 3.974,8.379 8.486,8.379 4.619,0 8.486,-3.867 8.486,-8.379 0,-4.727 -3.867,-8.486 -8.486,-8.486 -4.512,0 -8.486,3.759 -8.486,8.486 m -6.231,-22.236 V -37.49 c 0,-5.694 3.975,-9.561 9.668,-9.561 H 16.65 c 6.553,0 8.164,3.975 8.164,8.701 V -9.238 H 39.102 V -44.58 c 0,-9.561 -7.305,-16.865 -16.866,-16.865 h -41.787 c -13.642,0 -23.955,10.312 -23.955,23.955 v 15.254 z"
             style="fill:#1f386d;fill-opacity:1;fill-rule:nonzero;stroke:none"
             id="path146" /></g><g
           id="g148"
           transform="translate(1106.5186,381.4492)"><path
             d="m 0,0 v -55.752 c 0,-3.33 2.471,-4.619 4.297,-4.619 H 9.561 V -74.766 H -0.537 c -7.627,0 -13.75,6.016 -13.75,13.75 V 0 Z"
             style="fill:#1f386d;fill-opacity:1;fill-rule:nonzero;stroke:none"
             id="path150" /></g><g
           id="g152"
           transform="translate(1199.0107,360.8242)"><path
             d="m 0,0 v -32.656 c 0,-11.817 -9.668,-21.485 -21.484,-21.485 -6.231,0 -11.28,2.041 -14.825,5.479 -4.189,-3.867 -9.453,-5.693 -14.931,-5.693 -5.586,0 -10.098,2.041 -14.073,5.693 -3.652,-3.33 -8.593,-5.479 -14.179,-5.479 h -4.619 l -6.231,2.256 v 9.883 l 6.231,2.256 h 4.726 c 4.19,0 6.983,2.793 6.983,6.875 v 21.699 h 14.287 v -21.699 c 0,-4.512 2.578,-7.197 7.197,-7.197 4.404,-0.108 7.52,2.578 7.52,7.197 v 21.699 h 14.287 v -21.699 c 0,-4.297 2.9,-6.875 7.627,-6.875 3.974,0 7.089,3.115 7.089,7.09 l 0,32.656 z"
             style="fill:#1f386d;fill-opacity:1;fill-rule:nonzero;stroke:none"
             id="path154" /></g><path
           d="m 1214.698,381.449 h 14.395 v -74.766 h -14.395 z"
           style="fill:#1f386d;fill-opacity:1;fill-rule:nonzero;stroke:none"
           id="path156" /><g
           id="g158"
           transform="translate(1234.25,296.3711)"><path
             d="m 0,0 h 5.371 c 5.586,0 9.561,3.867 9.561,9.561 V 62.197 H 29.326 V 9.561 c 0,-13.643 -10.312,-23.956 -23.955,-23.956 H 0 Z"
             style="fill:#1f386d;fill-opacity:1;fill-rule:nonzero;stroke:none"
             id="path160" /></g><g
           id="g162"
           transform="translate(1275.2871,321.0781)"><path
             d="m 0,0 h 20.303 c 5.371,0 9.775,4.404 9.775,9.775 v 6.016 c 0,5.801 -4.834,10.527 -10.635,10.527 H 9.131 v 14.395 h 10.312 c 13.75,0 24.922,-11.172 24.922,-24.922 V 7.305 c 0,-12.032 -9.668,-21.7 -21.699,-21.7 l -22.666,0 z"
             style="fill:#1f386d;fill-opacity:1;fill-rule:nonzero;stroke:none"
             id="path164" /></g><g
           id="g166"
           transform="translate(1439.5381,360.1797)"><path
             d="m 0,0 v -53.389 h -6.338 v 46.944 h -8.808 c -8.272,0 -14.18,-5.909 -14.18,-14.073 v -32.656 c 0,-16.865 -12.676,-29.326 -29.541,-29.326 h -0.215 c -16.865,0 -29.326,12.461 -29.326,29.326 v 22.344 h 6.338 v -22.344 c 0,-13.535 9.453,-22.988 22.988,-22.988 h 0.215 c 13.535,0 23.203,9.453 23.203,22.988 v 32.656 C -35.664,-8.809 -26.855,0 -15.146,0 Z"
             style="fill:#1f386d;fill-opacity:1;fill-rule:nonzero;stroke:none"
             id="path168" /></g><g
           id="g170"
           transform="translate(1506.7881,313.0215)"><path
             d="M 0,0 V -6.338 H -54.141 V 0 h 35.879 v 25.459 c 0,9.023 -6.445,15.469 -15.576,15.469 h -11.279 v 6.338 h 11.279 c 12.568,0 21.914,-9.346 21.914,-21.807 l 0,-25.459 z"
             style="fill:#1f386d;fill-opacity:1;fill-rule:nonzero;stroke:none"
             id="path172" /></g><path
           d="m 1522.797,306.684 h -17.725 v 6.338 h 17.725 z"
           style="fill:#1f386d;fill-opacity:1;fill-rule:nonzero;stroke:none"
           id="path174" /><path
           d="m 1538.374,306.684 h -17.725 v 6.338 h 17.725 z"
           style="fill:#1f386d;fill-opacity:1;fill-rule:nonzero;stroke:none"
           id="path176" /><g
           id="g178"
           transform="translate(1560.2881,371.5664)"><path
             d="M 0,0 C 0,2.363 1.934,4.404 4.404,4.404 6.768,4.404 8.701,2.363 8.701,0 8.701,-2.363 6.768,-4.404 4.404,-4.404 1.934,-4.404 0,-2.363 0,0 m -15.684,0 c 0,2.363 2.041,4.404 4.405,4.404 2.47,0 4.404,-2.041 4.404,-4.404 0,-2.363 -1.934,-4.404 -4.404,-4.404 -2.364,0 -4.405,2.041 -4.405,4.404 m 32.12,-58.545 v -6.338 H 7.734 c -4.726,0 -8.701,2.471 -11.279,6.016 -2.363,-3.438 -6.23,-6.016 -11.924,-6.016 h -7.734 l -2.793,1.074 v 4.19 l 2.793,1.074 h 7.734 c 5.801,0 8.809,3.975 8.809,9.131 v 35.342 h 6.445 V -47.48 c 0,-0.752 0,-1.397 -0.107,-2.149 0.107,-5.049 3.222,-8.916 8.916,-8.916 z"
             style="fill:#1f386d;fill-opacity:1;fill-rule:nonzero;stroke:none"
             id="path180" /></g><g
           id="g182"
           transform="translate(1587.8975,371.5664)"><path
             d="M 0,0 C 0,2.363 2.041,4.297 4.404,4.297 6.768,4.297 8.701,2.363 8.701,0 8.701,-2.471 6.768,-4.404 4.404,-4.404 2.041,-4.404 0,-2.471 0,0 m 21.055,-58.545 v -6.338 h -4.834 c -4.727,0 -8.701,2.471 -11.28,6.016 -2.363,-3.438 -6.23,-6.016 -11.923,-6.016 h -5.157 l -2.793,1.074 v 4.19 l 2.793,1.074 h 5.157 c 5.8,0 8.808,3.975 8.808,9.131 v 35.342 H 8.271 V -47.48 c 0,-0.752 0,-1.397 -0.107,-2.149 0.107,-5.049 3.223,-8.916 8.916,-8.916 z"
             style="fill:#1f386d;fill-opacity:1;fill-rule:nonzero;stroke:none"
             id="path184" /></g><g
           id="g186"
           transform="translate(1659.4414,339.4473)"><path
             d="m 0,0 c 0,8.486 -6.016,14.609 -14.609,14.609 h -1.075 C -24.277,14.609 -30.293,8.486 -30.293,0 v -17.832 c 3.545,-5.156 9.668,-8.164 16.328,-8.164 7.627,0 13.965,6.553 13.965,14.609 z m 6.338,0 v -11.387 c 0,-11.494 -9.131,-20.947 -20.303,-20.947 -7.412,0 -14.287,2.9 -18.906,8.057 -2.471,-5.157 -7.627,-8.487 -14.072,-8.487 h -4.727 l -2.793,1.075 v 4.296 l 2.793,0.967 h 4.727 c 6.015,0 10.312,4.297 10.312,10.42 V 0 c 0,12.031 8.916,20.947 20.947,20.947 h 1.075 C -2.578,20.947 6.338,12.031 6.338,0"
             style="fill:#1f386d;fill-opacity:1;fill-rule:nonzero;stroke:none"
             id="path188" /></g></g></g><g
       id="g190"><g
         id="g192"><g
           id="g198"><g
             id="g200"><path
               d="m 959.443,746.35 -14.12,-14.26 c 0,0 130.125,-58.925 130.293,-59.021 v 0 c 0.097,-0.043 0.195,-0.127 0.279,-0.141 v 0 c 0.154,-0.084 3.087,-1.102 3.324,-1.173 v 0 c 0.07,0 0.084,0 0.126,-0.014 v 0 c 0.237,-0.042 0.503,-0.112 0.754,-0.182 v 0 c 0.014,0 0.07,0 0.112,-0.013 v 0 c 0.614,-0.112 1.159,-0.21 1.788,-0.252 v 0 c 3.896,-0.363 7.821,0.419 11.256,2.29 v 0 h 0.028 c 0.238,0.126 0.475,0.28 0.713,0.42 v 0 c 0.028,0 0.069,0.028 0.069,0.028 v 0 c 0.238,0.167 0.49,0.293 0.713,0.474 v 0 c 0.028,-0.028 0.028,0 0.041,0.014 v 0 c 0.224,0.154 0.461,0.307 0.629,0.475 v 0 c 0.07,0.014 0.098,0.042 0.112,0.071 v 0 c 0.223,0.138 0.405,0.293 0.615,0.46 v 0 c 0.028,0.042 0.056,0.056 0.125,0.084 v 0 c 0.154,0.153 0.349,0.321 0.516,0.46 v 0 c 0.043,0.029 0.127,0.098 0.141,0.141 v 0 c 0.153,0.139 0.335,0.307 0.474,0.474 v 0 c 0.084,0.029 0.154,0.111 0.224,0.154 v 0 c 0.153,0.126 0.279,0.279 0.433,0.447 v 0 c 0.056,0.07 0.125,0.154 0.209,0.251 v 0 c 0.098,0.126 0.196,0.266 0.349,0.405 v 0 c 0.07,0.097 0.154,0.182 0.224,0.279 v 0 c 0.097,0.126 0.224,0.266 0.335,0.392 v 0 c 0.084,0.111 0.154,0.251 0.266,0.362 v 0 l 13.338,18.198 -21.384,9.68 -2.15,-2.933 h -0.014 c -0.069,-0.098 -0.112,-0.182 -0.154,-0.238 v 0 c -0.069,-0.084 -0.139,-0.195 -0.209,-0.265 v 0 c -0.056,-0.083 -0.112,-0.153 -0.182,-0.21 v 0 c -0.07,-0.084 -0.181,-0.209 -0.237,-0.278 v 0 c -0.069,-0.057 -0.098,-0.085 -0.182,-0.141 v 0 c -0.069,-0.126 -0.139,-0.209 -0.265,-0.307 v 0 c -0.014,-0.027 -0.07,-0.098 -0.126,-0.126 v 0 c -0.125,-0.111 -0.224,-0.195 -0.307,-0.279 v 0 c -0.042,-0.027 -0.07,-0.083 -0.098,-0.125 v 0 c -0.111,-0.099 -0.251,-0.21 -0.363,-0.294 v 0 c -0.028,-0.028 -0.056,-0.056 -0.112,-0.056 v 0 c -0.126,-0.111 -0.251,-0.252 -0.377,-0.321 v 0 c -0.028,-0.028 -0.028,-0.028 -0.056,-0.056 v 0 c -0.139,-0.111 -0.307,-0.196 -0.446,-0.293 v 0 c 0,-0.015 -0.014,-0.028 -0.014,-0.042 v 0 c -0.154,-0.098 -0.364,-0.181 -0.503,-0.28 v 0 c 0,-0.041 0,-0.027 -0.042,-0.041 v 0 c -0.139,-0.098 -0.321,-0.168 -0.475,-0.28 v 0 c 0,0 0.014,-0.013 0,-0.013 v 0 c -3.813,-2.375 -7.961,-1.635 -8.785,-1.356 v 0 c -0.014,0 -0.433,0.098 -0.6,0.126 v 0 c -0.015,0.014 -0.615,0.169 -0.615,0.169 v 0 c -0.167,0.041 -3.058,1.368 -3.324,1.564 v 0 l -85.963,38.868 0.028,0.041 -22.766,10.322 z"
               style="fill:url(#linearGradient212);stroke:none"
               id="path214" /></g></g></g></g><g
       id="g216"><g
         id="g218"><g
           id="g224"><g
             id="g226"><path
               d="m 1073.046,812.747 54.581,-35.81 c 0.112,-0.056 0.195,-0.113 0.279,-0.168 v 0 c 0.098,-0.07 0.182,-0.127 0.252,-0.224 v 0 c 0.097,-0.028 0.153,-0.084 0.223,-0.139 v 0 c 0.098,-0.07 0.21,-0.14 0.279,-0.21 v 0 c 0.07,-0.055 0.112,-0.098 0.21,-0.182 v 0 c 0.084,-0.055 0.154,-0.153 0.251,-0.237 v 0 c 0.07,-0.027 0.14,-0.111 0.196,-0.153 v 0 c 0.07,-0.112 0.181,-0.154 0.251,-0.238 v 0 c 0.071,-0.069 0.125,-0.14 0.196,-0.223 v 0 c 0.07,-0.056 0.139,-0.14 0.237,-0.223 v 0 c 0.043,-0.057 0.126,-0.14 0.196,-0.224 v 0 c 0.042,-0.084 0.098,-0.154 0.195,-0.209 v 0 c 0.014,-0.071 0.098,-0.141 0.14,-0.238 v 0 c 0.084,-0.112 0.112,-0.154 0.181,-0.265 v 0 c 0.042,-0.056 0.126,-0.126 0.182,-0.182 v 0 c 0.056,-0.112 0.126,-0.181 0.182,-0.265 v 0 c 0.041,-0.07 0.084,-0.168 0.139,-0.28 v 0 c 0.043,-0.041 0.112,-0.153 0.168,-0.223 v 0 c 0.028,-0.098 0.098,-0.182 0.126,-0.308 v 0 c 0.069,-0.041 0.098,-0.125 0.139,-0.195 v 0 c 0.056,-0.098 0.112,-0.195 0.14,-0.308 v 0 c 0.055,-0.097 0.111,-0.153 0.111,-0.237 v 0 c 0.07,-0.111 0.113,-0.209 0.141,-0.306 v 0 c 0.041,-0.085 0.083,-0.14 0.097,-0.197 v 0 c 0.042,-0.139 0.098,-0.265 0.126,-0.377 v 0 c 0.013,-0.041 0.041,-0.126 0.07,-0.181 v 0 c 0.069,-0.111 0.069,-0.28 0.14,-0.405 v 0 c 0,-0.056 0.027,-0.084 0.055,-0.126 v 0 c 0,-0.154 0.07,-0.293 0.098,-0.433 v 0 c 0.014,0 0.014,0 0,-0.014 v 0 c 0.014,-0.056 0.027,-0.098 0.027,-0.112 v 0 c 0.056,-0.167 0.071,-0.321 0.113,-0.503 v 0 -0.055 c 0.069,-0.378 0.125,-0.755 0.153,-1.132 v 0 c 0,0 0,-0.013 -0.028,-0.027 v 0 c 0.238,-2.654 -0.489,-5.392 -2.262,-7.822 v 0 l -19.595,-26.676 -17.416,-23.785 c 7.611,-3.463 14.888,-6.732 21.41,-9.692 v 0 l 15.74,21.55 29.163,39.735 c 1.131,1.577 2.01,3.254 2.569,4.986 v 0 c 0.056,0.154 0.126,0.321 0.154,0.488 v 0 c 0.041,0.182 0.112,0.322 0.153,0.517 v 0 c 0.475,1.872 0.643,3.771 0.518,5.656 v 0 0.029 c -0.056,0.558 -0.126,1.116 -0.225,1.647 v 0 c -0.027,0.029 -0.027,0.057 -0.027,0.112 v 0 c -0.028,0.238 -0.07,0.489 -0.14,0.713 v 0 c -0.014,0.055 -0.028,0.139 -0.056,0.167 v 0 c -0.042,0.21 -0.083,0.461 -0.182,0.671 v 0 c -0.013,0.055 -0.013,0.111 -0.055,0.195 v 0 c -0.056,0.21 -0.084,0.391 -0.182,0.615 v 0 c -0.014,0.111 -0.069,0.168 -0.125,0.293 v 0 c -0.042,0.14 -0.126,0.349 -0.168,0.489 v 0 c -0.042,0.126 -0.112,0.224 -0.126,0.335 v 0 c -0.083,0.153 -0.139,0.307 -0.223,0.475 v 0 c -0.014,0.083 -0.07,0.195 -0.14,0.335 v 0 c -0.097,0.112 -0.168,0.251 -0.237,0.419 v 0 c -0.042,0.112 -0.14,0.251 -0.182,0.377 v 0 c -0.07,0.098 -0.139,0.265 -0.224,0.405 v 0 c -0.097,0.125 -0.153,0.252 -0.237,0.364 v 0 c -0.098,0.139 -0.125,0.251 -0.237,0.362 v 0 c -0.098,0.141 -0.168,0.266 -0.251,0.419 v 0 c -0.07,0.084 -0.154,0.168 -0.252,0.28 v 0 c -0.07,0.139 -0.153,0.251 -0.251,0.378 v 0 c -0.098,0.097 -0.168,0.236 -0.266,0.334 v 0 c -0.111,0.112 -0.21,0.224 -0.293,0.322 v 0 c -0.112,0.111 -0.195,0.237 -0.307,0.348 v 0 c -0.07,0.126 -0.182,0.239 -0.308,0.35 v 0 c -0.097,0.097 -0.209,0.21 -0.307,0.293 v 0 c -0.126,0.112 -0.223,0.237 -0.39,0.363 v 0 c -0.057,0.098 -0.154,0.153 -0.266,0.265 v 0 c -0.112,0.112 -0.252,0.252 -0.377,0.35 v 0 c -0.098,0.084 -0.196,0.153 -0.293,0.251 v 0 c -0.14,0.097 -0.28,0.195 -0.433,0.293 v 0 c -0.084,0.084 -0.182,0.182 -0.294,0.224 v 0 c -0.126,0.125 -0.28,0.223 -0.377,0.307 v 0 c -0.126,0.07 -0.265,0.181 -0.405,0.279 v 0 l -65.964,43.255 z"
               style="fill:url(#linearGradient238);stroke:none"
               id="path240" /></g></g></g></g><g
       id="g242"><g
         id="g244"><g
           id="g250"><g
             id="g252"><path
               d="m 1038.339,792.398 c -15.558,-8.841 -21.005,-28.617 -12.164,-44.163 v 0 c 8.812,-15.586 28.617,-20.992 44.162,-12.193 v 0 c 15.558,8.869 20.991,28.66 12.164,44.205 v 0 c -5.978,10.488 -16.941,16.383 -28.198,16.383 v 0 c -5.419,0 -10.922,-1.37 -15.964,-4.232"
               style="fill:url(#linearGradient262);stroke:none"
               id="path264" /></g></g></g></g><g
       id="g266"><g
         id="g268"><g
           id="g274"><g
             id="g276"><path
               d="m 1044.861,856.894 1.397,-3.365 c 0.042,-0.098 0.07,-0.196 0.126,-0.266 v 0 c 0.028,-0.098 0.069,-0.21 0.126,-0.321 v 0 c 0.028,-0.098 0.028,-0.153 0.056,-0.251 v 0 c 0.056,-0.126 0.097,-0.252 0.111,-0.378 v 0 c 0.014,-0.027 0.028,-0.111 0.028,-0.181 v 0 c 0.084,-0.14 0.112,-0.251 0.126,-0.42 v 0 c 0.042,-0.013 0.042,-0.068 0.084,-0.153 v 0 c 0.014,-0.125 0.028,-0.279 0.069,-0.405 v 0 c 0,-0.055 0.028,-0.111 0.043,-0.168 v 0 c 0.013,-0.139 0.028,-0.307 0.056,-0.446 v 0 c 0,-0.028 0.027,-0.084 0.027,-0.112 v 0 c 0,-0.154 0.056,-0.321 0.056,-0.503 v 0 -0.07 c 0.015,-0.181 0.015,-0.363 0.042,-0.53 v 0 c 0,-0.028 0,-0.028 0.027,-0.042 v 0 c 0,-0.182 0,-0.405 -0.027,-0.601 v 0 c 0.042,0 0.027,0 0.042,-0.028 v 0 c 0,-0.182 -0.042,-0.364 -0.015,-0.572 v 0 c 0.071,-4.47 -2.694,-7.683 -3.351,-8.213 v 0 c -0.014,-0.028 -0.321,-0.335 -0.405,-0.433 v 0 c -0.014,-0.013 -0.475,-0.433 -0.475,-0.433 v 0 c -0.14,-0.139 -2.737,-1.941 -3.059,-2.08 v 0 l -77.611,-53.646 v 0.07 l -20.615,-14.246 1.285,-4.999 4.959,-19.442 c 0,0 117.541,81.159 117.695,81.284 v 0 c 0.111,0.071 0.181,0.112 0.252,0.154 v 0 c 0.139,0.085 2.513,2.081 2.736,2.235 v 0 c 0.015,0.07 0.028,0.097 0.084,0.112 v 0 c 0.168,0.181 0.336,0.377 0.517,0.558 v 0 c 0.042,0.014 0.042,0.071 0.07,0.099 v 0 c 0.433,0.459 0.796,0.908 1.146,1.41 v 0 l 0.028,-0.015 c 2.29,3.158 3.645,6.929 3.812,10.838 v 0 l 0.014,0.016 v 0.794 c 0.014,0.043 0,0.112 0.014,0.112 v 0 c -0.014,0.266 -0.014,0.56 -0.028,0.839 v 0 c 0.014,0.028 0.014,0.028 0.014,0.055 v 0 c -0.028,0.252 -0.042,0.558 -0.083,0.797 v 0 c 0,0.055 0.027,0.069 0,0.097 v 0 c -0.043,0.294 -0.043,0.531 -0.098,0.782 v 0 c 0,0.042 -0.028,0.084 -0.028,0.154 v 0 c -0.028,0.196 -0.056,0.433 -0.098,0.684 v 0 c -0.028,0.057 -0.028,0.126 -0.056,0.21 v 0 c -0.028,0.182 -0.098,0.405 -0.154,0.628 v 0 c 0,0.098 0,0.168 -0.042,0.28 v 0 c -0.042,0.182 -0.07,0.376 -0.167,0.572 v 0 c -0.028,0.112 -0.028,0.196 -0.07,0.307 v 0 c -0.07,0.169 -0.112,0.35 -0.195,0.517 v 0 c -0.015,0.111 -0.043,0.238 -0.112,0.363 v 0 c -0.042,0.14 -0.113,0.322 -0.154,0.475 v 0 c -0.084,0.14 -0.126,0.28 -0.167,0.405 v 0 h 0.013 l -8.742,20.824 z"
               style="fill:url(#linearGradient288);stroke:none"
               id="path290" /></g></g></g></g><g
       id="g292"><g
         id="g294"><g
           id="g300"><g
             id="g302"><path
               d="m 1017.25,954.394 c -0.139,0.015 -0.28,0.015 -0.419,0 v 0 c -0.181,-0.014 -0.335,-0.014 -0.461,-0.014 v 0 c -0.14,0 -0.279,-0.014 -0.391,-0.028 v 0 c -0.153,-0.014 -0.335,-0.027 -0.475,-0.042 v 0 c -0.126,-0.042 -0.265,-0.042 -0.405,-0.055 v 0 c -0.139,-0.028 -0.279,-0.042 -0.461,-0.098 v 0 c -0.139,-0.028 -0.279,-0.028 -0.419,-0.055 v 0 c -0.153,-0.015 -0.321,-0.098 -0.474,-0.113 v 0 c -0.126,-0.028 -0.266,-0.042 -0.392,-0.097 v 0 c -0.167,-0.029 -0.349,-0.085 -0.516,-0.14 v 0 c -0.112,-0.028 -0.224,-0.056 -0.35,-0.112 v 0 c -0.181,-0.014 -0.349,-0.084 -0.516,-0.14 v 0 c -0.112,-0.041 -0.238,-0.083 -0.364,-0.139 v 0 c -0.139,-0.056 -0.307,-0.113 -0.489,-0.182 v 0 c -0.111,-0.042 -0.251,-0.07 -0.362,-0.154 v 0 c -0.168,-0.041 -0.294,-0.139 -0.448,-0.167 v 0 c -0.111,-0.084 -0.265,-0.14 -0.432,-0.223 v 0 l -71.047,-34.233 5.768,-22.723 58.827,28.366 c 0.125,0.042 0.208,0.07 0.279,0.153 v 0 c 0.111,0.015 0.223,0.044 0.321,0.112 v 0 c 0.098,0.029 0.154,0.043 0.265,0.084 v 0 c 0.097,0.056 0.224,0.084 0.307,0.126 v 0 c 0.098,0.056 0.168,0.07 0.238,0.07 v 0 c 0.111,0.07 0.223,0.098 0.362,0.139 v 0 c 0.057,0 0.127,0.07 0.238,0.07 v 0 c 0.126,0.042 0.224,0.055 0.349,0.071 v 0 c 0.071,0.055 0.168,0.055 0.28,0.098 v 0 c 0.084,0 0.195,0.013 0.279,0.055 v 0 c 0.098,0.028 0.21,0.042 0.322,0.056 v 0 c 0.041,0 0.167,0.014 0.293,0.042 v 0 c 0.069,-0.015 0.182,0.028 0.251,0.041 v 0 c 0.126,0 0.223,0.015 0.321,0.015 v 0 c 0.07,0.014 0.168,0.041 0.266,0.041 v 0 h 0.293 0.307 c 0.07,0 0.195,0 0.321,0.014 v 0 c 0.099,-0.014 0.182,-0.014 0.279,-0.014 v 0 h 0.28 c 0.098,0 0.21,-0.027 0.335,-0.041 v 0 c 0.084,0 0.182,0 0.224,-0.015 v 0 c 0.125,0 0.251,-0.056 0.377,-0.056 v 0 c 0.084,-0.013 0.14,-0.013 0.224,-0.027 v 0 c 0.111,0 0.237,-0.014 0.362,-0.056 v 0 c 0.056,-0.014 0.126,-0.042 0.196,-0.042 v 0 c 0.125,-0.013 0.265,-0.07 0.391,-0.111 v 0 c 0.084,-0.029 0.098,-0.029 0.167,-0.029 v 0 c 0.126,-0.028 0.294,-0.083 0.42,-0.112 v 0 -0.013 c 0.041,0 0.098,-0.015 0.126,-0.015 v 0 c 0.167,-0.083 0.292,-0.111 0.489,-0.209 v 0 l 0.027,-0.014 c 0.377,-0.139 0.727,-0.265 1.076,-0.418 v 0 c 0,0 0,-0.015 0.013,-0.028 v 0 c 2.375,-1.188 4.344,-3.227 5.531,-5.979 v 0 l 12.765,-30.544 11.397,-27.179 c 6.886,4.736 13.464,9.273 19.357,13.351 v 0 l -10.39,24.623 -19.009,45.448 c -0.768,1.787 -1.759,3.351 -2.947,4.721 v 0 c -0.111,0.14 -0.209,0.278 -0.334,0.404 v 0 c -0.126,0.154 -0.252,0.252 -0.378,0.405 v 0 c -1.355,1.383 -2.877,2.486 -4.567,3.338 v 0 l -0.041,0.015 c -0.503,0.251 -1.02,0.502 -1.523,0.684 v 0 c -0.028,0.013 -0.056,0.013 -0.112,0.042 v 0 c -0.209,0.084 -0.433,0.153 -0.67,0.251 v 0 c -0.084,0.014 -0.126,0.028 -0.168,0.028 v 0 c -0.209,0.07 -0.461,0.125 -0.698,0.195 v 0 c -0.014,0.028 -0.126,0.043 -0.168,0.043 v 0 c -0.224,0.069 -0.405,0.126 -0.614,0.153 v 0 c -0.112,0.042 -0.223,0.042 -0.336,0.071 v 0 c -0.167,0.013 -0.363,0.055 -0.516,0.111 v 0 c -0.126,0.014 -0.224,0.014 -0.35,0.055 v 0 c -0.153,0 -0.335,0 -0.53,0.042 v 0 c -0.098,0.042 -0.196,0.056 -0.349,0.042 v 0 c -0.154,0.014 -0.308,0.014 -0.475,0.028 v 0 c -0.126,0 -0.294,0 -0.433,0.014 v 0 c -0.126,0 -0.279,0.015 -0.447,0.015 v 0 c -0.181,-0.015 -0.293,0 -0.447,-0.015"
               style="fill:url(#linearGradient314);stroke:none"
               id="path316" /></g></g></g></g><g
       id="g318"><g
         id="g320"><g
           id="g326"><g
             id="g328"><path
               d="m 944.177,855.455 c -0.446,-17.891 13.716,-32.751 31.592,-33.184 v 0 c 17.863,-0.432 32.752,13.716 33.198,31.62 v 0 c 0.406,17.891 -13.728,32.724 -31.619,33.171 v 0 c -0.251,0.014 -0.531,0.014 -0.782,0.014 v 0 c -17.514,0 -31.956,-14.008 -32.389,-31.621"
               style="fill:url(#linearGradient338);stroke:none"
               id="path340" /></g></g></g></g><g
       id="g342"><g
         id="g344"><g
           id="g350"><g
             id="g352"><path
               d="m 890.784,917.69 1.48,-23.393 3.575,-0.559 h 0.028 c 0.098,0 0.224,-0.014 0.294,-0.056 v 0 c 0.111,-0.013 0.196,-0.013 0.307,-0.028 v 0 c 0.126,-0.028 0.181,-0.056 0.251,-0.069 v 0 c 0.14,-0.028 0.266,-0.057 0.378,-0.085 v 0 c 0.083,-0.013 0.139,-0.056 0.209,-0.083 v 0 c 0.153,0 0.266,-0.028 0.405,-0.112 v 0 c 0.028,0 0.112,0 0.153,-0.014 v 0 c 0.126,-0.07 0.294,-0.126 0.434,-0.168 v 0 c 0.028,0 0.069,-0.013 0.153,-0.028 v 0 c 0.126,-0.07 0.28,-0.153 0.405,-0.182 v 0 c 0.028,0 0.07,-0.028 0.098,-0.028 v 0 c 0.154,-0.083 0.307,-0.138 0.474,-0.223 v 0 c 0.028,0 0.028,0 0.057,-0.013 v 0 c 0.181,-0.112 0.335,-0.182 0.489,-0.238 v 0 c 0,-0.014 0.013,-0.028 0.028,-0.014 v 0 c 0.181,-0.112 0.335,-0.223 0.502,-0.335 v 0 c 0.014,0.028 0,0.028 0.056,-0.014 v 0 c 0.154,-0.07 0.308,-0.196 0.461,-0.265 v 0 h 0.028 c 3.869,-2.263 5.182,-6.286 5.308,-7.109 v 0 c 0.013,-0.056 0.111,-0.433 0.153,-0.572 v 0 c 0,-0.029 0.139,-0.629 0.139,-0.629 v 0 c 0.057,-0.224 0.252,-3.367 0.21,-3.701 v 0 l 6.006,-94.149 -0.071,0.028 1.551,-24.958 4.986,-1.522 19.204,-5.782 0.014,0.014 c -0.125,1.997 -9.023,142.556 -9.036,142.779 v 0 0.279 c -0.015,0.168 -0.489,3.241 -0.531,3.506 v 0 c -0.056,0.042 -0.07,0.056 -0.07,0.111 v 0 c -0.042,0.224 -0.112,0.49 -0.181,0.727 v 0 c 0,0.028 -0.056,0.084 -0.056,0.14 v 0 c -0.167,0.586 -0.377,1.13 -0.6,1.69 v 0 l 0.027,0.014 c -1.522,3.603 -4.092,6.703 -7.346,8.84 v 0 0.042 c -0.223,0.111 -0.461,0.265 -0.671,0.419 v 0 c -0.028,0.028 -0.083,0.042 -0.098,0.07 v 0 c -0.251,0.126 -0.489,0.251 -0.74,0.378 v 0 c -0.014,0.013 -0.014,0.013 -0.042,0.027 v 0 c -0.237,0.112 -0.489,0.252 -0.726,0.349 v 0 c -0.028,0.028 -0.042,0.07 -0.084,0.07 v 0 c -0.238,0.126 -0.461,0.196 -0.698,0.321 v 0 c -0.056,0 -0.112,0.014 -0.14,0.057 v 0 c -0.21,0.069 -0.446,0.166 -0.642,0.237 v 0 c -0.084,0.028 -0.14,0.07 -0.209,0.07 v 0 c -0.196,0.097 -0.405,0.139 -0.629,0.209 v 0 c -0.07,0.042 -0.153,0.07 -0.266,0.098 v 0 c -0.153,0.069 -0.363,0.126 -0.558,0.181 v 0 c -0.098,0.014 -0.196,0.014 -0.321,0.084 v 0 c -0.168,0.028 -0.364,0.056 -0.531,0.112 v 0 c -0.112,0.013 -0.223,0.056 -0.349,0.084 v 0 c -0.182,0.014 -0.377,0.056 -0.503,0.07 v 0 c -0.153,0.028 -0.293,0.041 -0.433,0.069 v 0 l -0.028,0.029 -22.304,3.24 z"
               style="fill:url(#linearGradient364);stroke:none"
               id="path366" /></g></g></g></g><g
       id="g368"><g
         id="g370"><g
           id="g376"><g
             id="g378"><path
               d="m 806.315,929.087 c -0.196,-0.041 -0.35,-0.069 -0.517,-0.098 v 0 c -0.21,-0.041 -0.349,-0.069 -0.531,-0.112 v 0 c -1.871,-0.446 -3.632,-1.187 -5.224,-2.206 v 0 h -0.028 c -0.474,-0.307 -0.949,-0.629 -1.354,-0.95 v 0 c -0.028,-0.042 -0.056,-0.056 -0.112,-0.097 v 0 c -0.182,-0.155 -0.377,-0.28 -0.544,-0.462 v 0 c -0.07,-0.056 -0.098,-0.083 -0.113,-0.126 v 0 c -0.195,-0.125 -0.348,-0.307 -0.516,-0.46 v 0 c -0.07,-0.042 -0.097,-0.098 -0.14,-0.14 v 0 c -0.182,-0.153 -0.321,-0.293 -0.446,-0.474 v 0 c -0.113,-0.071 -0.154,-0.154 -0.238,-0.238 v 0 c -0.111,-0.126 -0.237,-0.266 -0.363,-0.377 v 0 c -0.07,-0.112 -0.126,-0.182 -0.196,-0.266 v 0 c -0.111,-0.126 -0.223,-0.279 -0.349,-0.419 v 0 c -0.056,-0.083 -0.126,-0.167 -0.21,-0.307 v 0 c -0.083,-0.139 -0.153,-0.279 -0.293,-0.391 v 0 c -0.041,-0.111 -0.125,-0.238 -0.223,-0.335 v 0 c -0.042,-0.126 -0.154,-0.238 -0.251,-0.404 v 0 c -0.056,-0.141 -0.14,-0.225 -0.196,-0.364 v 0 c -0.084,-0.139 -0.181,-0.251 -0.224,-0.363 v 0 c -0.083,-0.168 -0.139,-0.307 -0.223,-0.433 v 0 c -0.056,-0.126 -0.126,-0.252 -0.154,-0.363 v 0 c -0.097,-0.14 -0.139,-0.267 -0.237,-0.392 v 0 c 0,-0.111 -0.098,-0.251 -0.125,-0.405 v 0 c -0.084,-0.126 -0.112,-0.237 -0.182,-0.39 v 0 c -0.056,-0.168 -0.098,-0.266 -0.182,-0.447 v 0 c -0.042,-0.14 -0.097,-0.265 -0.125,-0.433 v 0 c -0.042,-0.126 -0.112,-0.252 -0.141,-0.392 v 0 c -0.055,-0.181 -0.097,-0.321 -0.125,-0.516 v 0 c -0.042,-0.099 -0.083,-0.224 -0.111,-0.35 v 0 c -0.056,-0.167 -0.071,-0.335 -0.126,-0.516 v 0 c 0,-0.112 -0.043,-0.237 -0.071,-0.377 v 0 c -0.027,-0.196 -0.055,-0.322 -0.083,-0.503 v 0 c 0,-0.14 -0.042,-0.265 -0.07,-0.419 v 0 c -0.042,-0.154 -0.042,-0.307 -0.055,-0.447 v 0 c -0.015,-0.153 -0.015,-0.322 -0.084,-0.475 v 0 l -7.221,-78.548 22.43,-6.773 6.019,65.043 v 0.307 c 0.056,0.125 0.056,0.223 0.07,0.321 v 0 c 0.028,0.125 0.028,0.195 0.042,0.307 v 0 c 0,0.098 0.028,0.209 0.07,0.334 v 0 c 0.015,0.056 0.015,0.154 0.042,0.238 v 0 c 0.014,0.112 0.042,0.238 0.098,0.364 v 0 c 0.014,0.069 0.027,0.153 0.055,0.209 v 0 c 0.015,0.126 0.028,0.237 0.084,0.349 v 0 c 0.028,0.098 0.056,0.168 0.07,0.28 v 0 c 0.07,0.098 0.098,0.209 0.112,0.307 v 0 c 0.042,0.069 0.098,0.18 0.111,0.278 v 0 c 0.056,0.057 0.099,0.154 0.112,0.28 v 0 c 0.028,0.071 0.085,0.14 0.126,0.251 v 0 c 0.028,0.098 0.098,0.154 0.14,0.266 v 0 c 0.014,0.084 0.055,0.139 0.098,0.251 v 0 c 0.056,0.098 0.111,0.195 0.154,0.28 v 0 c 0.013,0.084 0.097,0.167 0.125,0.252 v 0 c 0.07,0.068 0.111,0.166 0.139,0.265 v 0 c 0.098,0.083 0.126,0.153 0.21,0.251 v 0 c 0.028,0.083 0.084,0.126 0.154,0.209 v 0 c 0.028,0.113 0.126,0.21 0.195,0.294 v 0 c 0.028,0.042 0.056,0.139 0.14,0.195 v 0 c 0.042,0.098 0.14,0.182 0.196,0.266 v 0 c 0.069,0.084 0.097,0.111 0.125,0.181 v 0 c 0.098,0.084 0.182,0.181 0.252,0.279 v 0 c 0.069,0.043 0.084,0.112 0.167,0.154 v 0 c 0.07,0.112 0.196,0.21 0.294,0.308 v 0 c 0.013,0.027 0.069,0.069 0.097,0.083 v 0 c 0.111,0.112 0.237,0.224 0.308,0.307 v 0 c 0.013,0 0.013,0.014 0.041,0.014 v 0 c 0.028,0.029 0.056,0.042 0.056,0.07 v 0 c 0.14,0.112 0.265,0.224 0.405,0.335 v 0 l 0.056,0.015 c 0.293,0.251 0.614,0.474 0.922,0.697 v 0 h 0.014 c 2.249,1.426 5.014,2.067 7.975,1.662 v 0 l 32.765,-4.79 29.162,-4.231 c -0.517,8.324 -1.02,16.298 -1.466,23.449 v 0 l -26.467,3.814 -48.757,7.094 c -0.852,0.112 -1.676,0.182 -2.527,0.182 v 0 c -1.02,0 -2.04,-0.098 -3.031,-0.252"
               style="fill:url(#linearGradient390);stroke:none"
               id="path392" /></g></g></g></g><g
       id="g394"><g
         id="g396"><g
           id="g402"><g
             id="g404"><path
               d="m 831.622,851.951 c -9.581,-15.099 -5.098,-35.126 10.014,-44.707 v 0 c 15.112,-9.596 35.112,-5.112 44.706,9.986 v 0 c 9.595,15.097 5.085,35.111 -9.999,44.706 v 0 c -5.391,3.422 -11.411,5.056 -17.333,5.056 v 0 c -10.712,0 -21.215,-5.321 -27.388,-15.041"
               style="fill:url(#linearGradient414);stroke:none"
               id="path416" /></g></g></g></g><g
       id="g418"><g
         id="g420"><g
           id="g426"><g
             id="g428"><path
               d="m 781.538,816.056 h -0.028 c -0.237,-0.125 -0.489,-0.237 -0.712,-0.363 v 0 c -0.028,0 -0.084,-0.055 -0.112,-0.055 v 0 c -0.238,-0.154 -0.489,-0.279 -0.726,-0.42 v 0 c -0.014,0 -0.028,0 -0.043,-0.028 v 0 c -0.223,-0.125 -0.474,-0.265 -0.656,-0.446 v 0 c -0.041,0 -0.083,0 -0.098,-0.028 v 0 c -0.223,-0.154 -0.446,-0.293 -0.628,-0.475 v 0 c -0.041,0 -0.112,-0.028 -0.112,-0.056 v 0 c -0.209,-0.126 -0.377,-0.292 -0.544,-0.447 v 0 c -0.084,-0.014 -0.139,-0.055 -0.195,-0.125 v 0 c -0.154,-0.14 -0.308,-0.266 -0.49,-0.42 v 0 c -0.056,-0.084 -0.153,-0.097 -0.209,-0.195 v 0 c -0.154,-0.125 -0.308,-0.251 -0.447,-0.392 v 0 c -0.084,-0.069 -0.126,-0.139 -0.251,-0.236 v 0 c -0.112,-0.112 -0.238,-0.267 -0.364,-0.392 v 0 c -0.069,-0.084 -0.153,-0.167 -0.265,-0.251 v 0 c -0.097,-0.14 -0.223,-0.265 -0.307,-0.391 v 0 c -0.098,-0.125 -0.182,-0.252 -0.307,-0.322 v 0 h -0.014 l -14.288,-17.458 20.852,-10.823 2.332,2.82 v 0.015 c 0.056,0.098 0.14,0.154 0.182,0.223 v 0 c 0.098,0.084 0.126,0.154 0.223,0.265 v 0 c 0.042,0.042 0.14,0.112 0.154,0.169 v 0 c 0.112,0.111 0.21,0.194 0.265,0.279 v 0 c 0.084,0.056 0.098,0.069 0.196,0.139 v 0 c 0.083,0.084 0.154,0.181 0.279,0.279 v 0 c 0.029,0.028 0.084,0.057 0.126,0.141 v 0 c 0.126,0.069 0.237,0.153 0.349,0.264 v 0 c 0.014,0 0.056,0.057 0.126,0.098 v 0 c 0.112,0.084 0.238,0.182 0.349,0.294 v 0 c 0.028,0 0.056,0.028 0.084,0.041 v 0 c 0.125,0.07 0.279,0.21 0.433,0.293 v 0 c 0.013,0.028 0.013,0.028 0.041,0.028 v 0 c 0.141,0.126 0.322,0.196 0.461,0.28 v 0 c 0.029,0.027 0.029,0.042 0.029,0.042 v 0 c 0.153,0.083 0.363,0.195 0.502,0.279 v 0 c 0,0.028 0,0.014 0.028,0.028 v 0 c 0.182,0.098 0.364,0.14 0.503,0.252 v 0 c 0,0 -0.014,0.014 0,0.014 v 0 c 3.966,2.151 8.059,1.215 8.869,0.865 v 0 c 0.027,0.014 0.419,-0.112 0.544,-0.125 v 0 c 0.028,0 0.629,-0.223 0.629,-0.223 v 0 c 0.181,-0.028 3.003,-1.523 3.254,-1.719 v 0 l 83.799,-43.337 -0.07,-0.07 22.235,-11.509 3.812,3.45 14.861,13.534 c 0,0 -126.83,65.684 -127.025,65.781 v 0 c -0.098,0.07 -0.154,0.112 -0.238,0.182 v 0 c -0.154,0.07 -3.031,1.216 -3.282,1.313 v 0 c -0.041,0 -0.098,0 -0.112,0.056 v 0 c -0.251,0.056 -0.503,0.125 -0.74,0.195 v 0 c -0.014,0 -0.056,0 -0.14,0.015 v 0 c -0.572,0.181 -1.144,0.265 -1.774,0.377 v 0 c -0.935,0.125 -1.885,0.209 -2.862,0.209 v 0 c -2.919,0 -5.824,-0.642 -8.478,-1.914"
               style="fill:url(#linearGradient440);stroke:none"
               id="path442" /></g></g></g></g><g
       id="g444"><g
         id="g446"><g
           id="g452"><g
             id="g454"><path
               d="m 741.496,769.967 -31.187,-38.143 c -1.229,-1.507 -2.137,-3.128 -2.793,-4.832 v 0 c -0.084,-0.153 -0.154,-0.307 -0.21,-0.489 v 0 c -0.055,-0.153 -0.126,-0.321 -0.154,-0.503 v 0 c -0.614,-1.828 -0.879,-3.728 -0.837,-5.614 v 0 l -0.014,-0.041 c 0.014,-0.545 0.097,-1.133 0.14,-1.649 v 0 c 0,-0.028 0.028,-0.055 0.028,-0.112 v 0 c 0.041,-0.264 0.055,-0.503 0.097,-0.712 v 0 c 0.042,-0.069 0.042,-0.139 0.07,-0.167 v 0 c 0.028,-0.239 0.056,-0.489 0.139,-0.698 v 0 c 0.015,-0.057 0.015,-0.126 0.028,-0.197 v 0 c 0.056,-0.195 0.098,-0.39 0.14,-0.628 v 0 c 0.057,-0.111 0.084,-0.182 0.098,-0.264 v 0 c 0.098,-0.182 0.111,-0.364 0.182,-0.532 v 0 c 0.028,-0.112 0.056,-0.21 0.097,-0.335 v 0 c 0.07,-0.14 0.112,-0.321 0.21,-0.503 v 0 c 0.014,-0.112 0.07,-0.196 0.139,-0.293 v 0 c 0.056,-0.167 0.113,-0.322 0.182,-0.461 v 0 c 0.056,-0.126 0.126,-0.251 0.182,-0.377 v 0 c 0.069,-0.126 0.125,-0.265 0.209,-0.419 v 0 c 0.056,-0.126 0.125,-0.251 0.196,-0.377 v 0 c 0.083,-0.141 0.126,-0.266 0.209,-0.377 v 0 c 0.084,-0.14 0.153,-0.265 0.251,-0.433 v 0 c 0.043,-0.098 0.154,-0.195 0.21,-0.293 v 0 c 0.069,-0.14 0.181,-0.265 0.251,-0.378 v 0 c 0.071,-0.111 0.168,-0.237 0.266,-0.349 v 0 c 0.056,-0.139 0.167,-0.251 0.251,-0.391 v 0 c 0.111,-0.098 0.167,-0.195 0.28,-0.322 v 0 c 0.084,-0.125 0.181,-0.236 0.293,-0.362 v 0 c 0.097,-0.098 0.195,-0.209 0.265,-0.322 v 0 c 0.111,-0.125 0.237,-0.236 0.377,-0.377 v 0 c 0.098,-0.098 0.182,-0.166 0.252,-0.264 v 0 c 0.097,-0.141 0.238,-0.252 0.377,-0.364 v 0 c 0.097,-0.084 0.195,-0.167 0.307,-0.264 v 0 c 0.139,-0.113 0.251,-0.239 0.377,-0.351 v 0 c 0.098,-0.069 0.182,-0.167 0.293,-0.251 v 0 c 0.112,-0.125 0.266,-0.209 0.377,-0.293 v 0 c 0.127,-0.098 0.252,-0.195 0.363,-0.294 v 0 l 63.604,-46.69 17.346,15.769 -52.639,38.66 c -0.084,0.055 -0.154,0.125 -0.279,0.153 v 0 c -0.043,0.098 -0.126,0.154 -0.238,0.223 v 0 c -0.07,0.084 -0.126,0.125 -0.195,0.195 v 0 c -0.085,0.057 -0.197,0.14 -0.252,0.196 v 0 c -0.07,0.084 -0.125,0.112 -0.196,0.196 v 0 c -0.111,0.055 -0.181,0.167 -0.265,0.251 v 0 c -0.042,0.042 -0.112,0.111 -0.167,0.182 v 0 c -0.084,0.098 -0.196,0.139 -0.252,0.251 v 0 c -0.07,0.056 -0.112,0.126 -0.181,0.209 v 0 c -0.056,0.084 -0.126,0.154 -0.224,0.252 v 0 c -0.042,0.042 -0.126,0.153 -0.168,0.237 v 0 c -0.041,0.057 -0.125,0.154 -0.181,0.238 v 0 c -0.056,0.055 -0.098,0.14 -0.168,0.195 v 0 c -0.042,0.112 -0.112,0.195 -0.14,0.28 v 0 c -0.069,0.084 -0.139,0.139 -0.167,0.223 v 0 c -0.07,0.112 -0.112,0.182 -0.182,0.252 v 0 c -0.041,0.097 -0.069,0.194 -0.139,0.265 v 0 c -0.014,0.098 -0.084,0.195 -0.14,0.251 v 0 c -0.028,0.112 -0.07,0.209 -0.126,0.307 v 0 c -0.028,0.056 -0.056,0.14 -0.125,0.225 v 0 c -0.029,0.111 -0.07,0.194 -0.14,0.32 v 0 c 0,0.069 -0.056,0.14 -0.084,0.238 v 0 c -0.041,0.111 -0.069,0.209 -0.125,0.321 v 0 c -0.028,0.084 -0.028,0.139 -0.056,0.195 v 0 c -0.07,0.112 -0.098,0.251 -0.112,0.363 v 0 c -0.028,0.07 -0.056,0.14 -0.098,0.21 v 0 c -0.014,0.126 -0.028,0.28 -0.083,0.405 v 0 c 0,0.028 -0.043,0.083 -0.056,0.14 v 0 c -0.015,0.14 -0.028,0.279 -0.057,0.405 v 0 c -0.013,0 -0.013,0.014 0,0.041 v 0 c -0.013,0.042 -0.013,0.071 -0.041,0.099 v 0 c -0.043,0.181 -0.043,0.348 -0.056,0.503 v 0 0.083 c -0.07,0.363 -0.098,0.755 -0.112,1.131 v 0 c 0,0 0,0.014 0.014,0.014 v 0 c -0.069,2.64 0.782,5.363 2.654,7.667 v 0 l 20.977,25.643 18.673,22.821 c -7.402,3.827 -14.51,7.5 -20.852,10.797 v 0 z"
               style="fill:url(#linearGradient466);stroke:none"
               id="path468" /></g></g></g></g><g
       id="g470"><g
         id="g472"><g
           id="g478"><g
             id="g480"><path
               d="M 801.133,752.44 C 785.1,744.437 778.647,724.982 786.636,708.976 v 0 c 8.016,-15.992 27.486,-22.458 43.477,-14.455 v 0 c 16.006,7.96 22.487,27.444 14.456,43.464 v 0 c -5.671,11.34 -17.095,17.89 -28.967,17.89 v 0 c -4.874,0 -9.818,-1.104 -14.469,-3.435"
               style="fill:url(#linearGradient490);stroke:none"
               id="path492" /></g></g></g></g><g
       id="g494"><g
         id="g496"><g
           id="g502"><g
             id="g504"><path
               d="m 801.063,662.453 c -0.125,-0.069 -0.182,-0.112 -0.293,-0.139 v 0 c -0.126,-0.098 -2.598,-1.942 -2.835,-2.109 v 0 c -0.028,-0.056 -0.028,-0.07 -0.056,-0.098 v 0 c -0.21,-0.154 -0.377,-0.364 -0.573,-0.517 v 0 c -0.027,-0.013 -0.027,-0.084 -0.083,-0.098 v 0 c -0.433,-0.418 -0.825,-0.88 -1.202,-1.34 v 0 h -0.013 c -2.487,-3.017 -4.009,-6.719 -4.386,-10.601 v 0 l -0.014,-0.028 c -0.028,-0.265 -0.042,-0.544 -0.084,-0.824 v 0 c -0.014,-0.027 0,-0.056 -0.014,-0.084 v 0 c 0,-0.279 -0.014,-0.558 0,-0.824 v 0 c -0.014,-0.041 -0.014,-0.041 -0.014,-0.055 v 0 c 0,-0.266 0,-0.574 0.028,-0.81 v 0 c 0,-0.028 -0.014,-0.071 0,-0.126 v 0 c 0.042,-0.266 0.056,-0.517 0.07,-0.769 v 0 c 0.014,-0.041 0.014,-0.097 0.014,-0.125 v 0 c 0.014,-0.251 0.042,-0.474 0.083,-0.699 v 0 c 0,-0.055 0,-0.153 0.028,-0.209 v 0 c 0.042,-0.223 0.057,-0.447 0.126,-0.628 v 0 c 0,-0.099 0,-0.21 0.028,-0.294 v 0 c 0.015,-0.195 0.07,-0.377 0.126,-0.572 v 0 c 0,-0.112 0.041,-0.223 0.069,-0.349 v 0 c 0.043,-0.141 0.085,-0.336 0.154,-0.517 v 0 c 0.028,-0.112 0.043,-0.238 0.098,-0.364 v 0 c 0.042,-0.139 0.084,-0.307 0.153,-0.46 v 0 c 0.043,-0.14 0.098,-0.294 0.141,-0.419 v 0 l -0.015,-0.013 7.585,-21.245 19.999,12.306 -1.187,3.422 v 0.027 c -0.083,0.084 -0.098,0.196 -0.111,0.265 v 0 c -0.043,0.098 -0.098,0.21 -0.113,0.336 v 0 c -0.028,0.083 -0.028,0.139 -0.083,0.251 v 0 c -0.028,0.111 -0.056,0.223 -0.084,0.349 v 0 c -0.014,0.042 -0.014,0.14 -0.042,0.209 v 0 c -0.042,0.14 -0.055,0.266 -0.07,0.406 v 0 c -0.013,0.028 -0.056,0.097 -0.083,0.167 v 0 c 0,0.126 0,0.294 -0.015,0.433 v 0 c 0,0.028 -0.013,0.098 -0.041,0.154 v 0 c -0.015,0.14 -0.043,0.292 -0.07,0.447 v 0 0.097 c 0,0.168 -0.014,0.363 -0.014,0.517 v 0 c 0,0.042 0,0.042 -0.014,0.085 v 0 c 0,0.153 0,0.362 -0.014,0.516 v 0 c 0.014,0.014 0.014,0.028 0,0.055 v 0 c 0,0.182 0.028,0.392 0.042,0.574 v 0 c -0.028,0 -0.014,0 -0.014,0.055 v 0 c 0,0.168 0.028,0.364 0.014,0.558 v 0 0.016 c 0.153,4.468 3.1,7.513 3.785,8.029 v 0 c 0.014,0.028 0.349,0.279 0.446,0.392 v 0 c 0.015,0 0.489,0.419 0.489,0.419 v 0 c 0.14,0.139 2.836,1.801 3.171,1.913 v 0 l 80.321,49.469 0.014,-0.07 21.285,13.115 -0.978,5.056 -3.938,19.72 c 0,0 -121.634,-74.874 -121.816,-74.972"
               style="fill:url(#linearGradient516);stroke:none"
               id="path518" /></g></g></g></g><g
       id="g520"><g
         id="g522"><g
           id="g528"><g
             id="g530"><path
               d="m 801.454,614.633 9.051,-25.155 16.606,-46.382 c 0.684,-1.816 1.577,-3.45 2.709,-4.902 v 0 c 0.098,-0.126 0.182,-0.266 0.28,-0.391 v 0 c 0.125,-0.139 0.251,-0.28 0.377,-0.405 v 0 c 1.256,-1.467 2.751,-2.654 4.385,-3.604 v 0 l 0.014,-0.014 c 0.503,-0.279 1.005,-0.503 1.494,-0.74 v 0 c 0.028,-0.014 0.07,-0.014 0.098,-0.041 v 0 c 0.238,-0.085 0.433,-0.21 0.671,-0.28 v 0 c 0.083,-0.041 0.126,-0.056 0.181,-0.056 v 0 c 0.196,-0.097 0.433,-0.154 0.671,-0.237 v 0 c 0.028,-0.015 0.111,-0.042 0.153,-0.042 v 0 c 0.224,-0.098 0.405,-0.155 0.629,-0.21 v 0 c 0.125,-0.013 0.223,-0.027 0.321,-0.056 v 0 c 0.168,-0.027 0.335,-0.084 0.517,-0.125 v 0 c 0.111,-0.042 0.195,-0.071 0.321,-0.071 v 0 c 0.181,-0.041 0.349,-0.069 0.53,-0.111 v 0 c 0.084,-0.028 0.197,-0.028 0.336,-0.028 v 0 c 0.181,-0.028 0.349,-0.041 0.489,-0.098 v 0 c 0.139,0 0.279,-0.014 0.433,-0.014 v 0 c 0.139,0 0.306,-0.028 0.447,-0.041 v 0 c 0.153,0 0.279,-0.042 0.446,0 v 0 c 0.168,-0.042 0.294,-0.042 0.433,-0.042 v 0 h 0.489 c 0.126,0 0.265,0 0.377,0.028 v 0 c 0.14,0.014 0.293,0.014 0.419,0.014 v 0 c 0.154,0.028 0.322,0.028 0.461,0.041 v 0 c 0.126,0 0.266,0 0.42,0.042 v 0 c 0.181,0.029 0.292,0.014 0.46,0.07 v 0 c 0.14,0 0.279,0.014 0.461,0.057 v 0 c 0.14,0.041 0.294,0.055 0.419,0.082 v 0 c 0.167,0 0.335,0.071 0.503,0.112 v 0 c 0.126,0 0.251,0.029 0.377,0.084 v 0 c 0.167,0.014 0.349,0.056 0.503,0.126 v 0 c 0.125,0.042 0.237,0.056 0.391,0.112 v 0 c 0.139,0.055 0.279,0.112 0.475,0.168 v 0 c 0.125,0.027 0.265,0.069 0.377,0.139 v 0 c 0.139,0.015 0.307,0.112 0.433,0.126 v 0 c 0.153,0.069 0.293,0.125 0.461,0.153 v 0 l 72.765,30.503 -4.553,22.974 -60.293,-25.222 c -0.098,-0.028 -0.168,-0.07 -0.266,-0.126 v 0 c -0.098,0 -0.209,-0.056 -0.321,-0.097 v 0 c -0.084,-0.029 -0.167,-0.043 -0.251,-0.071 v 0 c -0.098,-0.07 -0.21,-0.083 -0.308,-0.126 v 0 c -0.097,-0.027 -0.153,-0.055 -0.251,-0.083 v 0 c -0.112,-0.014 -0.238,-0.042 -0.364,-0.084 v 0 c -0.056,-0.028 -0.153,-0.041 -0.236,-0.028 v 0 c -0.126,-0.041 -0.252,-0.084 -0.364,-0.112 v 0 c -0.056,-0.027 -0.154,-0.013 -0.265,-0.027 v 0 c -0.112,0 -0.224,-0.043 -0.322,-0.071 v 0 c -0.069,0 -0.195,-0.028 -0.307,-0.041 v 0 c -0.07,0 -0.167,0 -0.265,-0.014 v 0 c -0.098,0 -0.182,-0.015 -0.279,-0.015 v 0 h -0.322 c -0.083,-0.027 -0.153,-0.027 -0.265,-0.027 v 0 h -0.307 -0.308 c -0.069,0.027 -0.195,0.027 -0.279,0.014 v 0 c -0.111,0.028 -0.223,0.028 -0.335,0.042 v 0 h -0.251 c -0.127,0.013 -0.21,0.041 -0.322,0.069 v 0 c -0.084,0 -0.182,0 -0.237,0.043 v 0 c -0.14,0 -0.238,0.014 -0.363,0.027 v 0 c -0.084,0.028 -0.14,0.055 -0.223,0.071 v 0 c -0.126,0.013 -0.238,0.041 -0.364,0.069 v 0 c -0.056,0.042 -0.126,0.042 -0.182,0.07 v 0 c -0.139,0.014 -0.293,0.084 -0.405,0.097 v 0 c -0.083,0.043 -0.111,0.043 -0.167,0.056 v 0 c -0.126,0.056 -0.279,0.098 -0.391,0.126 v 0 h -0.014 c -0.028,0.042 -0.098,0.056 -0.14,0.056 v 0 c -0.139,0.056 -0.28,0.125 -0.46,0.195 v 0 l -0.028,0.042 c -0.364,0.154 -0.699,0.321 -1.034,0.503 v 0 0.014 c -2.332,1.313 -4.19,3.45 -5.238,6.229 v 0 l -11.131,31.201 -9.986,27.737 c -7.067,-4.357 -13.868,-8.547 -19.986,-12.303"
               style="fill:url(#linearGradient542);stroke:none"
               id="path544" /></g></g></g></g><g
       id="g546"><g
         id="g548"><g
           id="g554"><g
             id="g556"><path
               d="m 856.217,631.559 c -1.369,-17.835 11.969,-33.407 29.818,-34.79 v 0 c 17.835,-1.382 33.408,11.956 34.791,29.79 v 0 c 1.368,17.863 -11.97,33.436 -29.819,34.819 v 0 c -0.852,0.056 -1.69,0.098 -2.514,0.098 v 0 c -16.774,-0.014 -30.977,-12.933 -32.276,-29.917"
               style="fill:url(#linearGradient566);stroke:none"
               id="path568" /></g></g></g></g><g
       id="g570"><g
         id="g572"><g
           id="g578"><g
             id="g580"><path
               d="m 931.817,728.193 c 0.015,-0.941 1.495,-142.863 1.495,-143.058 v 0 c 0,-0.112 -0.015,-0.195 -0.015,-0.293 v 0 c 0,-0.168 0.322,-3.268 0.349,-3.534 v 0 c 0.015,-0.028 0.028,-0.056 0.028,-0.126 v 0 c 0.071,-0.209 0.112,-0.489 0.182,-0.726 v 0 c 0,-0.014 0.028,-0.055 0.015,-0.139 v 0 c 0.167,-0.573 0.306,-1.145 0.544,-1.704 v 0 l -0.014,-0.015 c 1.313,-3.686 3.673,-6.898 6.83,-9.217 v 0 -0.028 c 0.223,-0.167 0.461,-0.335 0.684,-0.475 v 0 c 0.014,0 0.056,-0.029 0.056,-0.055 v 0 c 0.237,-0.14 0.488,-0.322 0.726,-0.461 v 0 h 0.028 c 0.237,-0.126 0.489,-0.294 0.726,-0.392 v 0 c 0.015,-0.028 0.028,-0.056 0.084,-0.098 v 0 c 0.224,-0.097 0.447,-0.209 0.685,-0.307 v 0 c 0.041,-0.056 0.097,-0.07 0.125,-0.07 v 0 c 0.21,-0.125 0.419,-0.194 0.629,-0.279 v 0 c 0.084,-0.042 0.125,-0.097 0.223,-0.112 v 0 c 0.168,-0.055 0.391,-0.14 0.572,-0.208 v 0 c 0.099,-0.044 0.21,-0.113 0.294,-0.113 v 0 c 0.182,-0.097 0.335,-0.167 0.559,-0.195 v 0 c 0.097,-0.043 0.182,-0.084 0.307,-0.112 v 0 c 0.167,-0.042 0.335,-0.084 0.531,-0.14 v 0 c 0.126,-0.028 0.237,-0.084 0.349,-0.112 v 0 c 0.167,-0.041 0.321,-0.069 0.474,-0.111 v 0 c 0.154,-0.014 0.308,-0.055 0.447,-0.112 v 0 l 0.015,-0.014 22.122,-4.414 0.001,0.002 -0.252,23.49 -3.575,0.726 c -0.113,0.029 -0.196,0.042 -0.308,0.042 v 0 c -0.111,0.028 -0.223,0.056 -0.307,0.085 v 0 c -0.083,0.027 -0.181,0.055 -0.252,0.055 v 0 c -0.111,0.042 -0.251,0.084 -0.349,0.111 v 0 c -0.097,0.015 -0.125,0.071 -0.223,0.099 v 0 c -0.125,0.028 -0.251,0.042 -0.377,0.125 v 0 c -0.056,0 -0.112,0.028 -0.168,0.028 v 0 c -0.139,0.083 -0.265,0.14 -0.405,0.195 v 0 c -0.042,0.015 -0.07,0.029 -0.154,0.057 v 0 c -0.139,0.055 -0.293,0.125 -0.404,0.168 v 0 c -0.028,0.041 -0.056,0.055 -0.126,0.069 v 0 c -0.126,0.084 -0.265,0.14 -0.419,0.238 v 0 c -0.028,0.013 -0.028,0.013 -0.084,0.028 v 0 c -0.126,0.083 -0.293,0.153 -0.447,0.264 v 0 h -0.056 c -0.139,0.112 -0.307,0.239 -0.488,0.35 v 0 c -0.014,-0.014 0,-0.014 -0.028,0.014 v 0 c -0.126,0.098 -0.279,0.223 -0.461,0.308 v 0 h -0.015 c -3.756,2.457 -4.832,6.535 -4.93,7.36 v 0 c 0,0.055 -0.097,0.461 -0.111,0.599 v 0 c 0,0.029 -0.126,0.644 -0.126,0.644 v 0 c -0.027,0.167 -0.042,3.366 0,3.686 v 0 l -1.034,94.344 0.084,-0.042 -0.279,25.027 -4.846,1.746 -18.911,6.803 z"
               style="fill:url(#linearGradient592);stroke:none"
               id="path594" /></g></g></g></g><g
       id="g596"><g
         id="g598"><g
           id="g604"><g
             id="g606"><path
               d="m 1049.442,581.825 c -0.013,-0.14 -0.028,-0.237 -0.041,-0.335 v 0 c -0.056,-0.084 -0.07,-0.182 -0.098,-0.308 v 0 c 0,-0.125 -0.014,-0.182 -0.042,-0.265 v 0 c -0.014,-0.112 -0.055,-0.224 -0.083,-0.363 v 0 c 0,-0.07 -0.015,-0.14 -0.043,-0.251 v 0 c -0.055,-0.098 -0.07,-0.238 -0.098,-0.349 v 0 c -0.041,-0.043 -0.069,-0.154 -0.097,-0.21 v 0 c -0.028,-0.14 -0.042,-0.238 -0.126,-0.321 v 0 c 0,-0.112 -0.041,-0.182 -0.056,-0.28 v 0 c -0.083,-0.083 -0.083,-0.209 -0.139,-0.293 v 0 c -0.043,-0.083 -0.07,-0.182 -0.112,-0.293 v 0 c -0.07,-0.056 -0.098,-0.154 -0.126,-0.266 v 0 c -0.07,-0.055 -0.084,-0.139 -0.139,-0.251 v 0 c -0.056,-0.083 -0.098,-0.154 -0.154,-0.252 v 0 c -0.028,-0.082 -0.056,-0.139 -0.125,-0.251 v 0 c -0.057,-0.098 -0.098,-0.167 -0.169,-0.251 v 0 c -0.013,-0.097 -0.111,-0.182 -0.125,-0.252 v 0 c -0.083,-0.07 -0.126,-0.166 -0.168,-0.251 v 0 c -0.069,-0.097 -0.14,-0.154 -0.195,-0.238 v 0 c -0.056,-0.082 -0.098,-0.139 -0.14,-0.251 v 0 c -0.098,-0.07 -0.154,-0.139 -0.237,-0.251 v 0 c -0.042,-0.042 -0.112,-0.14 -0.154,-0.168 v 0 c -0.098,-0.097 -0.153,-0.195 -0.237,-0.279 v 0 c -0.042,-0.069 -0.126,-0.098 -0.126,-0.153 v 0 c -0.112,-0.098 -0.182,-0.182 -0.266,-0.28 v 0 c -0.083,-0.041 -0.098,-0.084 -0.167,-0.14 v 0 c -0.07,-0.111 -0.195,-0.181 -0.321,-0.293 v 0 c -0.015,-0.028 -0.056,-0.07 -0.098,-0.098 v 0 c -0.112,-0.097 -0.237,-0.182 -0.321,-0.251 v 0 c -0.014,-0.015 -0.014,-0.042 -0.042,-0.028 v 0 c -0.028,-0.028 -0.042,-0.069 -0.056,-0.084 v 0 c -0.139,-0.126 -0.265,-0.167 -0.447,-0.279 v 0 l -0.028,-0.042 c -0.307,-0.224 -0.628,-0.419 -0.977,-0.629 v 0 c 0,0 0,0.015 -0.028,0.015 v 0 c -2.277,-1.327 -5.07,-1.83 -8.031,-1.258 v 0 l -32.458,6.495 -28.91,5.768 c 0.097,-8.338 0.153,-16.312 0.264,-23.506 v 0 l 26.202,-5.167 48.309,-9.665 c 1.914,-0.377 3.786,-0.433 5.56,-0.237 v 0 c 0.195,0.042 0.362,0.042 0.516,0.083 v 0 c 0.21,0.014 0.363,0.029 0.545,0.07 v 0 c 1.913,0.363 3.701,1.006 5.335,1.942 v 0 h 0.028 c 0.489,0.264 0.964,0.586 1.382,0.894 v 0 c 0.07,0.013 0.085,0.013 0.113,0.027 v 0 c 0.208,0.181 0.39,0.322 0.614,0.476 v 0 c 0.014,0.041 0.098,0.069 0.112,0.125 v 0 c 0.153,0.125 0.363,0.265 0.53,0.433 v 0 c 0.056,0.028 0.112,0.07 0.126,0.126 v 0 c 0.195,0.126 0.363,0.279 0.489,0.432 v 0 c 0.098,0.085 0.139,0.14 0.237,0.224 v 0 c 0.112,0.139 0.266,0.265 0.377,0.378 v 0 c 0.098,0.069 0.154,0.166 0.238,0.251 v 0 c 0.125,0.125 0.223,0.279 0.321,0.405 v 0 c 0.098,0.07 0.181,0.153 0.224,0.264 v 0 c 0.126,0.141 0.223,0.252 0.334,0.377 v 0 c 0.043,0.126 0.154,0.238 0.238,0.35 v 0 c 0.07,0.111 0.182,0.238 0.293,0.377 v 0 c 0.071,0.139 0.14,0.237 0.238,0.363 v 0 c 0.084,0.126 0.139,0.238 0.223,0.35 v 0 c 0.056,0.153 0.154,0.293 0.251,0.419 v 0 c 0.057,0.112 0.113,0.237 0.182,0.335 v 0 c 0.07,0.139 0.126,0.265 0.223,0.405 v 0 c 0.015,0.111 0.126,0.251 0.169,0.391 v 0 c 0.083,0.125 0.125,0.251 0.195,0.391 v 0 c 0.041,0.139 0.139,0.265 0.182,0.405 v 0 c 0.083,0.126 0.111,0.265 0.167,0.433 v 0 c 0.056,0.139 0.126,0.265 0.167,0.405 v 0 c 0.043,0.154 0.099,0.293 0.154,0.502 v 0 c 0.028,0.112 0.084,0.224 0.125,0.35 v 0 c 0.071,0.167 0.113,0.307 0.127,0.502 v 0 c 0.055,0.113 0.083,0.211 0.111,0.377 v 0 c 0.028,0.182 0.07,0.322 0.126,0.503 v 0 c 0,0.112 0.07,0.252 0.084,0.392 v 0 c 0.042,0.166 0.056,0.307 0.083,0.446 v 0 c 0.028,0.169 0.043,0.322 0.099,0.476 v 0 l 11.368,78.057 -22.053,7.933 z"
               style="fill:url(#linearGradient618);stroke:none"
               id="path620" /></g></g></g></g><g
       id="g622"><g
         id="g624"><g
           id="g630"><g
             id="g632"><path
               d="m 980.574,661.685 c -10.349,-14.581 -6.941,-34.804 7.654,-45.167 v 0 c 14.566,-10.377 34.79,-6.955 45.153,7.626 v 0 c 10.391,14.566 6.969,34.804 -7.611,45.153 v 0 c -5.713,4.064 -12.263,6.02 -18.744,6.02 v 0 c -10.139,0 -20.111,-4.749 -26.452,-13.632"
               style="fill:url(#linearGradient642);stroke:none"
               id="path644" /></g></g></g></g></g></svg>
