<?xml version="1.0" encoding="utf-8"?>
<!-- Generator: Adobe Illustrator 23.1.1, SVG Export Plug-In . SVG Version: 6.00 Build 0)  -->
<svg version="1.1" id="Layer_1" xmlns="http://www.w3.org/2000/svg" xmlns:xlink="http://www.w3.org/1999/xlink" x="0px" y="0px"
	 viewBox="0 0 82 40" style="enable-background:new 0 0 82 40;" xml:space="preserve">
<style type="text/css">
	.st0{fill:#FFFFFF;}
	.st1{fill:#F61D63;}
</style>
<g>
	<g>
		<path class="st0" d="M19.7,31L22,27c2.3,1.6,4.5,2.3,6.7,2.3c1.4,0,2.5-0.2,3.3-0.7c0.8-0.5,1.2-1.2,1.2-2.1
			c0-0.6-0.1-1.1-0.4-1.4c-0.3-0.4-0.7-0.8-1.4-1.1c-0.6-0.4-1.6-0.8-2.9-1.4l-0.8-0.4c-1.6-0.7-2.8-1.3-3.8-1.9
			c-1-0.6-1.7-1.4-2.3-2.3c-0.6-1-0.8-2.2-0.8-3.6c0-1.6,0.4-3,1.3-4c0.9-1.1,2-1.9,3.3-2.4c1.3-0.5,2.8-0.8,4.3-0.8
			c1.4,0,2.8,0.2,4.2,0.7c1.5,0.5,2.8,1.2,4.2,2.2L35.7,14c-1.2-0.8-2.2-1.3-3.1-1.7c-0.9-0.3-1.9-0.5-2.9-0.5
			c-1.2,0-2.1,0.2-2.6,0.6c-0.6,0.4-0.9,1-0.9,1.7c0,0.4,0.1,0.9,0.4,1.2c0.2,0.4,0.7,0.7,1.3,1.1c0.6,0.4,1.5,0.8,2.7,1.2l0.8,0.3
			c1.6,0.6,2.8,1.2,3.8,1.8c1,0.6,1.8,1.3,2.4,2.4c0.7,1,1,2.4,1,4c0,1.7-0.4,3.2-1.2,4.3c-0.8,1.2-2,2.1-3.4,2.6
			c-1.4,0.6-3.1,0.9-4.9,0.9C25.4,34.1,22.2,33,19.7,31z"/>
		<path class="st0" d="M54.3,16.4c1.1,0.9,1.6,2.4,1.6,4.5v12.6h-4.2l-0.4-1.4c-0.9,0.7-1.8,1.2-2.7,1.5c-0.9,0.3-1.8,0.4-2.8,0.4
			c-1,0-1.9-0.2-2.7-0.6c-0.8-0.4-1.4-1-1.8-1.8c-0.4-0.8-0.6-1.6-0.6-2.6c0-2.1,1-3.7,2.9-4.8c1.9-1.1,4.4-1.7,7.5-1.8V22
			c0-0.7-0.1-1.3-0.2-1.7c-0.1-0.4-0.4-0.7-0.7-0.9c-0.3-0.2-0.8-0.3-1.4-0.3c-1.5,0-3.3,0.7-5.3,2l-1.9-3.3
			c1.3-0.9,2.6-1.6,3.9-2.1c1.3-0.4,2.6-0.7,4.1-0.7C51.6,15.1,53.2,15.5,54.3,16.4z M46.2,29.7c0.3,0.3,0.8,0.5,1.4,0.5
			c1,0,2.1-0.4,3.4-1.1v-3.4c-1.8,0.1-3.1,0.4-4,0.9c-0.8,0.5-1.3,1.1-1.3,1.8C45.7,29,45.9,29.4,46.2,29.7z"/>
		<path class="st0" d="M66.5,11.2c-0.4,0.5-0.6,1.2-0.6,2.1v2.4h4.2l-0.6,4.2h-3.7v13.6h-5V19.9h-2.4v-4.2h2.4v-2.3
			c0-1.4,0.3-2.7,0.8-3.8c0.5-1.1,1.3-2,2.3-2.6c1-0.6,2.2-1,3.6-1c0.7,0,1.3,0.1,1.8,0.2c0.6,0.1,1.1,0.3,1.7,0.5l-1.3,4.2
			c-0.5-0.2-1-0.4-1.6-0.4C67.4,10.5,66.9,10.7,66.5,11.2z M73.5,12.5c-0.5-0.3-0.9-0.7-1.2-1.2c-0.3-0.5-0.4-1.1-0.4-1.7
			c0-0.6,0.1-1.2,0.4-1.7c0.3-0.5,0.7-0.9,1.2-1.2c0.5-0.3,1-0.5,1.6-0.5c0.6,0,1.1,0.2,1.6,0.5c0.5,0.3,0.9,0.7,1.2,1.2
			c0.3,0.5,0.4,1.1,0.4,1.7c0,0.6-0.1,1.2-0.4,1.7c-0.3,0.5-0.7,0.9-1.2,1.2c-0.5,0.3-1,0.5-1.6,0.5C74.5,13,74,12.9,73.5,12.5z
			 M72.7,33.5V15.8l5-0.5v18.2H72.7z"/>
	</g>
	<g>
		<path class="st1" d="M26.3,17.9l-8.8-5c-0.6-0.3-1.2-0.4-1.7-0.2c-0.5,0.2-1,0.5-1.4,1.1c-0.3,0.6-0.4,1.2-0.2,1.7
			c0.2,0.5,0.5,1,1.1,1.4l8.8,5c0.3,0.2,0.6,0.1,0.9-0.1c0.3-0.2,0.7-0.7,1.1-1.4c0.4-0.7,0.6-1.2,0.6-1.6
			C26.7,18.3,26.6,18,26.3,17.9z"/>
		<path class="st1" d="M16.8,27.9L8,22.7c-0.6-0.3-1.1-0.4-1.7-0.3c-0.5,0.2-1.1,0.5-1.4,1.1c-0.3,0.6-0.4,1.1-0.3,1.7
			c0.2,0.5,0.5,1.1,1.1,1.4l8.8,5.2c0.3,0.2,0.6,0.1,0.9-0.1c0.3-0.2,0.7-0.7,1.1-1.4c0.4-0.7,0.6-1.2,0.6-1.6
			C17.2,28.4,17.1,28,16.8,27.9z"/>
		<path class="st1" d="M13.5,23.6c0.3,0.2,0.6,0.1,0.9-0.1c0.3-0.2,0.7-0.7,1.1-1.4c0.4-0.7,0.6-1.2,0.6-1.6c0-0.3-0.1-0.6-0.4-0.8
			L7,14.5c-0.6-0.3-1.1-0.4-1.7-0.3c-0.5,0.2-1.1,0.5-1.4,1.1c-0.3,0.6-0.4,1.1-0.3,1.7c0.2,0.5,0.5,1.1,1.1,1.4L13.5,23.6z"/>
	</g>
</g>
</svg>
