<?xml version="1.0" encoding="UTF-8" standalone="no"?>
<!-- Created with Inkscape (http://www.inkscape.org/) -->

<svg
   version="1.1"
   id="svg2"
   xml:space="preserve"
   width="2560"
   height="1440"
   viewBox="0 0 2560 1440"
   sodipodi:docname="Derasat logo.ai"
   xmlns:inkscape="http://www.inkscape.org/namespaces/inkscape"
   xmlns:sodipodi="http://sodipodi.sourceforge.net/DTD/sodipodi-0.dtd"
   xmlns="http://www.w3.org/2000/svg"
   xmlns:svg="http://www.w3.org/2000/svg"><defs
     id="defs6"><clipPath
       clipPathUnits="userSpaceOnUse"
       id="clipPath16"><path
         d="M 0,1080 H 1920 V 0 H 0 Z"
         id="path14" /></clipPath><linearGradient
       x1="0"
       y1="0"
       x2="1"
       y2="0"
       gradientUnits="userSpaceOnUse"
       gradientTransform="matrix(0.0020871,620.61993,-620.61993,0.0020871,239.99225,303.54108)"
       spreadMethod="pad"
       id="linearGradient94"><stop
         style="stop-opacity:1;stop-color:#2c3966"
         offset="0"
         id="stop84" /><stop
         style="stop-opacity:1;stop-color:#0061a8"
         offset="0.20751882"
         id="stop86" /><stop
         style="stop-opacity:1;stop-color:#0061a8"
         offset="0.5"
         id="stop88" /><stop
         style="stop-opacity:1;stop-color:#0061a8"
         offset="0.79248118"
         id="stop90" /><stop
         style="stop-opacity:1;stop-color:#008dc7"
         offset="1"
         id="stop92" /></linearGradient><linearGradient
       x1="0"
       y1="0"
       x2="1"
       y2="0"
       gradientUnits="userSpaceOnUse"
       gradientTransform="matrix(0.001407,418.39069,-418.39069,0.001407,515.34155,408.5752)"
       spreadMethod="pad"
       id="linearGradient120"><stop
         style="stop-opacity:1;stop-color:#2c3966"
         offset="0"
         id="stop110" /><stop
         style="stop-opacity:1;stop-color:#2c3966"
         offset="0.36407048"
         id="stop112" /><stop
         style="stop-opacity:1;stop-color:#0061a8"
         offset="0.75"
         id="stop114" /><stop
         style="stop-opacity:1;stop-color:#0061a8"
         offset="0.89624059"
         id="stop116" /><stop
         style="stop-opacity:1;stop-color:#008dc7"
         offset="1"
         id="stop118" /></linearGradient><linearGradient
       x1="0"
       y1="0"
       x2="1"
       y2="0"
       gradientUnits="userSpaceOnUse"
       gradientTransform="matrix(799.61377,140.99066,-140.99066,799.61377,-89.578644,732.44189)"
       spreadMethod="pad"
       id="linearGradient144"><stop
         style="stop-opacity:1;stop-color:#2c3966"
         offset="0"
         id="stop136" /><stop
         style="stop-opacity:1;stop-color:#0061a8"
         offset="0.10375941"
         id="stop138" /><stop
         style="stop-opacity:1;stop-color:#0061a8"
         offset="0.25"
         id="stop140" /><stop
         style="stop-opacity:1;stop-color:#008dc7"
         offset="1"
         id="stop142" /></linearGradient><clipPath
       clipPathUnits="userSpaceOnUse"
       id="clipPath154"><path
         d="M 0,1080 H 1920 V 0 H 0 Z"
         id="path152" /></clipPath></defs><sodipodi:namedview
     id="namedview4"
     pagecolor="#ffffff"
     bordercolor="#666666"
     borderopacity="1.0"
     inkscape:pageshadow="2"
     inkscape:pageopacity="0.0"
     inkscape:pagecheckerboard="0" /><g
     id="g8"
     inkscape:groupmode="layer"
     inkscape:label="Derasat logo"
     transform="matrix(1.3333333,0,0,-1.3333333,0,1440)"><g
       id="g10"><g
         id="g12"
         clip-path="url(#clipPath16)"><g
           id="g18"
           transform="translate(828.2853,420.5353)"><path
             d="M 0,0 H -55.735 V 149.821 H 0 c 45.109,0 67.696,-23.442 67.696,-70.224 C 67.696,26.547 45.109,0 0,0 M 1.172,160.594 H -68.326 V -10.751 H 1.172 c 53.551,0 80.287,30.133 80.287,90.348 0,54 -26.736,80.997 -80.287,80.997"
             style="fill:#5d5e65;fill-opacity:1;fill-rule:nonzero;stroke:none"
             id="path20" /></g><g
           id="g22"
           transform="translate(940.1139,491.2833)"><path
             d="M 0,0 H 95.919 V 10.799 H 0 V 79.073 H 99.909 V 89.846 H -12.577 V -81.499 h 114.208 v 10.751 L 0,-70.748 Z"
             style="fill:#5d5e65;fill-opacity:1;fill-rule:nonzero;stroke:none"
             id="path24" /></g><g
           id="g26"
           transform="translate(1177.5059,540.0396)"><path
             d="m 0,0 c 0,27.393 -15.553,41.089 -46.558,41.089 h -70.682 v -171.344 h 12.591 V 29.922 h 56.064 c 22.996,0 34.506,-10.274 34.506,-30.872 0,-22.389 -17.583,-36.163 -52.707,-41.378 v -8.481 l 56.907,-79.446 h 17.24 l -57.853,79.812 C -16.885,-40.567 0,-23.733 0,0"
             style="fill:#5d5e65;fill-opacity:1;fill-rule:nonzero;stroke:none"
             id="path28" /></g><g
           id="g30"
           transform="translate(1279.0746,581.1289)"><path
             d="m 0,0 -77.532,-171.344 h 13.368 l 70.84,161.521 41.196,-93.245 h -64.294 l -3.753,-10.745 h 72.908 l 25.103,-57.531 H 92.85 L 14.95,0 Z"
             style="fill:#5d5e65;fill-opacity:1;fill-rule:nonzero;stroke:none"
             id="path32" /></g><g
           id="g34"
           transform="translate(1467.9493,502.0826)"><path
             d="m 0,0 h -37.576 c -23.521,0 -35.255,9.93 -35.255,29.949 0,26.341 18.792,39.537 56.301,39.537 19.178,0 37.77,-2.424 55.747,-7.192 v 10.772 c -17.977,4.769 -36.569,7.219 -55.747,7.219 -45.87,0 -68.854,-16.805 -68.854,-50.336 0,-27.976 15.883,-41.962 47.808,-41.962 H 0 c 23.349,0 35.018,-9.562 35.018,-28.763 0,-27.973 -17.583,-41.932 -52.616,-41.932 -21.624,0 -41.446,2.817 -59.451,8.374 v -11.985 c 18.005,-4.791 37.827,-7.188 59.451,-7.188 43.478,0 65.206,17.593 65.206,52.731 C 47.608,-13.616 31.779,0 0,0"
             style="fill:#5d5e65;fill-opacity:1;fill-rule:nonzero;stroke:none"
             id="path36" /></g><g
           id="g38"
           transform="translate(1592.6423,581.1289)"><path
             d="m 0,0 -77.506,-171.344 h 13.434 L 6.72,-9.823 47.964,-103.068 H -16.41 l -3.698,-10.745 h 72.831 l 25.169,-57.531 H 92.891 L 15.001,0 Z"
             style="fill:#5d5e65;fill-opacity:1;fill-rule:nonzero;stroke:none"
             id="path40" /></g><g
           id="g42"
           transform="translate(1668.2264,581.1289)"><path
             d="m 0,0 v -10.772 h 57.503 v -160.572 h 12.548 v 160.572 h 58.752 V 0 Z"
             style="fill:#5d5e65;fill-opacity:1;fill-rule:nonzero;stroke:none"
             id="path44" /></g><path
           d="m 1599.781,825.937 h -12.683 V 664.734 h 12.683 z"
           style="fill:#807e85;fill-opacity:1;fill-rule:nonzero;stroke:none"
           id="path46" /><g
           id="g48"
           transform="translate(881.2307,775.5209)"><path
             d="m 0,0 h -45.648 l -3.36,-19.465 h 45.675 z"
             style="fill:#807e85;fill-opacity:1;fill-rule:nonzero;stroke:none"
             id="path50" /></g><g
           id="g52"
           transform="translate(945.1186,775.5209)"><path
             d="m 0,0 h -45.621 l -3.32,-19.465 H -3.32 Z"
             style="fill:#807e85;fill-opacity:1;fill-rule:nonzero;stroke:none"
             id="path54" /></g><g
           id="g56"
           transform="translate(1717.182,805.2065)"><path
             d="m 0,0 h -35.958 l -0.128,-12.512 h 34.939 c 40.921,0 67.657,-10.72 67.657,-58.634 0,-53.418 -27.344,-67.906 -68.314,-67.906 h -34.062 l -0.092,-12.615 H 0 c 59.515,0 80.272,22.916 80.272,80.521 C 80.272,-21.072 57.725,1.713 0,0"
             style="fill:#807e85;fill-opacity:1;fill-rule:nonzero;stroke:none"
             id="path58" /></g><g
           id="g60"
           transform="translate(1544.3744,746.2838)"><path
             d="m 0,0 v 19.965 l -12.645,0.081 v -3.109 c -1.119,-41.434 7.073,-92.033 -32.369,-96.273 -1.408,-0.159 -8.179,-0.265 -9.721,-0.289 -2.147,-0.055 -9.429,0 -11.364,0.13 -44.37,3.135 -40.132,53.234 -40.132,96.432 v 3.212 l -12.736,0.028 v -0.131 h -0.512 v -3.109 c 0,-7.77 0.207,-15.646 0.366,-23.443 -0.159,-8.035 -0.287,-15.7 -0.074,-22.969 -1.189,-26.156 -7.339,-47.124 -32.636,-49.861 -1.439,-0.159 -8.181,-0.265 -9.748,-0.289 -2.107,-0.055 -9.391,0 -11.311,0.13 -31.756,2.238 -38.616,28.42 -39.976,58.95 0,6.558 -0.089,13.434 -0.194,20.545 v 11.747 c 0,1.74 0.026,3.504 0.026,5.19 v 3.212 l -12.776,0.028 v -9.984 c -0.871,-42.961 0.604,-88.847 -40.433,-89.794 -0.476,0 -81.445,-0.024 -92.309,-0.024 h -0.186 c -5.572,0 -84.973,0.024 -85.461,0.024 -43.054,0.343 -42.381,36.455 -43.263,80.786 V 80.128 L -500.02,79.915 V 0 c -0.142,-53.63 1.399,-93.351 56.131,-93.351 0.396,0 73.833,-0.024 84.134,-0.024 h 0.606 0.605 c 10.825,0 91.611,0.024 91.979,0.024 26.644,0.027 40.262,9.589 47.084,25.604 6.825,-14.908 20.308,-24.233 46.622,-25.498 1.897,-0.079 9.204,-0.106 11.288,-0.13 1.29,0 7.811,0.024 9.061,0.051 23.035,0.79 34.836,9.509 40.774,23.679 7.1,-13.749 20.506,-22.362 45.673,-23.6 1.963,-0.079 9.222,-0.106 11.328,-0.13 1.306,0 7.824,0.024 9.033,0.051 C 4.729,-91.559 0,-51.443 0,0"
             style="fill:#807e85;fill-opacity:1;fill-rule:nonzero;stroke:none"
             id="path62" /></g><g
           id="g64"
           transform="translate(1017.0004,752.21)"><path
             d="m 0,0 -12.773,-0.079 v -4.663 c 0,-41.247 2.551,-79.995 -40.382,-80.785 h -56.328 -94.391 c -41.433,0 -40.576,36.217 -40.576,80.785 v 4.399 l -12.592,0.054 v -5.637 c 0,-53.13 0.727,-92.771 53.499,-93.351 h 12.181 v -0.025 c 0.131,0 19.599,0 43.804,0.025 38.075,-0.025 81.669,-0.025 81.88,-0.025 v 0.025 h 12.076 C 2.07,-99.277 0.542,-58.791 0,-5.926 Z"
             style="fill:#807e85;fill-opacity:1;fill-rule:nonzero;stroke:none"
             id="path66" /></g><g
           id="g68"
           transform="translate(1642.9243,689.705)"><path
             d="m 0,0 c 0,-43.489 -18.605,-69.301 -67.906,-67.669 -16.409,0.5 -30.286,2.161 -41.64,6.48 -2.19,-2.239 -5.797,-7.163 -8.905,-11.194 13.447,-6.059 30.294,-9.062 50.545,-9.062 55.872,0 81.001,26.737 81.001,80.232 V 76.544 L 0,76.544 Z"
             style="fill:#807e85;fill-opacity:1;fill-rule:nonzero;stroke:none"
             id="path70" /></g></g></g><g
       id="g72"><g
         id="g74"><g
           id="g80"><g
             id="g82"><path
               d="m 219.876,461.179 c 0.052,-0.346 0.094,-0.662 0.106,-0.977 v 0 c 0.158,-0.529 3.175,-10.326 3.411,-11.142 v 0 c 0.119,-0.133 0.159,-0.237 0.225,-0.393 v 0 c 0.289,-0.715 0.619,-1.506 1.014,-2.27 v 0 c 0,0 0.103,-0.261 0.13,-0.419 v 0 c 0.829,-1.792 1.806,-3.505 2.832,-5.24 v 0 -0.031 c 6.624,-11.085 16.437,-20.044 28.078,-25.55 v 0 l 0.027,-0.051 c 0.856,-0.368 1.66,-0.739 2.477,-1.104 v 0 c 0,0 0.225,-0.107 0.276,-0.187 v 0 c 0.883,-0.291 1.699,-0.656 2.607,-0.894 v 0 c 0,0 0.039,-0.054 0.158,-0.107 v 0 c 0.844,-0.286 1.7,-0.607 2.517,-0.816 v 0 c 0.131,-0.108 0.196,-0.108 0.342,-0.108 v 0 c 0.868,-0.314 1.634,-0.497 2.45,-0.71 v 0 c 0.17,-0.048 0.34,-0.079 0.486,-0.128 v 0 c 0.673,-0.237 1.462,-0.37 2.252,-0.529 v 0 c 0.173,-0.028 0.422,-0.155 0.659,-0.133 v 0 c 0.685,-0.182 1.41,-0.292 2.109,-0.368 v 0 c 0.3,-0.104 0.631,-0.238 0.92,-0.21 v 0 c 0.645,-0.132 1.278,-0.186 1.937,-0.289 v 0 c 0.408,-0.025 0.686,-0.055 1.079,-0.104 v 0 c 0.593,-0.028 1.172,-0.054 1.843,-0.133 v 0 c 0.371,0 0.777,-0.053 1.199,-0.079 v 0 c 0.553,-0.053 1.145,-0.053 1.649,-0.053 v 0 c 0.498,-0.055 1.026,-0.055 1.459,-0.081 v 0 l 0.028,-0.025 74.608,-0.132 -15.857,75.939 -12.05,0.133 h -0.066 c -0.329,-0.08 -0.671,-0.08 -0.923,0 v 0 c -0.382,0 -0.75,-0.026 -1.117,-0.026 v 0 c -0.331,0.026 -0.568,0.08 -0.872,0.08 v 0 c -0.408,0.025 -0.803,0.079 -1.238,0.105 v 0 c -0.196,0.053 -0.421,0.076 -0.682,0.132 v 0 c -0.502,0 -0.856,0.079 -1.358,0.157 v 0 c -0.16,0 -0.355,0.05 -0.58,0.078 v 0 c -0.448,0.133 -0.922,0.159 -1.395,0.292 v 0 c -0.133,0.079 -0.316,0.079 -0.489,0.105 v 0 c -0.486,0.132 -1.065,0.211 -1.514,0.368 v 0 c 0,0 -0.183,0.025 -0.305,0.05 v 0 c -0.539,0.188 -1.103,0.315 -1.644,0.474 v 0 c -0.119,0 -0.119,0 -0.237,0.03 v 0 c -0.54,0.207 -1.132,0.445 -1.633,0.578 v 0 c -0.079,0.053 -0.131,0.077 -0.131,0.077 v 0 c -0.606,0.189 -1.199,0.475 -1.831,0.74 v 0 c -0.053,-0.053 -0.053,-0.053 -0.132,0 v 0 c -0.529,0.207 -1.08,0.528 -1.658,0.711 v 0 c 0,0 -0.043,-0.025 -0.079,0 v 0 c -13.737,5.586 -19.875,18.12 -20.707,20.809 v 0 c -0.091,0.079 -0.605,1.342 -0.801,1.763 v 0 c -0.027,0.134 -0.738,2.002 -0.738,2.002 v 0 c -0.264,0.608 -2.396,10.878 -2.396,11.985 v 0 l -63.917,305.26 0.265,-0.026 -16.886,80.942 -16.95,2.583 -65.6,9.902 c 0,0 96.524,-462.27 96.643,-462.98"
               style="fill:url(#linearGradient94);stroke:none"
               id="path96" /></g></g></g></g><g
       id="g98"><g
         id="g100"><g
           id="g106"><g
             id="g108"><path
               d="m 598.572,524.92 c 0.026,-0.37 0.026,-0.684 0.093,-1.027 v 0 c -0.067,-0.367 -0.027,-0.685 -0.027,-1.055 v 0 c 0,-0.368 0,-0.607 -0.04,-0.924 v 0 c 0,-0.368 0.04,-0.786 -0.04,-1.129 v 0 c 0.014,-0.292 0.014,-0.527 -0.039,-0.897 v 0 c -0.026,-0.34 -0.067,-0.764 -0.092,-1.184 v 0 c -0.067,-0.186 -0.04,-0.552 -0.157,-0.764 v 0 c 0,-0.421 0,-0.821 -0.12,-1.16 v 0 c 0,-0.318 -0.118,-0.632 -0.118,-0.949 v 0 c -0.093,-0.314 -0.144,-0.711 -0.223,-1.055 v 0 c -0.027,-0.286 -0.121,-0.655 -0.186,-0.946 v 0 c -0.106,-0.291 -0.197,-0.631 -0.224,-0.974 v 0 c -0.079,-0.212 -0.185,-0.557 -0.264,-0.843 v 0 c -0.157,-0.368 -0.21,-0.66 -0.329,-0.977 v 0 c -0.066,-0.291 -0.105,-0.552 -0.21,-0.867 v 0 c -0.184,-0.342 -0.262,-0.656 -0.356,-0.978 v 0 c -0.131,-0.261 -0.237,-0.601 -0.381,-0.867 v 0 c -0.133,-0.316 -0.225,-0.631 -0.357,-0.948 v 0 c -0.17,-0.317 -0.303,-0.606 -0.486,-0.923 v 0 c -0.106,-0.261 -0.173,-0.472 -0.329,-0.812 v 0 c -0.212,-0.346 -0.356,-0.634 -0.554,-0.98 v 0 c -0.106,-0.207 -0.21,-0.498 -0.355,-0.71 v 0 c -0.197,-0.369 -0.408,-0.654 -0.552,-1.025 v 0 c -0.159,-0.238 -0.292,-0.425 -0.437,-0.605 v 0 c -0.183,-0.343 -0.38,-0.711 -0.672,-1.028 v 0 c -0.105,-0.213 -0.196,-0.371 -0.379,-0.583 v 0 c -0.212,-0.394 -0.568,-0.734 -0.777,-1.158 v 0 c -0.16,-0.104 -0.212,-0.207 -0.278,-0.365 v 0 c -0.342,-0.346 -0.659,-0.764 -0.961,-1.11 v 0 c 0,0 0,-0.025 -0.027,-0.051 v 0 c 0,0 -0.158,-0.186 -0.237,-0.314 v 0 c -0.396,-0.424 -0.764,-0.79 -1.173,-1.188 v 0 l -0.092,-0.16 c -0.855,-0.894 -1.791,-1.791 -2.726,-2.604 v 0 c 0,0 -0.039,-0.053 -0.079,0 v 0 c -6.676,-5.743 -15.449,-9.169 -25.272,-9.222 v 0 l -109.498,0.238 -97.461,0.079 c 5.652,-26.974 11.051,-52.81 15.859,-75.939 v 0 l 88.346,-0.08 162.887,-0.26 c 6.442,-0.031 12.539,0.971 18.255,2.842 v 0 c 0.526,0.186 1.107,0.314 1.645,0.526 v 0 c 0.567,0.187 1.096,0.424 1.635,0.631 v 0 c 5.939,2.321 11.352,5.586 16.08,9.642 v 0 l 0.117,0.028 c 1.384,1.24 2.714,2.503 3.98,3.791 v 0 c 0.051,0.107 0.13,0.186 0.209,0.24 v 0 c 0.606,0.631 1.172,1.209 1.646,1.817 v 0 c 0.132,0.212 0.29,0.34 0.357,0.473 v 0 c 0.499,0.53 0.976,1.161 1.475,1.818 v 0 c 0.104,0.107 0.289,0.314 0.356,0.472 v 0 c 0.434,0.557 0.908,1.135 1.29,1.688 v 0 c 0.249,0.344 0.395,0.658 0.528,0.922 v 0 c 0.355,0.499 0.735,0.977 1.039,1.5 v 0 c 0.196,0.289 0.382,0.606 0.618,0.898 v 0 c 0.237,0.472 0.541,1.001 0.844,1.579 v 0 c 0.159,0.267 0.395,0.631 0.528,1 v 0 c 0.249,0.498 0.514,0.948 0.789,1.398 v 0 c 0.158,0.447 0.383,0.922 0.54,1.262 v 0 c 0.25,0.504 0.475,0.946 0.644,1.424 v 0 c 0.212,0.502 0.395,0.895 0.553,1.345 v 0 c 0.237,0.447 0.422,0.843 0.582,1.316 v 0 c 0.158,0.498 0.316,0.948 0.498,1.45 v 0 c 0.146,0.444 0.265,0.868 0.371,1.233 v 0 c 0.158,0.504 0.34,0.952 0.473,1.396 v 0 c 0.039,0.45 0.237,0.954 0.37,1.399 v 0 c 0.104,0.447 0.223,0.95 0.341,1.474 v 0 c 0.066,0.447 0.199,0.872 0.304,1.396 v 0 c 0.133,0.473 0.223,1.002 0.263,1.554 v 0 c 0.091,0.424 0.185,0.898 0.303,1.347 v 0 c 0.079,0.578 0.119,1.13 0.185,1.71 v 0 c 0.064,0.396 0.131,0.815 0.131,1.289 v 0 c 0.171,0.554 0.171,1.106 0.21,1.664 v 0 c 0,0.418 0.027,0.838 0.054,1.342 v 0 c 0,0.526 0.024,1.078 0.037,1.656 v 0 c -0.037,0.45 0.027,0.868 0,1.318 v 0 c 0.027,0.553 -0.013,1.135 0.027,1.582 v 0 c -0.027,0.499 -0.04,1.028 -0.04,1.58 v 0 l -13.194,260.453 -76.624,11.563 z"
               style="fill:url(#linearGradient120);stroke:none"
               id="path122" /></g></g></g></g><g
       id="g124"><g
         id="g126"><g
           id="g132"><g
             id="g134"><path
               d="m 234.916,830.732 52.142,-7.823 257.911,-38.722 c 0.039,0.054 0.079,0.027 0.079,0.027 v 0 c 0.289,-0.027 0.608,-0.027 0.948,-0.051 v 0 c 0.344,0.024 0.673,0.024 1.068,0 v 0 c 0.262,-0.028 0.591,-0.055 0.816,-0.106 v 0 c 0.526,0 0.895,0 1.25,-0.08 v 0 c 0.251,-0.055 0.54,-0.106 0.75,-0.133 v 0 c 0.422,0 0.884,-0.052 1.294,-0.104 v 0 c 0.221,-0.079 0.431,-0.079 0.656,-0.158 v 0 c 0.461,-0.027 0.882,-0.132 1.396,-0.238 v 0 c 0.146,-0.026 0.33,-0.052 0.489,-0.104 v 0 c 0.5,-0.133 1.026,-0.212 1.474,-0.37 v 0 c 0.143,-0.025 0.237,-0.052 0.329,-0.025 v 0 c 0.568,-0.237 1.068,-0.264 1.568,-0.477 v 0 c 0.183,-0.024 0.262,-0.13 0.368,-0.183 v 0 c 0.541,-0.104 1.066,-0.289 1.527,-0.475 v 0 c 0.106,-0.024 0.173,-0.024 0.237,0 v 0 c 0.568,-0.262 1.12,-0.474 1.712,-0.711 v 0 l 0.134,-0.103 c 0.618,-0.186 1.132,-0.448 1.683,-0.764 v 0 c 0,0.051 0.082,0.024 0.082,0.024 v 0 c 0.552,-0.289 1.157,-0.578 1.791,-0.868 v 0 l 0.037,-0.028 c 1.121,-0.682 2.24,-1.289 3.36,-2.079 v 0 c 1.108,-0.631 2.158,-1.422 3.267,-2.292 v 0 c 2.027,-1.632 3.975,-3.503 5.689,-5.478 v 0 -0.079 c 1.777,-1.924 3.359,-4.11 4.701,-6.35 v 0 c 0.054,-0.103 0.054,-0.183 0.157,-0.262 v 0 c 0.62,-1.08 1.175,-2.16 1.687,-3.265 v 0 c 0.068,-0.185 0.132,-0.344 0.264,-0.449 v 0 c 0.118,-0.5 0.368,-0.896 0.553,-1.449 v 0 c 0.065,-0.104 0.119,-0.184 0.171,-0.316 v 0 c 0.184,-0.475 0.396,-1 0.579,-1.553 v 0 c 0.054,-0.158 0.091,-0.291 0.158,-0.476 v 0 c 0.145,-0.525 0.382,-0.974 0.528,-1.422 v 0 c 0,0 0.066,-0.235 0.066,-0.394 v 0 c 0.183,-0.449 0.301,-0.923 0.419,-1.423 v 0 l 77.481,-11.694 -2.714,53.706 c -0.116,1.396 -0.237,2.82 -0.38,4.189 v 0 c -0.198,1.687 -0.448,3.372 -0.829,4.954 v 0 c -0.106,0.683 -0.29,1.42 -0.449,2.106 v 0 c -0.066,0.288 -0.079,0.658 -0.197,0.868 v 0 c -0.211,0.817 -0.434,1.581 -0.67,2.372 v 0 c -0.028,0.156 -0.08,0.315 -0.159,0.527 v 0 c -0.212,0.737 -0.425,1.421 -0.673,2.079 v 0 c -0.067,0.237 -0.197,0.528 -0.276,0.764 v 0 c -0.277,0.79 -0.632,1.581 -0.908,2.345 v 0 c -0.093,0.132 -0.093,0.291 -0.133,0.501 v 0 c -0.277,0.685 -0.684,1.368 -0.936,2.055 v 0 c -0.13,0.212 -0.249,0.421 -0.327,0.63 v 0 c -0.738,1.688 -1.648,3.294 -2.555,4.875 v 0 c -0.119,0.13 -0.213,0.262 -0.213,0.422 v 0 c -2.028,3.37 -4.345,6.556 -6.915,9.482 v 0 c 0,0 -0.103,0.052 -0.024,0.131 v 0 c -2.622,2.95 -5.493,5.664 -8.508,8.112 v 0 h -0.079 c -1.594,1.265 -3.202,2.424 -4.821,3.53 v 0 c -1.66,1.054 -3.317,2.002 -5.057,2.951 v 0 c 0,0 -0.027,0 -0.078,0.052 v 0 c -0.872,0.447 -1.727,0.843 -2.609,1.344 v 0 l -0.066,-0.027 c -0.804,0.343 -1.66,0.763 -2.527,1.159 v 0 l -0.198,0.132 c -0.882,0.264 -1.66,0.606 -2.529,0.974 v 0 c -0.16,-0.027 -0.185,0 -0.252,0.053 v 0 c -0.776,0.263 -1.593,0.527 -2.355,0.79 v 0 c -0.185,0.027 -0.279,0.132 -0.501,0.159 v 0 c -0.816,0.288 -1.608,0.473 -2.413,0.71 v 0 c -0.104,0.027 -0.327,0.107 -0.472,0.107 v 0 c -0.699,0.157 -1.449,0.366 -2.198,0.499 v 0 c -0.266,0.052 -0.502,0.132 -0.765,0.238 v 0 c -0.659,0.051 -1.37,0.236 -2.041,0.343 v 0 c -0.316,0 -0.646,0.103 -0.963,0.158 v 0 c -0.631,0.078 -1.236,0.158 -1.896,0.21 v 0 c -0.435,0.051 -0.764,0.079 -1.132,0.133 v 0 c -0.592,0.079 -1.212,0.103 -1.791,0.156 v 0 c -0.434,0.054 -0.896,0.106 -1.291,0.106 v 0 c -0.527,0 -1.04,0.053 -1.631,0.077 v 0 c -0.411,-0.024 -0.936,0.028 -1.424,0.028 v 0 h -0.079 l -379.656,57.395 c 5.267,-25.34 11.024,-52.863 16.869,-80.942"
               style="fill:url(#linearGradient144);stroke:none"
               id="path146" /></g></g></g></g><g
       id="g148"><g
         id="g150"
         clip-path="url(#clipPath154)"><g
           id="g156"
           transform="translate(142.7508,278.2133)"><path
             d="m 0,0 c 0,-1.948 -1.672,-3.607 -3.606,-3.607 -1.951,0 -3.544,1.659 -3.544,3.607 0,1.925 1.593,3.532 3.544,3.532 C -1.672,3.532 0,1.925 0,0 m -9.309,0 c 0,-1.948 -1.633,-3.607 -3.649,-3.607 -1.936,0 -3.596,1.659 -3.596,3.607 0,1.925 1.66,3.532 3.596,3.532 2.016,0 3.649,-1.607 3.649,-3.532 m 6.058,-15.116 h -7.1 c -2.659,0 -4.622,-0.898 -5.664,-2.712 -0.894,-1.452 -1.368,-3.929 -1.368,-7.351 0,-3.372 0.474,-5.872 1.368,-7.403 1.042,-1.868 3.005,-2.765 5.664,-2.765 2.714,0 4.663,0.897 5.689,2.765 0.923,1.531 1.411,4.031 1.411,7.403 z M 14.265,-41.037 H 9.761 c -5.402,0 -8.862,1.608 -10.313,4.849 -1.607,-3.241 -5.005,-4.849 -10.194,-4.849 -8.81,0 -13.236,5.268 -13.236,15.858 0,10.27 4.426,15.407 13.236,15.407 H 3.32 v -18.515 c 0,-4.714 2.304,-7.06 6.797,-7.06 h 4.148 z"
             style="fill:#5d5e65;fill-opacity:1;fill-rule:nonzero;stroke:none"
             id="path158" /></g><path
           d="m 168.145,237.176 h -12.816 v 5.823 h 12.816 z"
           style="fill:#5d5e65;fill-opacity:1;fill-rule:nonzero;stroke:none"
           id="path160" /><path
           d="m 179.312,237.176 h -12.827 v 5.823 h 12.827 z"
           style="fill:#5d5e65;fill-opacity:1;fill-rule:nonzero;stroke:none"
           id="path162" /><path
           d="m 190.442,237.176 h -12.816 v 5.823 h 12.816 z"
           style="fill:#5d5e65;fill-opacity:1;fill-rule:nonzero;stroke:none"
           id="path164" /><g
           id="g166"
           transform="translate(215.2537,278.2133)"><path
             d="m 0,0 c 0,-1.948 -1.686,-3.607 -3.543,-3.607 -1.936,0 -3.582,1.659 -3.582,3.607 0,1.925 1.646,3.532 3.582,3.532 C -1.686,3.532 0,1.925 0,0 m -0.5,-19.753 c 0,3.66 -2.424,5.452 -7.338,5.452 -4.634,0 -6.912,-1.792 -6.912,-5.452 0,-2.449 0.356,-3.898 1.041,-4.504 0.671,-0.554 2.423,-0.815 5.188,-0.815 H -0.5 Z M -9.286,0 c 0,-1.948 -1.672,-3.607 -3.687,-3.607 -1.922,0 -3.516,1.659 -3.516,3.607 0,1.925 1.594,3.532 3.516,3.532 2.015,0 3.687,-1.607 3.687,-3.532 M 6.085,-30.159 c 0,-4.079 -1.239,-7.006 -3.648,-8.718 -1.964,-1.449 -5.017,-2.16 -9.153,-2.16 h -19.756 v 5.823 h 18.938 c 2.411,0 4.058,0.133 4.821,0.393 1.462,0.662 2.213,2.027 2.213,4.19 h -9.324 c -4.44,0 -7.482,0.976 -9.245,2.975 -1.438,1.661 -2.215,4.345 -2.215,8.084 0,6.746 5.137,11.122 13.446,11.122 4.638,0 8.26,-1.189 10.669,-3.533 2.161,-2.027 3.254,-4.504 3.254,-7.589 z"
             style="fill:#5d5e65;fill-opacity:1;fill-rule:nonzero;stroke:none"
             id="path168" /></g><g
           id="g170"
           transform="translate(243.6485,237.1764)"><path
             d="m 0,0 h -7.361 c -5.888,0 -9.142,3.611 -9.142,8.931 v 33.69 L -9.905,44.7 V 9.166 c 0,-2.239 1.106,-3.343 3.386,-3.343 l 6.519,0 z"
             style="fill:#5d5e65;fill-opacity:1;fill-rule:nonzero;stroke:none"
             id="path172" /></g><path
           d="m 254.7,237.176 h -12.815 v 5.823 H 254.7 Z"
           style="fill:#5d5e65;fill-opacity:1;fill-rule:nonzero;stroke:none"
           id="path174" /><path
           d="M 265.853,237.176 H 253.04 v 5.823 h 12.813 z"
           style="fill:#5d5e65;fill-opacity:1;fill-rule:nonzero;stroke:none"
           id="path176" /><path
           d="m 277.01,237.176 h -12.827 v 5.823 h 12.827 z"
           style="fill:#5d5e65;fill-opacity:1;fill-rule:nonzero;stroke:none"
           id="path178" /><g
           id="g180"
           transform="translate(320.719,242.999)"><path
             d="m 0,0 c 0.212,1.056 0.279,2.081 0.279,3.108 0,4.371 -0.897,8.116 -2.713,11.382 -2.083,2.84 -5.032,4.419 -8.997,4.631 -4.635,0.213 -8.942,-2.08 -12.893,-6.714 C -27.721,8.614 -29.88,4.424 -30.815,0 Z M 13.316,-5.823 H -45.658 V 0 h 8.533 v 35.61 l 6.559,2.004 V 13.933 c 4.438,7.272 10.745,10.957 18.873,11.144 C -5.002,25.284 0.066,22.6 3.387,17.12 5.757,13.378 6.799,7.691 6.52,0 h 6.796 z"
             style="fill:#5d5e65;fill-opacity:1;fill-rule:nonzero;stroke:none"
             id="path182" /></g><g
           id="g184"
           transform="translate(349.7862,249.4503)"><path
             d="m 0,0 c 0,-3.555 -1.172,-6.451 -3.516,-8.795 -2.355,-2.296 -5.53,-3.479 -9.483,-3.479 h -4.437 v 5.823 h 4.082 c 4.505,0 6.784,2.372 6.784,7.085 V 30.348 L 0,32.295 Z"
             style="fill:#5d5e65;fill-opacity:1;fill-rule:nonzero;stroke:none"
             id="path186" /></g><g
           id="g188"
           transform="translate(362.2723,237.1764)"><path
             d="M 0,0 H -6.598 V 42.621 L 0,44.7 Z"
             style="fill:#5d5e65;fill-opacity:1;fill-rule:nonzero;stroke:none"
             id="path190" /></g><g
           id="g192"
           transform="translate(388.5737,251.7457)"><path
             d="m 0,0 c 0,6.556 -2.28,9.848 -6.914,9.848 -4.662,0 -7.009,-3.292 -7.009,-9.848 0,-6.533 2.347,-9.774 7.009,-9.774 C -2.28,-9.774 0,-6.533 0,0 M 6.256,-11.855 C 6.19,-16.65 5.017,-20.39 2.568,-23.155 0,-26.291 -3.728,-27.871 -8.666,-27.871 c -3.451,0 -6.164,0.631 -8.1,1.817 l -2.924,6.35 c 3.964,-1.872 7.626,-2.607 11.024,-2.424 5.003,0.292 7.77,3.055 8.324,8.269 -2.004,-1.104 -4.163,-1.659 -6.572,-1.659 -4.794,0 -8.404,1.659 -10.694,4.979 -1.857,2.689 -2.846,6.163 -2.846,10.539 0,4.345 0.989,7.898 2.846,10.587 2.29,3.266 5.9,4.925 10.694,4.925 5.267,0 9.009,-1.871 11.167,-5.664 1.515,-2.873 2.279,-6.952 2.279,-12.276 0,-1.311 0,-3.052 -0.079,-5.056 -0.145,-2.237 -0.197,-3.686 -0.197,-4.371"
             style="fill:#5d5e65;fill-opacity:1;fill-rule:nonzero;stroke:none"
             id="path194" /></g><g
           id="g196"
           transform="translate(435.4974,278.2133)"><path
             d="m 0,0 c 0,-1.948 -1.658,-3.607 -3.607,-3.607 -1.949,0 -3.544,1.659 -3.544,3.607 0,1.925 1.595,3.532 3.544,3.532 C -1.658,3.532 0,1.925 0,0 m -9.282,0 c 0,-1.948 -1.676,-3.607 -3.691,-3.607 -1.949,0 -3.567,1.659 -3.567,3.607 0,1.925 1.618,3.532 3.567,3.532 2.015,0 3.691,-1.607 3.691,-3.532 m 6.017,-15.116 h -7.059 c -2.713,0 -4.635,-0.898 -5.663,-2.712 -0.922,-1.452 -1.396,-3.929 -1.396,-7.351 0,-3.372 0.474,-5.872 1.396,-7.403 1.028,-1.868 2.95,-2.765 5.663,-2.765 2.699,0 4.635,0.897 5.677,2.765 0.908,1.531 1.382,4.031 1.382,7.403 z M 14.251,-41.037 H 9.774 c -5.401,0 -8.876,1.608 -10.326,4.849 -1.594,-3.241 -5.004,-4.849 -10.194,-4.849 -8.783,0 -13.222,5.268 -13.222,15.858 0,10.27 4.439,15.407 13.222,15.407 H 3.333 v -18.515 c 0,-4.714 2.279,-7.06 6.796,-7.06 h 4.122 z"
             style="fill:#5d5e65;fill-opacity:1;fill-rule:nonzero;stroke:none"
             id="path198" /></g><path
           d="m 460.903,237.176 h -12.827 v 5.823 h 12.827 z"
           style="fill:#5d5e65;fill-opacity:1;fill-rule:nonzero;stroke:none"
           id="path200" /><path
           d="m 472.073,237.176 h -12.842 v 5.823 h 12.842 z"
           style="fill:#5d5e65;fill-opacity:1;fill-rule:nonzero;stroke:none"
           id="path202" /><path
           d="M 483.201,237.176 H 470.4 v 5.823 h 12.801 z"
           style="fill:#5d5e65;fill-opacity:1;fill-rule:nonzero;stroke:none"
           id="path204" /><g
           id="g206"
           transform="translate(504.5878,227.4814)"><path
             d="m 0,0 c 0,-1.92 -1.658,-3.607 -3.594,-3.607 -1.924,0 -3.529,1.687 -3.529,3.607 0,1.953 1.605,3.532 3.529,3.532 C -1.658,3.532 0,1.953 0,0 m -9.258,0 c 0,-1.92 -1.673,-3.607 -3.633,-3.607 -1.976,0 -3.519,1.687 -3.519,3.607 0,1.953 1.543,3.532 3.519,3.532 1.96,0 3.633,-1.579 3.633,-3.532 M 5.561,9.695 h -4.15 c -4.11,0 -7.258,1.263 -9.627,3.66 -2.359,-2.397 -5.625,-3.66 -9.865,-3.66 h -4.978 v 5.69 h 4.57 c 4.648,0 6.94,2.346 6.94,7.059 V 39.01 l 6.507,1.95 V 22.235 c 0,-4.558 2.292,-6.85 6.875,-6.85 h 3.728 z"
             style="fill:#5d5e65;fill-opacity:1;fill-rule:nonzero;stroke:none"
             id="path208" /></g><g
           id="g210"
           transform="translate(525.9256,249.4503)"><path
             d="m 0,0 c 0,-3.555 -1.159,-6.451 -3.517,-8.795 -2.358,-2.296 -5.545,-3.479 -9.51,-3.479 h -4.437 v 5.823 h 4.096 c 4.505,0 6.782,2.372 6.782,7.085 V 30.348 L 0,32.295 Z"
             style="fill:#5d5e65;fill-opacity:1;fill-rule:nonzero;stroke:none"
             id="path212" /></g><g
           id="g214"
           transform="translate(552.2514,251.7457)"><path
             d="m 0,0 c 0,6.556 -2.279,9.848 -6.927,9.848 -4.649,0 -6.98,-3.292 -6.98,-9.848 0,-6.533 2.331,-9.774 6.98,-9.774 C -2.279,-9.774 0,-6.533 0,0 M 6.244,-11.855 C 6.165,-16.65 4.993,-20.39 2.543,-23.155 0,-26.291 -3.727,-27.871 -8.638,-27.871 c -3.476,0 -6.205,0.631 -8.139,1.817 l -2.912,6.35 c 3.952,-1.872 7.639,-2.607 11.051,-2.424 4.965,0.292 7.755,3.055 8.283,8.269 -1.989,-1.104 -4.149,-1.659 -6.572,-1.659 -4.78,0 -8.389,1.659 -10.669,4.979 -1.869,2.689 -2.843,6.163 -2.843,10.539 0,4.345 0.974,7.898 2.843,10.587 2.28,3.266 5.889,4.925 10.669,4.925 5.282,0 8.982,-1.871 11.143,-5.664 1.527,-2.873 2.292,-6.952 2.292,-12.276 0,-1.311 0,-3.052 -0.067,-5.056 -0.13,-2.237 -0.197,-3.686 -0.197,-4.371"
             style="fill:#5d5e65;fill-opacity:1;fill-rule:nonzero;stroke:none"
             id="path216" /></g><g
           id="g218"
           transform="translate(601.5736,237.1764)"><path
             d="m 0,0 h -36.954 l 3.965,5.69 h 17.041 v 13.145 c 0,4.529 -2.423,6.794 -7.218,6.794 -3.925,0 -7.058,-2.001 -9.349,-6.004 v 7.482 c 3.12,2.711 6.241,4.084 9.349,4.084 4.097,0 7.351,-1.109 9.918,-3.241 2.569,-2.162 3.832,-5.007 3.832,-8.616 V 5.823 H 0 Z"
             style="fill:#5d5e65;fill-opacity:1;fill-rule:nonzero;stroke:none"
             id="path220" /></g><g
           id="g222"
           transform="translate(617.2715,249.4503)"><path
             d="m 0,0 c 0,-3.555 -1.171,-6.451 -3.54,-8.795 -2.345,-2.296 -5.533,-3.479 -9.482,-3.479 h -4.441 v 5.823 h 4.11 c 4.479,0 6.77,2.372 6.77,7.085 V 30.348 L 0,32.295 Z"
             style="fill:#5d5e65;fill-opacity:1;fill-rule:nonzero;stroke:none"
             id="path224" /></g><g
           id="g226"
           transform="translate(629.7462,237.1764)"><path
             d="M 0,0 H -6.586 V 42.621 L 0,44.7 Z"
             style="fill:#5d5e65;fill-opacity:1;fill-rule:nonzero;stroke:none"
             id="path228" /></g><g
           id="g230"
           transform="translate(656.0604,251.7457)"><path
             d="m 0,0 c 0,6.556 -2.28,9.848 -6.942,9.848 -4.649,0 -6.993,-3.292 -6.993,-9.848 0,-6.533 2.344,-9.774 6.993,-9.774 C -2.28,-9.774 0,-6.533 0,0 M 6.228,-11.855 C 6.15,-16.65 4.978,-20.39 2.541,-23.155 0,-26.291 -3.755,-27.871 -8.666,-27.871 c -3.451,0 -6.165,0.631 -8.086,1.817 l -2.938,6.35 c 3.964,-1.872 7.624,-2.607 11.024,-2.424 5.002,0.292 7.77,3.055 8.322,8.269 -2.014,-1.104 -4.148,-1.659 -6.598,-1.659 -4.781,0 -8.377,1.659 -10.666,4.979 -1.87,2.689 -2.833,6.163 -2.833,10.539 0,4.345 0.963,7.898 2.833,10.587 2.289,3.266 5.885,4.925 10.666,4.925 5.282,0 9.009,-1.871 11.156,-5.664 1.514,-2.873 2.303,-6.952 2.303,-12.276 0,-1.311 0,-3.052 -0.078,-5.056 -0.132,-2.237 -0.211,-3.686 -0.211,-4.371"
             style="fill:#5d5e65;fill-opacity:1;fill-rule:nonzero;stroke:none"
             id="path232" /></g><g
           id="g234"
           transform="translate(702.9712,278.2133)"><path
             d="m 0,0 c 0,-1.948 -1.645,-3.607 -3.594,-3.607 -1.964,0 -3.557,1.659 -3.557,3.607 0,1.925 1.593,3.532 3.557,3.532 C -1.645,3.532 0,1.925 0,0 m -9.312,0 c 0,-1.948 -1.646,-3.607 -3.648,-3.607 -1.949,0 -3.607,1.659 -3.607,3.607 0,1.925 1.658,3.532 3.607,3.532 2.002,0 3.648,-1.607 3.648,-3.532 m 6.058,-15.116 h -7.057 c -2.729,0 -4.662,-0.898 -5.691,-2.712 -0.907,-1.452 -1.396,-3.929 -1.396,-7.351 0,-3.372 0.489,-5.872 1.396,-7.403 1.029,-1.868 2.962,-2.765 5.691,-2.765 2.686,0 4.635,0.897 5.676,2.765 0.896,1.531 1.381,4.031 1.381,7.403 z M 14.264,-41.037 H 9.759 c -5.386,0 -8.863,1.608 -10.311,4.849 -1.581,-3.241 -5.006,-4.849 -10.194,-4.849 -8.81,0 -13.223,5.268 -13.223,15.858 0,10.27 4.413,15.407 13.223,15.407 H 3.333 v -18.515 c 0,-4.714 2.277,-7.06 6.757,-7.06 h 4.174 z"
             style="fill:#5d5e65;fill-opacity:1;fill-rule:nonzero;stroke:none"
             id="path236" /></g><path
           d="m 728.364,237.176 h -12.815 v 5.823 h 12.815 z"
           style="fill:#5d5e65;fill-opacity:1;fill-rule:nonzero;stroke:none"
           id="path238" /><path
           d="m 739.52,237.176 h -12.815 v 5.823 h 12.815 z"
           style="fill:#5d5e65;fill-opacity:1;fill-rule:nonzero;stroke:none"
           id="path240" /><path
           d="m 750.687,237.176 h -12.84 v 5.823 h 12.84 z"
           style="fill:#5d5e65;fill-opacity:1;fill-rule:nonzero;stroke:none"
           id="path242" /><g
           id="g244"
           transform="translate(772.0745,227.4814)"><path
             d="m 0,0 c 0,-1.92 -1.658,-3.607 -3.607,-3.607 -1.936,0 -3.529,1.687 -3.529,3.607 0,1.953 1.593,3.532 3.529,3.532 C -1.658,3.532 0,1.953 0,0 m -9.271,0 c 0,-1.92 -1.66,-3.607 -3.609,-3.607 -2.015,0 -3.542,1.687 -3.542,3.607 0,1.953 1.527,3.532 3.542,3.532 1.949,0 3.609,-1.579 3.609,-3.532 M 5.545,9.695 H 1.411 c -4.123,0 -7.309,1.263 -9.629,3.66 -2.358,-2.397 -5.623,-3.66 -9.849,-3.66 h -5.005 v 5.69 h 4.583 c 4.648,0 6.914,2.346 6.914,7.059 V 39.01 l 6.518,1.95 V 22.235 c 0,-4.558 2.294,-6.85 6.863,-6.85 h 3.739 z"
             style="fill:#5d5e65;fill-opacity:1;fill-rule:nonzero;stroke:none"
             id="path246" /></g><g
           id="g248"
           transform="translate(799.9837,227.4814)"><path
             d="m 0,0 c 0,-1.92 -1.673,-3.607 -3.609,-3.607 -1.924,0 -3.594,1.687 -3.594,3.607 0,1.953 1.67,3.532 3.594,3.532 C -1.673,3.532 0,1.953 0,0 m 22.388,9.695 h -46.425 v 5.69 H 7.085 v 2.504 c 0,5.24 -0.488,9.059 -1.461,11.431 -1.529,3.872 -4.584,5.823 -9.141,5.823 -3.832,0 -7.282,-1.82 -10.536,-5.347 l -4.715,4.37 c 4.65,4.504 9.666,6.794 15.251,6.794 6.993,0 11.839,-2.581 14.538,-7.637 1.886,-3.527 2.78,-8.719 2.78,-15.434 v -2.371 h 8.587 z"
             style="fill:#5d5e65;fill-opacity:1;fill-rule:nonzero;stroke:none"
             id="path250" /></g><path
           d="m 833.528,237.176 h -12.854 v 5.823 h 12.854 z"
           style="fill:#5d5e65;fill-opacity:1;fill-rule:nonzero;stroke:none"
           id="path252" /><path
           d="m 844.643,237.176 h -12.8 v 5.823 h 12.8 z"
           style="fill:#5d5e65;fill-opacity:1;fill-rule:nonzero;stroke:none"
           id="path254" /><g
           id="g256"
           transform="translate(866.0568,227.4814)"><path
             d="m 0,0 c 0,-1.92 -1.645,-3.607 -3.594,-3.607 -1.951,0 -3.556,1.687 -3.556,3.607 0,1.953 1.605,3.532 3.556,3.532 C -1.645,3.532 0,1.953 0,0 m -9.285,0 c 0,-1.92 -1.657,-3.607 -3.606,-3.607 -2.003,0 -3.53,1.687 -3.53,3.607 0,1.953 1.527,3.532 3.53,3.532 1.949,0 3.606,-1.579 3.606,-3.532 M 5.545,9.695 H 1.384 c -4.095,0 -7.269,1.263 -9.613,3.66 -2.358,-2.397 -5.639,-3.66 -9.865,-3.66 h -4.978 v 5.69 h 4.569 c 4.635,0 6.927,2.346 6.927,7.059 V 39.01 l 6.519,1.95 V 22.235 c 0,-4.558 2.291,-6.85 6.876,-6.85 h 3.726 z"
             style="fill:#5d5e65;fill-opacity:1;fill-rule:nonzero;stroke:none"
             id="path258" /></g><g
           id="g260"
           transform="translate(888.7761,278.2133)"><path
             d="m 0,0 c 0,-1.948 -1.605,-3.607 -3.621,-3.607 -1.924,0 -3.584,1.659 -3.584,3.607 0,1.925 1.66,3.532 3.584,3.532 C -1.605,3.532 0,1.925 0,0 m -9.364,0 c 0,-1.948 -1.594,-3.607 -3.53,-3.607 -1.936,0 -3.609,1.659 -3.609,3.607 0,1.925 1.673,3.532 3.609,3.532 1.936,0 3.53,-1.607 3.53,-3.532 m 8.879,-28.763 c 0,-3.555 -1.175,-6.531 -3.544,-8.795 -2.344,-2.296 -5.545,-3.479 -9.496,-3.479 h -5.336 v 5.69 h 4.981 c 4.595,0 6.86,2.346 6.86,7.06 v 16.565 l 6.535,1.95 z"
             style="fill:#5d5e65;fill-opacity:1;fill-rule:nonzero;stroke:none"
             id="path262" /></g><g
           id="g264"
           transform="translate(900.7484,237.1764)"><path
             d="M 0,0 H -6.599 V 42.621 L 0,44.7 Z"
             style="fill:#5d5e65;fill-opacity:1;fill-rule:nonzero;stroke:none"
             id="path266" /></g><g
           id="g268"
           transform="translate(937.4146,237.1764)"><path
             d="m 0,0 h -9.878 c -0.897,-8.031 -6.559,-13.302 -15.488,-13.302 -2.991,0 -5.428,0.632 -7.441,1.897 l -3.095,6.482 c 3.095,-1.713 6.558,-2.635 10.536,-2.635 5.609,0 9.009,3.606 9.009,9.429 v 27.444 l 6.571,1.95 V 5.823 H 0 Z"
             style="fill:#5d5e65;fill-opacity:1;fill-rule:nonzero;stroke:none"
             id="path270" /></g><g
           id="g272"
           transform="translate(958.447,278.2133)"><path
             d="m 0,0 c 0,-1.948 -1.686,-3.607 -3.609,-3.607 -1.87,0 -3.557,1.659 -3.557,3.607 0,1.925 1.687,3.532 3.557,3.532 C -1.686,3.532 0,1.925 0,0 m -9.312,0 c 0,-1.948 -1.658,-3.607 -3.568,-3.607 -2.029,0 -3.544,1.659 -3.544,3.607 0,1.925 1.515,3.532 3.544,3.532 1.91,0 3.568,-1.607 3.568,-3.532 M 5.886,-41.037 h -4.16 c -4.097,0 -7.271,1.263 -9.642,3.66 -2.357,-2.397 -5.598,-3.66 -9.825,-3.66 h -4.991 v 5.69 h 4.571 c 4.647,0 6.914,2.346 6.914,7.06 v 16.565 l 6.505,1.95 v -18.725 c 0,-4.557 2.305,-6.85 6.901,-6.85 h 3.727 z"
             style="fill:#5d5e65;fill-opacity:1;fill-rule:nonzero;stroke:none"
             id="path274" /></g><g
           id="g276"
           transform="translate(1018.1479,249.1103)"><path
             d="m 0,0 c 0,-7.139 -5.056,-11.934 -13.038,-11.934 h -42.331 v 5.823 h 8.182 v 17.542 l 6.569,1.871 V -6.244 h 13.604 v 20.65 l 6.574,1.95 V -6.111 h 7.059 c 4.507,0 6.784,2.293 6.784,6.796 V 17.46 L 0,19.464 Z"
             style="fill:#5d5e65;fill-opacity:1;fill-rule:nonzero;stroke:none"
             id="path278" /></g><g
           id="g280"
           transform="translate(1056.8435,249.4503)"><path
             d="m 0,0 c 0,-3.555 -1.16,-6.531 -3.52,-8.795 -2.343,-2.296 -5.464,-3.479 -9.429,-3.479 h -19.676 l 3.055,5.823 h 6.98 v 34.11 l 6.6,1.925 V -6.451 h 2.648 c 4.557,0 6.86,2.293 6.86,6.927 V 30.951 L 0,32.904 Z"
             style="fill:#5d5e65;fill-opacity:1;fill-rule:nonzero;stroke:none"
             id="path282" /></g><g
           id="g284"
           transform="translate(1069.2991,237.1764)"><path
             d="M 0,0 H -6.584 V 42.621 L 0,44.7 Z"
             style="fill:#5d5e65;fill-opacity:1;fill-rule:nonzero;stroke:none"
             id="path286" /></g><g
           id="g288"
           transform="translate(1119.0853,267.6006)"><path
             d="m 0,0 c 0,-2.001 -1.687,-3.581 -3.612,-3.581 -1.881,0 -3.555,1.58 -3.555,3.581 0,1.95 1.674,3.609 3.555,3.609 C -1.687,3.609 0,1.95 0,0 m -9.299,0 c 0,-2.001 -1.677,-3.581 -3.611,-3.581 -1.92,0 -3.528,1.58 -3.528,3.581 0,1.95 1.608,3.609 3.528,3.609 1.934,0 3.611,-1.659 3.611,-3.609 M 16.75,-18.49 c 0,-7.298 -4.911,-11.934 -12.998,-11.934 h -24.63 c -7.466,0 -12.455,4.795 -12.455,11.934 v 6.98 l 6.518,6.661 v -12.956 c 0,-4.504 2.29,-6.797 6.847,-6.797 H 3.395 c 4.636,0 6.914,2.293 6.914,6.797 v 16.908 l 6.441,1.738 z"
             style="fill:#5d5e65;fill-opacity:1;fill-rule:nonzero;stroke:none"
             id="path290" /></g><g
           id="g292"
           transform="translate(1158.1747,237.1764)"><path
             d="m 0,0 h -7.326 c -5.871,0 -9.138,3.611 -9.138,8.931 v 33.69 L -9.882,44.7 V 9.166 c 0,-2.239 1.11,-3.343 3.387,-3.343 l 6.495,0 z"
             style="fill:#5d5e65;fill-opacity:1;fill-rule:nonzero;stroke:none"
             id="path294" /></g><path
           d="m 1169.26,237.176 h -12.813 v 5.823 h 12.813 z"
           style="fill:#5d5e65;fill-opacity:1;fill-rule:nonzero;stroke:none"
           id="path296" /><path
           d="m 1180.417,237.176 h -12.826 v 5.823 h 12.826 z"
           style="fill:#5d5e65;fill-opacity:1;fill-rule:nonzero;stroke:none"
           id="path298" /><path
           d="m 1191.572,237.176 h -12.828 v 5.823 h 12.828 z"
           style="fill:#5d5e65;fill-opacity:1;fill-rule:nonzero;stroke:none"
           id="path300" /><g
           id="g302"
           transform="translate(1245.399,249.1103)"><path
             d="m 0,0 c 0,-7.139 -5.069,-11.934 -13.028,-11.934 h -42.343 v 5.823 h 8.171 v 17.542 l 6.598,1.871 V -6.244 h 13.562 v 20.65 l 6.587,1.95 V -6.111 h 7.085 c 4.503,0 6.755,2.293 6.755,6.796 V 17.46 L 0,19.464 Z"
             style="fill:#5d5e65;fill-opacity:1;fill-rule:nonzero;stroke:none"
             id="path304" /></g><g
           id="g306"
           transform="translate(1258.0436,237.1764)"><path
             d="M 0,0 H -6.574 V 42.621 L 0,44.7 Z"
             style="fill:#5d5e65;fill-opacity:1;fill-rule:nonzero;stroke:none"
             id="path308" /></g><g
           id="g310"
           transform="translate(1284.9354,239.2595)"><path
             d="m 0,0 c 0,-4.639 -1.396,-8.299 -4.23,-11.17 -2.763,-2.819 -6.582,-4.215 -11.377,-4.215 -2.975,0 -5.414,0.631 -7.413,1.897 l -3.095,6.482 c 3.095,-1.713 6.556,-2.635 10.508,-2.635 5.623,0 9.01,3.606 9.01,9.429 V 27.232 L 0,29.182 Z"
             style="fill:#5d5e65;fill-opacity:1;fill-rule:nonzero;stroke:none"
             id="path312" /></g><g
           id="g314"
           transform="translate(1327.7106,237.1764)"><path
             d="m 0,0 h -36.914 l 3.939,5.69 h 17.053 v 13.145 c 0,4.529 -2.41,6.794 -7.203,6.794 -3.951,0 -7.059,-2.001 -9.365,-6.004 v 7.482 c 3.121,2.711 6.257,4.084 9.365,4.084 4.083,0 7.337,-1.109 9.89,-3.241 2.594,-2.162 3.818,-5.007 3.818,-8.616 V 5.823 H 0 Z"
             style="fill:#5d5e65;fill-opacity:1;fill-rule:nonzero;stroke:none"
             id="path316" /></g><g
           id="g318"
           transform="translate(1355.5507,237.1764)"><path
             d="M 0,0 H -4.565 C -8.583,0 -11.796,1.263 -14.181,3.739 -16.471,1.263 -19.753,0 -23.955,0 h -5.621 v 5.823 h 5.189 c 4.583,0 6.873,2.371 6.873,7.085 V 42.621 L -10.94,44.7 V 12.54 c 0,-4.504 2.278,-6.717 6.782,-6.717 l 4.158,0 z"
             style="fill:#5d5e65;fill-opacity:1;fill-rule:nonzero;stroke:none"
             id="path320" /></g><g
           id="g322"
           transform="translate(1371.25,249.4503)"><path
             d="m 0,0 c 0,-3.555 -1.155,-6.451 -3.515,-8.795 -2.344,-2.296 -5.531,-3.479 -9.483,-3.479 h -4.449 v 5.823 h 4.11 c 4.49,0 6.794,2.372 6.794,7.085 V 30.348 L 0,32.295 Z"
             style="fill:#5d5e65;fill-opacity:1;fill-rule:nonzero;stroke:none"
             id="path324" /></g><g
           id="g326"
           transform="translate(1410.5769,256.6941)"><path
             d="m 0,0 c 0,-1.92 -1.672,-3.553 -3.594,-3.553 -1.95,0 -3.527,1.633 -3.527,3.553 0,1.948 1.577,3.558 3.527,3.558 C -1.672,3.558 0,1.948 0,0 M 26.83,-19.518 H 15.515 c -0.606,-8.874 -6.781,-13.301 -18.49,-13.301 -8.335,0 -13.92,2.581 -16.908,7.691 -2.15,3.685 -3.096,9.429 -2.994,17.411 l 6.534,1.925 v -6.035 c 0,-10.799 3.714,-15.037 13.434,-15.037 7.982,0 11.916,3.134 11.916,9.429 v 20.65 l 6.575,1.999 V -13.695 H 26.83 Z"
             style="fill:#5d5e65;fill-opacity:1;fill-rule:nonzero;stroke:none"
             id="path328" /></g><path
           d="m 1448.511,237.176 h -12.816 v 5.823 h 12.816 z"
           style="fill:#5d5e65;fill-opacity:1;fill-rule:nonzero;stroke:none"
           id="path330" /><path
           d="m 1459.65,237.176 h -12.801 v 5.823 h 12.801 z"
           style="fill:#5d5e65;fill-opacity:1;fill-rule:nonzero;stroke:none"
           id="path332" /><g
           id="g334"
           transform="translate(1474.9016,227.4814)"><path
             d="m 0,0 c 0,-1.92 -1.592,-3.607 -3.517,-3.607 -2.027,0 -3.688,1.687 -3.688,3.607 0,1.953 1.661,3.532 3.688,3.532 C -1.592,3.532 0,1.953 0,0 m -9.35,0 c 0,-1.92 -1.661,-3.607 -3.514,-3.607 -1.979,0 -3.625,1.687 -3.625,3.607 0,1.953 1.646,3.532 3.625,3.532 1.853,0 3.514,-1.579 3.514,-3.532 M 1.449,21.969 c 0,-3.556 -1.183,-6.531 -3.527,-8.795 -2.359,-2.296 -5.547,-3.479 -9.488,-3.479 h -5.355 v 5.69 h 5.002 c 4.583,0 6.873,2.346 6.873,7.059 V 39.01 l 6.495,1.95 z"
             style="fill:#5d5e65;fill-opacity:1;fill-rule:nonzero;stroke:none"
             id="path336" /></g><g
           id="g338"
           transform="translate(1513.0171,237.1764)"><path
             d="m 0,0 h -9.851 c -0.91,-8.031 -6.574,-13.302 -15.518,-13.302 -2.988,0 -5.426,0.632 -7.425,1.897 l -3.121,6.482 c 3.121,-1.713 6.572,-2.635 10.546,-2.635 5.598,0 8.998,3.606 8.998,9.429 v 27.444 l 6.574,1.95 V 5.823 H 0 Z"
             style="fill:#5d5e65;fill-opacity:1;fill-rule:nonzero;stroke:none"
             id="path340" /></g><g
           id="g342"
           transform="translate(1557.7424,237.1764)"><path
             d="m 0,0 h -46.425 v 5.69 h 31.094 v 2.504 c 0,5.24 -0.473,9.059 -1.431,11.431 -1.519,3.872 -4.588,5.823 -9.156,5.823 -3.819,0 -7.272,-1.82 -10.526,-5.347 l -4.687,4.37 c 4.639,4.504 9.666,6.794 15.213,6.794 7.006,0 11.852,-2.581 14.564,-7.637 1.871,-3.527 2.768,-8.719 2.768,-15.434 V 5.823 H 0 Z"
             style="fill:#5d5e65;fill-opacity:1;fill-rule:nonzero;stroke:none"
             id="path344" /></g><path
           d="m 1568.887,237.176 h -12.844 v 5.823 h 12.844 z"
           style="fill:#5d5e65;fill-opacity:1;fill-rule:nonzero;stroke:none"
           id="path346" /><g
           id="g348"
           transform="translate(1585.9277,227.4021)"><path
             d="m 0,0 c 0,-1.948 -1.621,-3.606 -3.545,-3.606 -1.948,0 -3.607,1.658 -3.607,3.606 0,1.871 1.659,3.558 3.607,3.558 C -1.621,3.558 0,1.871 0,0 M 9.902,9.774 H 5.754 c -4.098,0 -7.285,1.263 -9.652,3.66 -2.362,-2.397 -5.598,-3.66 -9.841,-3.66 h -4.976 v 5.69 h 4.57 c 4.649,0 6.914,2.346 6.914,7.06 v 16.565 l 6.533,1.951 V 22.314 c 0,-4.557 2.275,-6.85 6.861,-6.85 h 3.739 z"
             style="fill:#5d5e65;fill-opacity:1;fill-rule:nonzero;stroke:none"
             id="path350" /></g><g
           id="g352"
           transform="translate(1611.5952,249.4503)"><path
             d="m 0,0 c 0,-3.555 -1.173,-6.451 -3.54,-8.795 -2.331,-2.296 -5.518,-3.479 -9.457,-3.479 h -4.453 v 5.823 h 4.069 c 4.517,0 6.822,2.372 6.822,7.085 V 30.348 L 0,32.295 Z"
             style="fill:#5d5e65;fill-opacity:1;fill-rule:nonzero;stroke:none"
             id="path354" /></g><g
           id="g356"
           transform="translate(1624.0686,237.1764)"><path
             d="M 0,0 H -6.587 V 42.621 L 0,44.7 Z"
             style="fill:#5d5e65;fill-opacity:1;fill-rule:nonzero;stroke:none"
             id="path358" /></g><g
           id="g360"
           transform="translate(1661.287,278.2133)"><path
             d="m 0,0 c 0,-1.948 -1.595,-3.607 -3.53,-3.607 -1.937,0 -3.596,1.659 -3.596,3.607 0,2.004 1.659,3.663 3.596,3.663 C -1.595,3.663 0,2.004 0,0 M 9.994,-41.037 H 0.13 c -0.894,-8.031 -6.558,-13.302 -15.512,-13.302 -2.991,0 -5.401,0.632 -7.418,1.897 l -3.121,6.482 c 3.121,-1.713 6.587,-2.635 10.539,-2.635 5.633,0 9.02,3.606 9.02,9.429 v 27.444 l 6.571,1.95 v -25.442 h 9.785 z"
             style="fill:#5d5e65;fill-opacity:1;fill-rule:nonzero;stroke:none"
             id="path362" /></g><path
           d="m 1682.397,237.176 h -12.803 v 5.823 h 12.803 z"
           style="fill:#5d5e65;fill-opacity:1;fill-rule:nonzero;stroke:none"
           id="path364" /><path
           d="m 1693.554,237.176 h -12.816 v 5.823 h 12.816 z"
           style="fill:#5d5e65;fill-opacity:1;fill-rule:nonzero;stroke:none"
           id="path366" /><g
           id="g368"
           transform="translate(1731.1687,237.1764)"><path
             d="m 0,0 h -39.276 v 5.69 h 32.574 c 0.061,3.532 -0.079,6.111 -0.279,7.56 -0.516,2.843 -1.61,5.107 -3.345,6.718 -2.344,2.213 -5.493,3.32 -9.271,3.32 -4.979,0 -9.01,-1.823 -12.118,-5.429 l -4.53,4.243 21.548,22.467 H -6.07 L -21.046,28.842 c 1.053,0.133 2.001,0.212 3.029,0.212 4.807,0 8.808,-1.475 12.074,-4.371 3.254,-2.847 5.179,-6.666 5.744,-11.433 C -0.054,12.274 0,7.824 0,0"
             style="fill:#5d5e65;fill-opacity:1;fill-rule:nonzero;stroke:none"
             id="path370" /></g><g
           id="g372"
           transform="translate(1767.8066,237.1764)"><path
             d="m 0,0 h -9.836 c -0.912,-8.031 -6.586,-13.302 -15.53,-13.302 -3.003,0 -5.413,0.632 -7.428,1.897 l -3.08,6.482 c 3.08,-1.713 6.544,-2.635 10.508,-2.635 5.623,0 9.01,3.606 9.01,9.429 v 27.444 l 6.597,1.95 V 5.823 H 0 Z"
             style="fill:#5d5e65;fill-opacity:1;fill-rule:nonzero;stroke:none"
             id="path374" /></g><g
           id="g376"
           transform="translate(1795.8462,252.0064)"><path
             d="m 0,0 c 0,6.163 -2.29,9.271 -6.781,9.271 -4.585,0 -6.86,-3.108 -6.86,-9.271 0,-6.191 2.275,-9.22 6.86,-9.22 C -2.29,-9.22 0,-6.191 0,0 m 6.584,0 c 0,-4.159 -0.945,-7.558 -2.857,-10.114 -2.278,-3.108 -5.792,-4.716 -10.508,-4.716 -4.008,0 -7.205,1.263 -9.641,3.66 -2.217,-2.397 -5.611,-3.66 -10.181,-3.66 h -3.136 v 5.69 h 2.712 c 4.504,0 6.786,2.292 6.786,6.929 V 0 c 0,4.215 0.984,7.637 2.855,10.247 2.293,3.134 5.838,4.662 10.605,4.662 4.716,0 8.23,-1.528 10.508,-4.662 C 5.639,7.637 6.584,4.215 6.584,0"
             style="fill:#5d5e65;fill-opacity:1;fill-rule:nonzero;stroke:none"
             id="path378" /></g><g
           id="g380"
           transform="translate(135.4954,174.4593)"><path
             d="m 0,0 c 4.701,0 7.547,2.952 7.547,8.033 0,5.455 -2.846,8.062 -7.547,8.062 H -11.379 V 0 Z M -11.379,36.114 V 21.182 H -1.25 c 4.636,0 7.452,2.604 7.452,7.425 0,4.503 -2.816,7.507 -7.452,7.507 z M 6.059,18.863 C 11.365,17.307 13.538,12.749 13.538,7.589 13.538,-0.054 8.849,-5.11 0.541,-5.11 h -17.769 v 46.308 h 16.464 c 8.311,0 12.999,-5.084 12.999,-12.118 0,-4.476 -1.95,-8.427 -6.176,-10.061 z"
             style="fill:#5d5e65;fill-opacity:1;fill-rule:nonzero;stroke:none"
             id="path382" /></g><g
           id="g384"
           transform="translate(176.7038,184.8903)"><path
             d="m 0,0 h -8.322 c -4.755,0 -7.349,-1.973 -7.349,-6.004 0,-4.056 3.148,-5.769 7.15,-5.769 3.755,0 8.521,2.502 8.521,7.954 z m -18.806,14.436 v 3.53 c 4.358,0.736 8.665,1.235 12.195,1.235 7.639,0 12.078,-2.525 12.078,-11.086 V -15.541 H 0.344 L 0,-11.377 h -0.13 c -2.99,-3.819 -6.138,-4.821 -10.497,-4.821 -6.401,0 -10.483,3.926 -10.483,9.931 0,7.504 5.108,10.139 11.589,10.139 H 0 v 3.952 c 0,4.243 -1.369,6.612 -7.084,6.612 z"
             style="fill:#5d5e65;fill-opacity:1;fill-rule:nonzero;stroke:none"
             id="path386" /></g><g
           id="g388"
           transform="translate(190.3479,169.3496)"><path
             d="M 0,0 V 47.677 H 5.44 V 29.898 h 0.145 c 2.726,3.476 6.481,4.843 10.761,4.843 6.86,0 10.562,-4.291 10.562,-10.4 V 0 H 21.43 v 23.973 c 0,4.107 -3.24,6.349 -7.218,6.349 -3.925,0 -8.772,-2.794 -8.772,-8.062 L 5.44,0 Z"
             style="fill:#5d5e65;fill-opacity:1;fill-rule:nonzero;stroke:none"
             id="path390" /></g><g
           id="g392"
           transform="translate(225.4457,169.3496)"><path
             d="m 0,0 v 34.062 h 5.099 l 0.34,-5.718 h 0.122 c 2.276,4.478 6.808,6.397 11.115,6.397 v -5.5 h -1.372 c -6.123,0 -9.865,-4.031 -9.865,-8.8 L 5.439,0 Z"
             style="fill:#5d5e65;fill-opacity:1;fill-rule:nonzero;stroke:none"
             id="path394" /></g><g
           id="g396"
           transform="translate(266.0251,184.8903)"><path
             d="m 0,0 h -8.298 c -4.741,0 -7.349,-1.973 -7.349,-6.004 0,-4.056 3.12,-5.769 7.151,-5.769 3.741,0 8.496,2.502 8.496,7.954 z m -18.78,14.436 v 3.53 c 4.359,0.736 8.651,1.235 12.182,1.235 7.612,0 12.05,-2.525 12.05,-11.086 V -15.541 H 0.343 L 0,-11.377 h -0.131 c -2.992,-3.819 -6.112,-4.821 -10.484,-4.821 -6.413,0 -10.484,3.926 -10.484,9.931 0,7.504 5.111,10.139 11.577,10.139 H 0 v 3.952 c 0,4.243 -1.37,6.612 -7.087,6.612 z"
             style="fill:#5d5e65;fill-opacity:1;fill-rule:nonzero;stroke:none"
             id="path398" /></g><path
           d="m 285.135,169.35 h -5.466 v 34.062 h 5.466 z m 0,39.324 h -5.466 v 8.353 h 5.466 z"
           style="fill:#5d5e65;fill-opacity:1;fill-rule:nonzero;stroke:none"
           id="path400" /><g
           id="g402"
           transform="translate(293.2866,169.3496)"><path
             d="m 0,0 v 34.062 h 5.111 l 0.328,-4.164 h 0.133 c 2.738,3.476 6.505,4.843 10.772,4.843 6.888,0 10.563,-4.291 10.563,-10.4 V 0 h -5.439 v 23.973 c 0,4.107 -3.267,6.349 -7.231,6.349 -3.952,0 -8.798,-2.794 -8.798,-8.062 L 5.439,0 Z"
             style="fill:#5d5e65;fill-opacity:1;fill-rule:nonzero;stroke:none"
             id="path404" /></g><g
           id="g406"
           transform="translate(358.7156,216.3421)"><path
             d="M 0,0 C 3.32,0 7.731,-0.34 12.013,-1.214 V -5.373 H 0.658 c -10.772,0 -12.669,-10.326 -12.669,-18.467 0,-8.085 1.897,-18.437 12.669,-18.437 h 11.355 v -4.135 C 7.731,-47.309 3.32,-47.649 0,-47.649 c -14.67,0 -18.07,12.245 -18.07,23.809 C -18.07,-12.251 -14.67,0 0,0"
             style="fill:#5d5e65;fill-opacity:1;fill-rule:nonzero;stroke:none"
             id="path408" /></g><g
           id="g410"
           transform="translate(382.7524,188.5504)"><path
             d="m 0,0 h 11.102 c 4.557,0 5.861,2.715 5.861,5.271 0,2.791 -2.621,5.505 -7.362,5.505 C 3.199,10.776 0.409,6.089 0,0 m -0.079,-3.788 c 0.13,-6.428 2.397,-11.303 9.008,-11.303 h 11.207 v -3.529 c -4.28,-0.898 -7.876,-1.238 -11.207,-1.238 -10.851,0 -14.815,7.139 -14.815,17.701 0,10.485 4.662,17.698 15.619,17.698 8.507,0 12.671,-5.028 12.671,-10.084 0,-4.56 -2.056,-9.245 -9.932,-9.245 z"
             style="fill:#5d5e65;fill-opacity:1;fill-rule:nonzero;stroke:none"
             id="path412" /></g><g
           id="g414"
           transform="translate(412.3193,169.3496)"><path
             d="m 0,0 v 34.062 h 5.111 l 0.354,-4.164 h 0.133 c 2.713,3.476 6.465,4.843 10.745,4.843 6.877,0 10.563,-4.291 10.563,-10.4 V 0 h -5.452 v 23.973 c 0,4.107 -3.267,6.349 -7.23,6.349 -3.964,0 -8.759,-2.794 -8.759,-8.062 V 0 Z"
             style="fill:#5d5e65;fill-opacity:1;fill-rule:nonzero;stroke:none"
             id="path416" /></g><g
           id="g418"
           transform="translate(449.2475,176.6471)"><path
             d="m 0,0 v 22.416 h -5.569 v 3.318 L 0,26.764 2.252,36.296 h 3.187 v -9.532 h 9.404 V 22.416 H 5.439 V 0.345 c 0,-2.794 1.148,-3.532 3.755,-3.532 h 5.649 v -3.53 C 12.117,-7.561 10.539,-7.954 8.152,-7.954 1.633,-7.954 0,-4.269 0,0"
             style="fill:#5d5e65;fill-opacity:1;fill-rule:nonzero;stroke:none"
             id="path420" /></g><g
           id="g422"
           transform="translate(474.1918,188.5504)"><path
             d="m 0,0 h 11.103 c 4.572,0 5.847,2.715 5.847,5.271 0,2.791 -2.593,5.505 -7.361,5.505 C 3.201,10.776 0.382,6.089 0,0 m -0.078,-3.788 c 0.133,-6.428 2.385,-11.303 8.983,-11.303 h 11.259 v -3.529 c -4.293,-0.898 -7.914,-1.238 -11.259,-1.238 -10.826,0 -14.751,7.139 -14.751,17.701 0,10.485 4.636,17.698 15.565,17.698 8.536,0 12.684,-5.028 12.684,-10.084 0,-4.56 -2.042,-9.245 -9.958,-9.245 z"
             style="fill:#5d5e65;fill-opacity:1;fill-rule:nonzero;stroke:none"
             id="path424" /></g><g
           id="g426"
           transform="translate(503.7471,169.3496)"><path
             d="m 0,0 v 34.062 h 5.108 l 0.331,-5.718 h 0.157 c 2.253,4.478 6.797,6.397 11.104,6.397 v -5.5 h -1.369 c -6.126,0 -9.892,-4.031 -9.892,-8.8 V 0 Z"
             style="fill:#5d5e65;fill-opacity:1;fill-rule:nonzero;stroke:none"
             id="path428" /></g><g
           id="g430"
           transform="translate(556.9019,216.4751)"><path
             d="m 0,0 v -3.532 h -5.664 c -2.596,0 -3.755,-0.737 -3.755,-3.607 v -5.925 H 0 v -4.348 h -9.419 v -29.713 h -5.412 v 29.713 h -5.609 v 3.318 l 5.609,1.03 v 6.265 c 0,4.297 1.62,8.036 8.165,8.036 C -4.308,1.237 -2.741,0.815 0,0"
             style="fill:#5d5e65;fill-opacity:1;fill-rule:nonzero;stroke:none"
             id="path432" /></g><g
           id="g434"
           transform="translate(566.1601,186.3931)"><path
             d="m 0,0 c 0,-7.428 2.042,-13.064 9.06,-13.064 7.088,0 9.114,5.636 9.114,13.064 0,7.428 -2.026,13.066 -9.114,13.066 C 2.042,13.066 0,7.428 0,0 m -5.728,0 c 0,10.485 3.951,17.698 14.788,17.698 10.878,0 14.831,-7.213 14.831,-17.698 0,-10.561 -3.953,-17.7 -14.831,-17.7 -10.837,0 -14.788,7.139 -14.788,17.7"
             style="fill:#5d5e65;fill-opacity:1;fill-rule:nonzero;stroke:none"
             id="path436" /></g><g
           id="g438"
           transform="translate(597.5837,169.3496)"><path
             d="m 0,0 v 34.062 h 5.112 l 0.34,-5.718 h 0.146 c 2.225,4.478 6.781,6.397 11.063,6.397 v -5.5 h -1.357 c -6.124,0 -9.852,-4.031 -9.852,-8.8 L 5.452,0 Z"
             style="fill:#5d5e65;fill-opacity:1;fill-rule:nonzero;stroke:none"
             id="path440" /></g><g
           id="g442"
           transform="translate(646.2222,190.3475)"><path
             d="m 0,0 c -6.77,1.894 -13.158,6.058 -13.158,13.876 0,8.512 6.822,12.119 15.053,12.119 3.557,0 7.785,-0.34 12.105,-1.215 V 20.622 H 1.895 c -6.321,0 -8.994,-2.502 -8.994,-6.533 0,-5.452 6.346,-7.824 11.182,-9.141 7.018,-1.817 12.669,-5.24 12.669,-13.194 0,-8.721 -6.941,-13.409 -15.54,-13.409 -3.61,0 -10.011,0.34 -14.37,1.237 v 4.136 H 1.093 c 6.677,0 9.6,3.479 9.6,7.85 C 10.693,-2.873 4.686,-1.373 0,0"
             style="fill:#5d5e65;fill-opacity:1;fill-rule:nonzero;stroke:none"
             id="path444" /></g><g
           id="g446"
           transform="translate(672.7205,176.6471)"><path
             d="m 0,0 v 22.416 h -5.585 v 3.318 L 0,26.764 2.238,36.296 h 3.214 v -9.532 h 9.391 V 22.416 H 5.452 V 0.345 c 0,-2.794 1.159,-3.532 3.752,-3.532 h 5.639 v -3.53 C 12.117,-7.561 10.576,-7.954 8.178,-7.954 1.646,-7.954 0,-4.269 0,0"
             style="fill:#5d5e65;fill-opacity:1;fill-rule:nonzero;stroke:none"
             id="path448" /></g><g
           id="g450"
           transform="translate(692.8174,169.3496)"><path
             d="m 0,0 v 34.062 h 5.125 l 0.342,-5.718 h 0.131 c 2.237,4.478 6.796,6.397 11.101,6.397 v -5.5 H 15.33 c -6.123,0 -9.863,-4.031 -9.863,-8.8 L 5.467,0 Z"
             style="fill:#5d5e65;fill-opacity:1;fill-rule:nonzero;stroke:none"
             id="path452" /></g><g
           id="g454"
           transform="translate(733.4096,184.8903)"><path
             d="m 0,0 h -8.298 c -4.768,0 -7.349,-1.973 -7.349,-6.004 0,-4.056 3.108,-5.769 7.137,-5.769 3.768,0 8.51,2.502 8.51,7.954 z m -18.794,14.436 v 3.53 c 4.357,0.736 8.664,1.235 12.207,1.235 7.613,0 12.039,-2.525 12.039,-11.086 V -15.541 H 0.353 L 0,-11.377 h -0.121 c -2.987,-3.819 -6.15,-4.821 -10.497,-4.821 -6.413,0 -10.496,3.926 -10.496,9.931 0,7.504 5.123,10.139 11.59,10.139 H 0 v 3.952 c 0,4.243 -1.344,6.612 -7.073,6.612 z"
             style="fill:#5d5e65;fill-opacity:1;fill-rule:nonzero;stroke:none"
             id="path456" /></g><g
           id="g458"
           transform="translate(748.9079,176.6471)"><path
             d="m 0,0 v 22.416 h -5.596 v 3.318 L 0,26.764 2.24,36.296 h 3.201 v -9.532 h 9.402 V 22.416 H 5.441 V 0.345 c 0,-2.794 1.159,-3.532 3.739,-3.532 h 5.663 v -3.53 C 12.117,-7.561 10.551,-7.954 8.165,-7.954 1.633,-7.954 0,-4.269 0,0"
             style="fill:#5d5e65;fill-opacity:1;fill-rule:nonzero;stroke:none"
             id="path460" /></g><g
           id="g462"
           transform="translate(773.8406,188.5504)"><path
             d="m 0,0 h 11.103 c 4.544,0 5.859,2.715 5.859,5.271 0,2.791 -2.606,5.505 -7.374,5.505 C 3.199,10.776 0.395,6.089 0,0 m -0.079,-3.788 c 0.119,-6.428 2.397,-11.303 8.996,-11.303 h 11.246 v -3.529 c -4.307,-0.898 -7.889,-1.238 -11.246,-1.238 -10.826,0 -14.778,7.139 -14.778,17.701 0,10.485 4.623,17.698 15.58,17.698 8.508,0 12.682,-5.028 12.682,-10.084 0,-4.56 -2.053,-9.245 -9.929,-9.245 z"
             style="fill:#5d5e65;fill-opacity:1;fill-rule:nonzero;stroke:none"
             id="path464" /></g><g
           id="g466"
           transform="translate(824.8487,198.8513)"><path
             d="m 0,0 h -7.494 c -7.073,0 -9.601,-5.373 -9.601,-12.535 0,-7.272 1.724,-13.12 9.022,-13.12 3.937,0 8.073,2.763 8.073,8.034 z m 0,-25.338 h -0.133 c -2.647,-3.479 -5.518,-4.821 -9.653,-4.821 -9.455,0 -13.024,7.06 -13.024,17.624 0,10.482 4.662,17.095 15.092,17.095 h 13.17 v -30.662 c 0,-10.534 -3.952,-17.703 -14.816,-17.703 -3.371,0 -6.349,0.371 -10.708,1.24 v 3.532 h 10.97 c 7.06,0 9.102,5.529 9.102,12.402 z"
             style="fill:#5d5e65;fill-opacity:1;fill-rule:nonzero;stroke:none"
             id="path468" /></g><path
           d="m 843.958,169.35 h -5.465 v 34.062 h 5.465 z m 0,39.324 h -5.465 v 8.353 h 5.465 z"
           style="fill:#5d5e65;fill-opacity:1;fill-rule:nonzero;stroke:none"
           id="path470" /><g
           id="g472"
           transform="translate(866.2154,204.091)"><path
             d="m 0,0 c 3.333,0 5.927,-0.365 10.195,-1.234 v -3.53 H 0 c -7.006,0 -9.061,-5.506 -9.061,-12.934 0,-7.428 2.055,-12.933 9.061,-12.933 h 10.195 v -3.53 C 5.927,-35.058 3.333,-35.398 0,-35.398 c -10.825,0 -14.789,7.139 -14.789,17.7 C -14.789,-7.213 -10.825,0 0,0"
             style="fill:#5d5e65;fill-opacity:1;fill-rule:nonzero;stroke:none"
             id="path474" /></g><g
           id="g476"
           transform="translate(882.4423,177.6721)"><path
             d="m 0,0 h 5.108 v -4.923 c 0,-3.53 -0.618,-8.166 -1.909,-12.22 H 0 Z"
             style="fill:#5d5e65;fill-opacity:1;fill-rule:nonzero;stroke:none"
             id="path478" /></g><path
           d="m 908.663,215.657 h 5.874 v -46.308 h -5.874 z"
           style="fill:#5d5e65;fill-opacity:1;fill-rule:nonzero;stroke:none"
           id="path480" /><g
           id="g482"
           transform="translate(923.3884,169.3496)"><path
             d="M 0,0 V 34.062 H 5.097 L 5.452,29.898 H 5.57 c 2.739,3.476 6.48,4.843 10.761,4.843 6.874,0 10.562,-4.291 10.562,-10.4 V 0 h -5.427 v 23.973 c 0,4.107 -3.278,6.349 -7.23,6.349 -3.938,0 -8.784,-2.794 -8.784,-8.062 V 0 Z"
             style="fill:#5d5e65;fill-opacity:1;fill-rule:nonzero;stroke:none"
             id="path484" /></g><g
           id="g486"
           transform="translate(960.3166,176.6471)"><path
             d="m 0,0 v 22.416 h -5.597 v 3.318 L 0,26.764 2.253,36.296 H 5.44 v -9.532 h 9.389 V 22.416 H 5.44 V 0.345 c 0,-2.794 1.156,-3.532 3.753,-3.532 h 5.636 v -3.53 C 12.114,-7.561 10.547,-7.954 8.181,-7.954 1.633,-7.954 0,-4.269 0,0"
             style="fill:#5d5e65;fill-opacity:1;fill-rule:nonzero;stroke:none"
             id="path488" /></g><g
           id="g490"
           transform="translate(985.2468,188.5504)"><path
             d="m 0,0 h 11.103 c 4.545,0 5.851,2.715 5.851,5.271 0,2.791 -2.61,5.505 -7.351,5.505 C 3.215,10.776 0.412,6.089 0,0 m -0.079,-3.788 c 0.133,-6.428 2.41,-11.303 9.007,-11.303 h 11.208 v -3.529 c -4.281,-0.898 -7.875,-1.238 -11.208,-1.238 -10.835,0 -14.786,7.139 -14.786,17.701 0,10.485 4.649,17.698 15.594,17.698 8.507,0 12.652,-5.028 12.652,-10.084 0,-4.56 -2.027,-9.245 -9.927,-9.245 z"
             style="fill:#5d5e65;fill-opacity:1;fill-rule:nonzero;stroke:none"
             id="path492" /></g><g
           id="g494"
           transform="translate(1014.8149,169.3496)"><path
             d="m 0,0 v 34.062 h 5.112 l 0.34,-5.718 h 0.146 c 2.251,4.478 6.822,6.397 11.075,6.397 v -5.5 h -1.367 c -6.115,0 -9.854,-4.031 -9.854,-8.8 L 5.452,0 Z"
             style="fill:#5d5e65;fill-opacity:1;fill-rule:nonzero;stroke:none"
             id="path496" /></g><g
           id="g498"
           transform="translate(1037.3081,169.3496)"><path
             d="m 0,0 v 34.062 h 5.125 l 0.332,-4.164 h 0.158 c 2.697,3.476 6.449,4.843 10.746,4.843 6.87,0 10.546,-4.291 10.546,-10.4 V 0 h -5.452 v 23.973 c 0,4.107 -3.279,6.349 -7.215,6.349 -3.939,0 -8.783,-2.794 -8.783,-8.062 L 5.457,0 Z"
             style="fill:#5d5e65;fill-opacity:1;fill-rule:nonzero;stroke:none"
             id="path500" /></g><g
           id="g502"
           transform="translate(1092.5691,184.8903)"><path
             d="m 0,0 h -8.31 c -4.789,0 -7.358,-1.973 -7.358,-6.004 0,-4.056 3.146,-5.769 7.151,-5.769 3.727,0 8.517,2.502 8.517,7.954 z m -18.807,14.436 v 3.53 c 4.388,0.736 8.644,1.235 12.172,1.235 7.65,0 12.062,-2.525 12.062,-11.086 V -15.541 H 0.332 L 0,-11.377 h -0.156 c -2.988,-3.819 -6.109,-4.821 -10.51,-4.821 -6.344,0 -10.454,3.926 -10.454,9.931 0,7.504 5.107,10.139 11.573,10.139 H 0 v 3.952 c 0,4.243 -1.396,6.612 -7.095,6.612 z"
             style="fill:#5d5e65;fill-opacity:1;fill-rule:nonzero;stroke:none"
             id="path504" /></g><g
           id="g506"
           transform="translate(1108.033,176.6471)"><path
             d="m 0,0 v 22.416 h -5.557 v 3.318 L 0,26.764 2.226,36.296 h 3.229 v -9.532 h 9.398 V 22.416 H 5.455 V 0.345 c 0,-2.794 1.142,-3.532 3.739,-3.532 h 5.659 v -3.53 C 12.128,-7.561 10.562,-7.954 8.164,-7.954 1.649,-7.954 0,-4.269 0,0"
             style="fill:#5d5e65;fill-opacity:1;fill-rule:nonzero;stroke:none"
             id="path508" /></g><path
           d="m 1133.57,169.35 h -5.439 v 34.062 h 5.439 z m 0,39.324 h -5.439 v 8.353 h 5.439 z"
           style="fill:#5d5e65;fill-opacity:1;fill-rule:nonzero;stroke:none"
           id="path510" /><g
           id="g512"
           transform="translate(1146.8054,186.3931)"><path
             d="m 0,0 c 0,-7.428 2.045,-13.064 9.064,-13.064 7.072,0 9.125,5.636 9.125,13.064 0,7.428 -2.053,13.066 -9.125,13.066 C 2.045,13.066 0,7.428 0,0 m -5.743,0 c 0,10.485 3.951,17.698 14.807,17.698 10.878,0 14.842,-7.213 14.842,-17.698 0,-10.561 -3.964,-17.7 -14.842,-17.7 -10.856,0 -14.807,7.139 -14.807,17.7"
             style="fill:#5d5e65;fill-opacity:1;fill-rule:nonzero;stroke:none"
             id="path514" /></g><g
           id="g516"
           transform="translate(1178.2036,169.3496)"><path
             d="M 0,0 V 34.062 H 5.135 L 5.48,29.898 h 0.118 c 2.712,3.476 6.482,4.843 10.733,4.843 6.914,0 10.579,-4.291 10.579,-10.4 V 0 h -5.427 v 23.973 c 0,4.107 -3.297,6.349 -7.261,6.349 -3.952,0 -8.742,-2.794 -8.742,-8.062 V 0 Z"
             style="fill:#5d5e65;fill-opacity:1;fill-rule:nonzero;stroke:none"
             id="path518" /></g><g
           id="g520"
           transform="translate(1233.452,184.8903)"><path
             d="m 0,0 h -8.31 c -4.754,0 -7.348,-1.973 -7.348,-6.004 0,-4.056 3.121,-5.769 7.152,-5.769 3.739,0 8.506,2.502 8.506,7.954 z m -18.795,14.436 v 3.53 c 4.346,0.736 8.655,1.235 12.195,1.235 7.643,0 12.052,-2.525 12.052,-11.086 V -15.541 H 0.345 L 0,-11.377 h -0.118 c -3.003,-3.819 -6.124,-4.821 -10.512,-4.821 -6.398,0 -10.495,3.926 -10.495,9.931 0,7.504 5.122,10.139 11.604,10.139 H 0 v 3.952 c 0,4.243 -1.342,6.612 -7.072,6.612 z"
             style="fill:#5d5e65;fill-opacity:1;fill-rule:nonzero;stroke:none"
             id="path522" /></g><g
           id="g524"
           transform="translate(1247.0859,217.0271)"><path
             d="m 0,0 h 5.439 v -40.035 c 0,-2.926 0.711,-3.532 5.122,-3.532 v -4.427 C 1.368,-48.679 0,-46.308 0,-40.035 Z"
             style="fill:#5d5e65;fill-opacity:1;fill-rule:nonzero;stroke:none"
             id="path526" /></g><g
           id="g528"
           transform="translate(1294.8374,184.8903)"><path
             d="m 0,0 h -8.31 c -4.754,0 -7.32,-1.973 -7.32,-6.004 0,-4.056 3.095,-5.769 7.136,-5.769 3.73,0 8.494,2.502 8.494,7.954 z m -18.794,14.436 v 3.53 c 4.376,0.736 8.657,1.235 12.21,1.235 7.627,0 12.036,-2.525 12.036,-11.086 V -15.541 H 0.345 L 0,-11.377 h -0.156 c -2.988,-3.819 -6.083,-4.821 -10.457,-4.821 -6.402,0 -10.482,3.926 -10.482,9.931 0,7.504 5.095,10.139 11.548,10.139 H 0 v 3.952 c 0,4.243 -1.365,6.612 -7.06,6.612 z"
             style="fill:#5d5e65;fill-opacity:1;fill-rule:nonzero;stroke:none"
             id="path530" /></g><g
           id="g532"
           transform="translate(1308.4562,169.3496)"><path
             d="m 0,0 v 34.062 h 5.122 l 0.345,-4.164 h 0.146 c 2.727,3.476 6.467,4.843 10.746,4.843 6.903,0 10.551,-4.291 10.551,-10.4 V 0 h -5.427 v 23.973 c 0,4.107 -3.279,6.349 -7.231,6.349 -3.951,0 -8.785,-2.794 -8.785,-8.062 L 5.467,0 Z"
             style="fill:#5d5e65;fill-opacity:1;fill-rule:nonzero;stroke:none"
             id="path534" /></g><g
           id="g536"
           transform="translate(1365.6957,199.3266)"><path
             d="m 0,0 h -7.479 c -7.103,0 -9.603,-5.636 -9.603,-12.933 0,-7.349 1.697,-13.197 8.982,-13.197 3.951,0 8.1,2.763 8.1,8.034 z M 0,17.7 H 5.452 V -29.977 H 0.371 L 0,-25.813 h -0.12 c -2.661,-3.479 -5.531,-4.821 -9.667,-4.821 -9.47,0 -13.025,7.139 -13.025,17.701 0,10.484 4.442,17.697 14.922,17.697 3.069,0 4.49,-0.155 7.89,-0.6 z"
             style="fill:#5d5e65;fill-opacity:1;fill-rule:nonzero;stroke:none"
             id="path538" /></g><g
           id="g540"
           transform="translate(1419.1779,210.5732)"><path
             d="m 0,0 h -21.046 v -14.932 h 17.713 v -5.087 H -21.046 V -36.114 H 0 v -5.11 H -26.892 V 5.084 L 0,5.084 Z"
             style="fill:#5d5e65;fill-opacity:1;fill-rule:nonzero;stroke:none"
             id="path542" /></g><g
           id="g544"
           transform="translate(1426.4882,169.3496)"><path
             d="m 0,0 v 34.062 h 5.099 l 0.34,-4.164 h 0.146 c 2.737,3.476 6.508,4.843 10.745,4.843 6.902,0 10.562,-4.291 10.562,-10.4 V 0 h -5.421 v 23.973 c 0,4.107 -3.254,6.349 -7.206,6.349 -3.977,0 -8.826,-2.794 -8.826,-8.062 L 5.439,0 Z"
             style="fill:#5d5e65;fill-opacity:1;fill-rule:nonzero;stroke:none"
             id="path546" /></g><g
           id="g548"
           transform="translate(1466.748,188.5504)"><path
             d="m 0,0 h 11.103 c 4.571,0 5.846,2.715 5.846,5.271 0,2.791 -2.592,5.505 -7.346,5.505 C 3.2,10.776 0.396,6.089 0,0 m -0.079,-3.788 c 0.133,-6.428 2.397,-11.303 8.984,-11.303 h 11.262 v -3.529 c -4.309,-0.898 -7.916,-1.238 -11.262,-1.238 -10.786,0 -14.738,7.139 -14.738,17.701 0,10.485 4.624,17.698 15.566,17.698 8.535,0 12.686,-5.028 12.686,-10.084 0,-4.56 -2.04,-9.245 -9.956,-9.245 z"
             style="fill:#5d5e65;fill-opacity:1;fill-rule:nonzero;stroke:none"
             id="path550" /></g><g
           id="g552"
           transform="translate(1496.3416,169.3496)"><path
             d="m 0,0 v 34.062 h 5.112 l 0.317,-5.718 h 0.143 c 2.255,4.478 6.825,6.397 11.104,6.397 v -5.5 h -1.37 c -6.114,0 -9.877,-4.031 -9.877,-8.8 L 5.429,0 Z"
             style="fill:#5d5e65;fill-opacity:1;fill-rule:nonzero;stroke:none"
             id="path554" /></g><g
           id="g556"
           transform="translate(1540.2644,198.8513)"><path
             d="m 0,0 h -7.492 c -7.085,0 -9.587,-5.373 -9.587,-12.535 0,-7.272 1.671,-13.12 8.969,-13.12 3.951,0 8.11,2.763 8.11,8.034 z m 0,-25.338 h -0.128 c -2.663,-3.479 -5.518,-4.821 -9.682,-4.821 -9.447,0 -12.987,7.06 -12.987,17.624 0,10.482 4.621,17.095 15.026,17.095 H 5.452 v -30.662 c 0,-10.534 -3.949,-17.703 -14.856,-17.703 -3.328,0 -6.333,0.371 -10.679,1.24 v 3.532 h 10.945 c 7.098,0 9.138,5.529 9.138,12.402 z"
             style="fill:#5d5e65;fill-opacity:1;fill-rule:nonzero;stroke:none"
             id="path558" /></g><g
           id="g560"
           transform="translate(1570.1877,171.8801)"><path
             d="m 0,0 c -2.398,-6.613 -6.758,-13.539 -9.363,-16.834 l -3.872,2.004 6.27,11.776 -12.724,34.585 h 6.111 L -4.095,3.872 h 0.131 l 9.273,27.659 h 5.981 z"
             style="fill:#5d5e65;fill-opacity:1;fill-rule:nonzero;stroke:none"
             id="path562" /></g><g
           id="g564"
           transform="translate(1611.0535,190.3475)"><path
             d="m 0,0 c -6.727,1.894 -13.143,6.058 -13.143,13.876 0,8.512 6.824,12.119 15.042,12.119 3.54,0 7.77,-0.34 12.144,-1.215 V 20.622 H 1.899 c -6.323,0 -8.959,-2.502 -8.959,-6.533 0,-5.452 6.314,-7.824 11.144,-9.141 7.045,-1.817 12.683,-5.24 12.683,-13.194 0,-8.721 -6.952,-13.409 -15.54,-13.409 -3.637,0 -9.987,0.34 -14.37,1.237 v 4.136 H 1.081 c 6.689,0 9.629,3.479 9.629,7.85 C 10.71,-2.873 4.693,-1.373 0,0"
             style="fill:#5d5e65;fill-opacity:1;fill-rule:nonzero;stroke:none"
             id="path566" /></g><g
           id="g568"
           transform="translate(1637.5646,176.6471)"><path
             d="m 0,0 v 22.416 h -5.598 v 3.318 L 0,26.764 2.241,36.296 h 3.198 v -9.532 h 9.404 V 22.416 H 5.439 V 0.345 c 0,-2.794 1.148,-3.532 3.758,-3.532 h 5.646 v -3.53 C 12.105,-7.561 10.564,-7.954 8.169,-7.954 1.633,-7.954 0,-4.269 0,0"
             style="fill:#5d5e65;fill-opacity:1;fill-rule:nonzero;stroke:none"
             id="path570" /></g><g
           id="g572"
           transform="translate(1684.5442,203.4113)"><path
             d="m 0,0 v -34.062 h -5.068 l -0.358,4.164 h -0.146 c -2.778,-3.479 -6.464,-4.821 -10.758,-4.821 -6.889,0 -10.549,4.213 -10.549,10.352 V 0 h 5.452 v -24.052 c 0,-4 3.2,-6.242 7.218,-6.242 3.962,0 8.783,2.768 8.783,7.954 V 0 Z"
             style="fill:#5d5e65;fill-opacity:1;fill-rule:nonzero;stroke:none"
             id="path574" /></g><g
           id="g576"
           transform="translate(1714.8868,199.3266)"><path
             d="m 0,0 h -7.492 c -7.072,0 -9.603,-5.636 -9.603,-12.933 0,-7.349 1.713,-13.197 8.997,-13.197 3.939,0 8.098,2.763 8.098,8.034 z M 0,17.7 H 5.439 V -29.977 H 0.332 L 0,-25.813 h -0.128 c -2.676,-3.479 -5.518,-4.821 -9.669,-4.821 -9.47,0 -13.023,7.139 -13.023,17.701 0,10.484 4.424,17.697 14.922,17.697 3.077,0 4.516,-0.155 7.898,-0.6 z"
             style="fill:#5d5e65;fill-opacity:1;fill-rule:nonzero;stroke:none"
             id="path578" /></g><path
           d="m 1733.973,169.35 h -5.427 v 34.062 h 5.427 z m 0,39.324 h -5.427 v 8.353 h 5.427 z"
           style="fill:#5d5e65;fill-opacity:1;fill-rule:nonzero;stroke:none"
           id="path580" /><g
           id="g582"
           transform="translate(1747.3149,188.5504)"><path
             d="m 0,0 h 11.129 c 4.555,0 5.833,2.715 5.833,5.271 0,2.791 -2.566,5.505 -7.351,5.505 C 3.213,10.776 0.419,6.089 0,0 m -0.054,-3.788 c 0.121,-6.428 2.385,-11.303 8.98,-11.303 h 11.236 v -3.529 c -4.266,-0.898 -7.885,-1.238 -11.236,-1.238 -10.838,0 -14.789,7.139 -14.789,17.701 0,10.485 4.649,17.698 15.607,17.698 8.524,0 12.67,-5.028 12.67,-10.084 0,-4.56 -2.04,-9.245 -9.943,-9.245 z"
             style="fill:#5d5e65;fill-opacity:1;fill-rule:nonzero;stroke:none"
             id="path584" /></g><g
           id="g586"
           transform="translate(1789.9982,204.091)"><path
             d="m 0,0 c 3.571,0 5.823,-0.365 10.206,-1.234 v -3.53 H 0.184 c -6.349,0 -7.535,-2.582 -7.535,-4.476 0,-2.349 0.989,-4.583 7.129,-5.797 6.939,-1.449 12.248,-3.558 12.248,-10.38 0,-6.978 -5.378,-9.981 -13.161,-9.981 -3.568,0 -7.939,0.34 -12.31,1.237 v 3.53 h 12.103 c 6.347,0 7.504,3.241 7.504,5.214 0,2.318 -0.945,4.322 -7.085,5.613 -6.927,1.421 -12.248,3.001 -12.248,10.564 C -13.171,-2.998 -7.719,0 0,0"
             style="fill:#5d5e65;fill-opacity:1;fill-rule:nonzero;stroke:none"
             id="path588" /></g></g></g></g></svg>
