<?xml version="1.0" encoding="utf-8"?>
<!-- Generator: Adobe Illustrator 23.1.1, SVG Export Plug-In . SVG Version: 6.00 Build 0)  -->
<svg version="1.1" id="Layer_1" xmlns="http://www.w3.org/2000/svg" xmlns:xlink="http://www.w3.org/1999/xlink" x="0px" y="0px"
	 viewBox="0 0 82 40" style="enable-background:new 0 0 82 40;" xml:space="preserve">
<style type="text/css">
	.st0{fill:#261855;}
	.st1{fill:#F61D63;}
</style>
<g>
	<g>
		<path class="st0" d="M24.8,28.3l1.8-3c1.7,1.2,3.4,1.8,5.1,1.8c1.1,0,1.9-0.2,2.5-0.5c0.6-0.4,0.9-0.9,0.9-1.6
			c0-0.4-0.1-0.8-0.3-1.1c-0.2-0.3-0.5-0.6-1-0.8c-0.5-0.3-1.2-0.6-2.2-1l-0.6-0.3c-1.2-0.5-2.1-1-2.9-1.4c-0.7-0.5-1.3-1.1-1.7-1.8
			c-0.4-0.7-0.6-1.6-0.6-2.7c0-1.2,0.3-2.2,1-3.1c0.7-0.8,1.5-1.4,2.5-1.8c1-0.4,2.1-0.6,3.3-0.6c1,0,2.1,0.2,3.2,0.6
			c1.1,0.4,2.2,0.9,3.2,1.6l-1.8,3c-0.9-0.6-1.7-1-2.4-1.3c-0.7-0.3-1.4-0.4-2.2-0.4c-0.9,0-1.6,0.2-2,0.5c-0.5,0.3-0.7,0.8-0.7,1.3
			c0,0.3,0.1,0.6,0.3,0.9c0.2,0.3,0.5,0.5,1,0.8c0.5,0.3,1.2,0.6,2.1,0.9l0.6,0.2c1.2,0.5,2.1,0.9,2.9,1.4c0.7,0.4,1.3,1,1.8,1.8
			c0.5,0.8,0.7,1.8,0.7,3c0,1.3-0.3,2.4-0.9,3.3c-0.6,0.9-1.5,1.6-2.6,2c-1.1,0.4-2.3,0.7-3.7,0.7C29.1,30.7,26.7,29.9,24.8,28.3z"
			/>
		<path class="st0" d="M51.1,17.3c0.8,0.7,1.2,1.8,1.2,3.4v9.5h-3.2l-0.3-1.1c-0.7,0.5-1.4,0.9-2.1,1.1c-0.7,0.2-1.4,0.3-2.1,0.3
			c-0.8,0-1.5-0.2-2.1-0.5c-0.6-0.3-1.1-0.8-1.4-1.3c-0.3-0.6-0.5-1.2-0.5-2c0-1.6,0.7-2.8,2.2-3.6c1.5-0.8,3.4-1.3,5.7-1.4v-0.3
			c0-0.6-0.1-1-0.2-1.3c-0.1-0.3-0.3-0.6-0.5-0.7c-0.3-0.2-0.6-0.2-1.1-0.2c-1.2,0-2.5,0.5-4,1.5l-1.5-2.5c1-0.7,2-1.2,2.9-1.6
			c1-0.3,2-0.5,3.1-0.5C49,16.3,50.3,16.6,51.1,17.3z M45,27.4c0.2,0.2,0.6,0.3,1.1,0.3c0.8,0,1.6-0.3,2.5-0.8v-2.6
			c-1.4,0.1-2.4,0.3-3,0.7c-0.6,0.4-1,0.8-1,1.4C44.6,26.8,44.7,27.1,45,27.4z"/>
		<path class="st0" d="M60.3,13.3c-0.3,0.4-0.5,0.9-0.5,1.6v1.8h3.2l-0.4,3.2h-2.8v10.3h-3.8V19.9h-1.8v-3.2h1.8V15
			c0-1.1,0.2-2.1,0.6-2.9c0.4-0.9,1-1.5,1.7-2c0.8-0.5,1.7-0.7,2.7-0.7c0.5,0,1,0,1.4,0.1c0.4,0.1,0.9,0.2,1.3,0.4l-1,3.2
			c-0.4-0.2-0.8-0.3-1.2-0.3C61.1,12.8,60.7,12.9,60.3,13.3z M65.7,14.3c-0.4-0.2-0.7-0.5-0.9-0.9c-0.2-0.4-0.3-0.8-0.3-1.3
			c0-0.5,0.1-0.9,0.3-1.3c0.2-0.4,0.5-0.7,0.9-0.9c0.4-0.2,0.8-0.3,1.2-0.3c0.4,0,0.9,0.1,1.2,0.3c0.4,0.2,0.7,0.5,0.9,0.9
			c0.2,0.4,0.3,0.8,0.3,1.3c0,0.5-0.1,0.9-0.3,1.3c-0.2,0.4-0.5,0.7-0.9,0.9c-0.4,0.2-0.8,0.3-1.2,0.3
			C66.5,14.7,66.1,14.6,65.7,14.3z M65.1,30.3V16.8l3.8-0.4v13.9H65.1z"/>
	</g>
	<g>
		<path class="st1" d="M29.8,18.4l-6.7-3.8c-0.4-0.2-0.9-0.3-1.3-0.2c-0.4,0.1-0.8,0.4-1,0.8c-0.2,0.4-0.3,0.9-0.2,1.3
			c0.1,0.4,0.4,0.8,0.8,1l6.7,3.8c0.2,0.1,0.5,0.1,0.7-0.1c0.3-0.2,0.5-0.5,0.8-1c0.3-0.5,0.4-0.9,0.5-1.3
			C30.2,18.7,30.1,18.5,29.8,18.4z"/>
		<path class="st1" d="M22.6,26l-6.7-3.9c-0.4-0.2-0.9-0.3-1.3-0.2c-0.4,0.1-0.8,0.4-1,0.8c-0.2,0.4-0.3,0.9-0.2,1.3
			c0.1,0.4,0.4,0.8,0.8,1l6.7,3.9c0.2,0.1,0.5,0.1,0.7-0.1c0.3-0.2,0.6-0.5,0.9-1c0.3-0.5,0.5-0.9,0.5-1.2
			C22.9,26.3,22.8,26.1,22.6,26z"/>
		<path class="st1" d="M20.1,22.7c0.2,0.1,0.5,0.1,0.7-0.1c0.3-0.2,0.6-0.5,0.9-1c0.3-0.5,0.5-0.9,0.5-1.2c0-0.3-0.1-0.5-0.3-0.6
			l-6.7-3.9c-0.4-0.2-0.9-0.3-1.3-0.2c-0.4,0.1-0.8,0.4-1,0.8c-0.2,0.4-0.3,0.9-0.2,1.3c0.1,0.4,0.4,0.8,0.8,1L20.1,22.7z"/>
	</g>
</g>
</svg>
